SplineFontDB: 3.2
FontName: LibertinusSerif-Regular
FullName: Libertinus Serif Regular
FamilyName: Libertinus Serif
Weight: Regular
UComments: "2003-08-29: Created.+AAoA-2004-07-25: v(1.0) release candidate+AAoA-2005-12-28: v(1.1.0) stable+AAoA-2006-01-01: v(2.0.0) stable+AAoA-2006-09-05: v(2.2.0) stable+AAoA-2006-12-04: v(2.3.0) stable+AAoA-2007-03-11: v(2.4.0) stable+AAoA-2007-12-00: v(2.7.0) stable+AAoA-2008-06-00: v(2.8.14) stable+AAoA"
Version: 5.3.0
ItalicAngle: 0
UnderlinePosition: -98
UnderlineWidth: 40
Ascent: 754
Descent: 246
InvalidEm: 0
LayerCount: 2
Layer: 0 0 "Back" 1
Layer: 1 0 "Fore" 0
XUID: [1021 993 1524925707 2876416]
FSType: 0
OS2Version: 0
OS2_WeightWidthSlopeOnly: 0
OS2_UseTypoMetrics: 1
CreationTime: 1156455862
PfmFamily: 17
TTFWeight: 400
TTFWidth: 5
LineGap: 0
VLineGap: 0
OS2TypoAscent: 894
OS2TypoAOffset: 0
OS2TypoDescent: -246
OS2TypoDOffset: 0
OS2TypoLinegap: 0
OS2WinAscent: 894
OS2WinAOffset: 0
OS2WinDescent: 246
OS2WinDOffset: 0
HheadAscent: 894
HheadAOffset: 0
HheadDescent: -246
HheadDOffset: 0
OS2CapHeight: 658
OS2XHeight: 429
OS2FamilyClass: 261
OS2Vendor: 'QUE '
Lookup: 258 0 0 "'kern' Smallcap kerning" { "'kern' Small Caps" [150,15,4] } ['kern' ('DFLT' <'dflt' > 'grek' <'dflt' > 'latn' <'AZE ' 'CRT ' 'TRK ' 'dflt' > ) ]
Lookup: 258 0 0 "'kern' Cyrillic kerning" { "'kern' Cyrillic Kerning" [150,0,6] } ['kern' ('DFLT' <'dflt' > 'cyrl' <'dflt' > ) ]
Lookup: 258 0 0 "'kern' Greek kerning" { "'kern' Greek Kerning" [150,0,6] } ['kern' ('DFLT' <'dflt' > 'grek' <'dflt' > ) ]
Lookup: 257 0 0 "'cpsp' Versalabstaende" { "'cpsp' Versalabstaende 1"  } ['cpsp' ('DFLT' <'dflt' > 'cyrl' <'dflt' > 'grek' <'dflt' > 'latn' <'AZE ' 'CRT ' 'TRK ' 'dflt' > ) ]
Lookup: 260 0 0 "'mark' Mark positioning" { "'mark' Right"  "'mark' Komb OR"  "'mark' Above"  "'mark' Middle"  "'mark' Ogonek"  "'mark' Cedilla"  "'mark' Below"  } ['mark' ('DFLT' <'dflt' > 'cyrl' <'dflt' > 'grek' <'dflt' > 'hebr' <'dflt' > 'latn' <'AZE ' 'CRT ' 'TRK ' 'dflt' > ) ]

StartChar: exclam
Encoding: 33 33 0
Width: 288
GlyphClass: 2
Flags: MW
LayerCount: 2
Fore
SplineSet
144 658 m 0
 168 658 197 639 197 585 c 0
 197 520 183 478 173 392 c 0
 160 284 160 224 158 210 c 0
 157 199 154 190 144 190 c 0
 134 190 131 197 130 203 c 0
 128 224 122 314 114 392 c 0
 105 480 91 515 91 585 c 0
 91 639 120 658 144 658 c 0
EndSplineSet
Refer: 256 46 N 1 0 0 1 34 0 2
Colour: ff9ccc
EndChar

StartChar: numbersign
Encoding: 35 35 2
Width: 465
GlyphClass: 2
Flags: MW
LayerCount: 2
Fore
SplineSet
279 245 m 1
 297 360 l 1
 184 360 l 1
 165 245 l 1
 279 245 l 1
335 360 m 1
 316 245 l 1
 411 245 l 1
 404 192 l 1
 310 192 l 1
 280 14 l 1
 242 14 l 1
 269 192 l 1
 157 192 l 1
 128 14 l 1
 91 14 l 1
 119 192 l 1
 26 192 l 1
 34 245 l 1
 128 245 l 1
 146 360 l 1
 53 360 l 1
 61 413 l 1
 154 413 l 1
 183 592 l 1
 221 592 l 1
 191 413 l 1
 305 413 l 1
 333 592 l 1
 371 592 l 1
 342 413 l 1
 438 413 l 1
 430 360 l 1
 335 360 l 1
EndSplineSet
EndChar

StartChar: dollar
Encoding: 36 36 3
Width: 465
GlyphClass: 2
Flags: MW
LayerCount: 2
Fore
SplineSet
207.1 366.7 m 1
 218.7 578 l 1
 164.3 577.2 118 527.6 118 476 c 0
 118 422.3 161.9 389 207.1 366.7 c 1
238.3 267.6 m 1
 224.9 24 l 1
 297.7 24.7 339 64.7 339 139 c 0
 339 217.4 288.5 247.2 238.3 267.6 c 1
371 585 m 1
 381 536 385 510 388 465 c 1
 380 458 368 459 357 459 c 1
 340.7 511.2 317.9 561.3 255.2 574.6 c 1
 242.9 350.9 l 1
 261.2 343.6 277.7 337.9 289 333 c 0
 356 304 417 260 417 171 c 0
 417 112 383 54 330 21 c 0
 300.1 2.3 262.2 -7.7 223.1 -8.9 c 1
 218.5 -93.2 l 1
 211.2 -97.4 191.6 -98.3 181.6 -98.3 c 1
 186.5 -8.1 l 1
 125.2 -4.1 99.7 12 48 12 c 1
 37 58 33 81 29 153 c 1
 38 158 48 160 59 156 c 1
 77.1 76 121.1 35.9 188.4 26.3 c 1
 202.4 281.4 l 1
 196.7 283.6 191.2 285.8 186 288 c 0
 114 319 51 364 51 451 c 0
 51 547.3 129.6 606.8 220.4 609.9 c 1
 224.8 689.5 l 1
 234 693 249 694.5 261.8 694.5 c 1
 257.1 609.3 l 1
 319.4 605.9 323.5 591.2 371 585 c 1
EndSplineSet
EndChar

StartChar: percent
Encoding: 37 37 4
Width: 637
GlyphClass: 2
Flags: MW
LayerCount: 2
Fore
SplineSet
433 83 m 0
 433 31 458 19 477 19 c 0
 532 19 565 108 565 164 c 0
 565 216 537 225 523 225 c 0
 474 225 433 141 433 83 c 0
378 98 m 0
 378 180 438 256 512 256 c 0
 552 256 598 238 598 165 c 0
 598 98 554 -12 471 -12 c 0
 410 -12 378 45 378 98 c 0
364 521 m 0
 406 521 483 533 514 575 c 1
 546 559 l 1
 136 -12 l 1
 102 3 l 1
 461 503 l 1
 423 488 384 484 354 484 c 0
 331 484 293 494 274 505 c 1
 276 498 277 489 277 480 c 0
 277 416 233 303 149 303 c 0
 87 303 57 361 57 412 c 0
 57 500.1 118 571 190 571 c 0
 218 571 247 558 257 546 c 1
 311 521 346 521 364 521 c 0
111 398 m 0
 111 346 137 334 155 334 c 0
 210 334 244 421 244 479 c 0
 244 529 219 540 201 540 c 0
 152 540 111 456 111 398 c 0
EndSplineSet
EndChar

StartChar: parenleft
Encoding: 40 40 5
Width: 298
GlyphClass: 2
Flags: MW
LayerCount: 2
Fore
SplineSet
44 252 m 0
 44 438 137 605 256 707 c 1
 267.4 706.2 273.6 699.3 277 689 c 1
 245 653 127 515 127 252 c 0
 127 -11 244 -149 277 -187 c 1
 274 -195 266 -202 256 -204 c 1
 48 -24 44 207 44 252 c 0
EndSplineSet
EndChar

StartChar: parenright
Encoding: 41 41 6
Width: 298
GlyphClass: 2
Flags: MW
LayerCount: 2
Fore
SplineSet
254 252 m 0
 254 66 161 -101 42 -203 c 1
 30.6 -202.2 24.4 -195.3 21 -185 c 1
 53 -149 171 -11 171 252 c 0
 171 515 54 653 21 691 c 1
 24 699 32 706 42 708 c 1
 250 528 254 297 254 252 c 0
EndSplineSet
Colour: ff00ff
EndChar

StartChar: asterisk
Encoding: 42 42 7
Width: 369
GlyphClass: 2
Flags: MW
LayerCount: 2
Fore
SplineSet
168 547 m 1
 155 550 141 551 126 551 c 0
 77 551 45 558 45 588 c 0
 45 602 54 618 78 618 c 0
 112 618 130 585 174 567 c 1
 170 606 151 633 151 659 c 0
 151 680 163 698 181 698 c 0
 199 698 214 687 214 663 c 0
 214 636 197 596 195 566 c 1
 241 586 257 618 290 618 c 0
 317 618 324 598 324 588 c 0
 324 558 289 551 255 551 c 0
 236 551 218 550 200 547 c 1
 234 510 283 500 283 460 c 0
 283 442 268 431 254 431 c 0
 215 431 208 496 183 535 c 1
 158 490 151 431 113 431 c 0
 96 431 84 444 84 459 c 0
 84 502 135 510 168 547 c 1
EndSplineSet
EndChar

StartChar: plus
Encoding: 43 43 8
Width: 550
GlyphClass: 2
Flags: MW
LayerCount: 2
Fore
SplineSet
250 435 m 2
 250 448 273 462 283 462 c 0
 291 462 300 458 300 448 c 2
 300 276 l 1
 476 276 l 2
 486 276 490 267 490 259 c 0
 490 249 476 226 463 226 c 2
 300 226 l 1
 300 66 l 2
 300 54 281 41 266 41 c 0
 258 41 250 47 250 56 c 2
 250 226 l 1
 75 226 l 2
 66 226 60 234 60 242 c 0
 60 257 73 276 85 276 c 2
 250 276 l 1
 250 435 l 2
EndSplineSet
EndChar

StartChar: slash
Encoding: 47 47 9
Width: 323
GlyphClass: 2
Flags: MW
LayerCount: 2
Fore
SplineSet
293 646 m 1
 56 -59 l 1
 15 -59 l 1
 252 646 l 1
 293 646 l 1
EndSplineSet
EndChar

StartChar: one
Encoding: 49 49 10
Width: 465
GlyphClass: 2
Flags: MW
LayerCount: 2
Fore
SplineSet
288 122 m 2
 288 39 305 34 375 31 c 1
 381 25 381 4 375 -2 c 1
 325 -1 300.6 0 253 0 c 0
 198.8 0 163 -1 114 -2 c 1
 108 4 108 25 114 31 c 1
 184 34 211 39 211 122 c 2
 211 448 l 2
 211 482 207.5 506 191 506 c 0
 172 506 149.5 500 104 481 c 1
 95 487.1 90.6 496.6 89 508 c 1
 177 549 229.7 573.7 285 608 c 1
 288.5 608 291 607.8 291 603 c 0
 289.3 590 288 529 288 469 c 2
 288 122 l 2
EndSplineSet
EndChar

StartChar: two
Encoding: 50 50 11
Width: 465
GlyphClass: 2
Flags: MW
LayerCount: 2
Fore
SplineSet
61 468 m 0
 61 528 130 610 241 610 c 0
 322 610 410 566 410 458 c 0
 410 382 367 338 310 283 c 2
 209 186 l 2
 204 181 135 113 135 65 c 1
 313 65 l 2
 349 65 366 90 383 161 c 1
 393 163 406 161 412 156 c 1
 411 126 401 51 388 -2 c 1
 388 -2 342 0 310 0 c 2
 135 0 l 2
 103 0 52 -2 52 -2 c 1
 52 57 68 105 166 205 c 1
 240 278 l 1
 299 338 322 390 322 454 c 0
 322 550 271 575 235 575 c 0
 162 575 136 539 136 514 c 0
 136 506 142 497 144 490 c 0
 146 483 148 477 148 469 c 0
 148 446.9 118 429 101 429 c 0
 80 429 61 447 61 468 c 0
EndSplineSet
EndChar

StartChar: three
Encoding: 51 51 12
Width: 465
GlyphClass: 2
Flags: MW
LayerCount: 2
Fore
SplineSet
215 575 m 0
 189 575 120 563 120 499 c 0
 120 480 116 447 81 447 c 0
 57 447 47 467 47 481 c 0
 47 514 89 610 236 610 c 0
 288.3 610 323.2 593.1 345 571 c 0
 369.3 546.4 376.3 521.9 376.3 491.9 c 0
 376.3 439.2 353.3 397.6 271 359 c 1
 272 357 l 1
 331 347 413 308 413 199 c 0
 413 67 307 -10 188 -10 c 0
 128 -10 44 17 44 57 c 0
 44 73 65 92 86 92 c 0
 106 92 119 80 129 66 c 0
 141 48 150 25 201 25 c 0
 236 25 325 52 325 185 c 0
 325 298 251 314 194 314 c 0
 181 314 163 314 146 312 c 1
 141 344 l 1
 240.1 358.1 298.1 434.5 298.1 484.7 c 0
 298.1 549 258.2 575 215 575 c 0
EndSplineSet
EndChar

StartChar: four
Encoding: 52 52 13
Width: 465
GlyphClass: 2
Flags: MW
LayerCount: 2
Fore
SplineSet
271 507 m 1
 202 412.8 131.3 301.2 80 219 c 1
 271 219 l 1
 271 507 l 1
430 219 m 2
 441 219 445 213 445 203 c 0
 445 191 430 172 416 172 c 2
 347 172 l 1
 347 80 l 2
 347 33 368 35 417 31 c 1
 423 25 423 4 417 -2 c 1
 385 -1 347.4 0 308 0 c 0
 262 0 222 -1 190 -2 c 1
 184 4 184 25 190 31 c 1
 233 34 271 34 271 80 c 2
 271 172 l 1
 67 172 l 2
 37 172 31 199 28 214 c 1
 119.5 357 236 521.5 299 599 c 0
 302.7 603.5 308 610 315 610 c 2
 347 610 l 1
 349 608 l 1
 347.3 600.2 347 561 347 511 c 2
 347 219 l 1
 430 219 l 2
EndSplineSet
EndChar

StartChar: five
Encoding: 53 53 14
Width: 465
GlyphClass: 2
Flags: MW
LayerCount: 2
Fore
SplineSet
319 189 m 0
 319 298 268 341 203 341 c 0
 167 341 129 337 76 317 c 1
 110 605 l 1
 145 602 181 600 218 600 c 0
 271 600 325 605 382 611 c 1
 389 607 l 1
 373 539 l 1
 332 535 298 533 268 533 c 0
 220 533 188 538 151 542 c 1
 131 375 l 1
 149 382 186 391 229 391 c 0
 341 391 408 304 408 207 c 0
 408 81 320 -11 196 -11 c 0
 139 -11 54 23 54 64 c 0
 54 84 73 101 92 101 c 0
 113 101 130 86 143 69 c 0
 158 49 171 24 209 24 c 0
 269 24 319 94 319 189 c 0
EndSplineSet
EndChar

StartChar: six
Encoding: 54 54 15
Width: 465
GlyphClass: 2
Flags: MW
LayerCount: 2
Fore
SplineSet
135.2 307 m 1
 129.3 278.2 127 251.5 127 229 c 0
 127 58 184 24 247 24 c 0
 296 24 338 74 338 184 c 0
 338 234 316 330 218 330 c 0
 200.6 330 168 328.6 135.2 307 c 1
144.3 343.3 m 1
 174.1 357 213 365 239 365 c 0
 375 365 421 288 421 202 c 0
 421 116 367 -11 236 -11 c 0
 159 -11 44 29 44 232 c 0
 44 311 75 402 137 474 c 0
 193 539 255 581 356 611 c 1
 364 606 368 597 368 585 c 1
 235 535.2 171.4 434.2 144.3 343.3 c 1
EndSplineSet
EndChar

StartChar: seven
Encoding: 55 55 16
Width: 465
GlyphClass: 2
Flags: MW
LayerCount: 2
Fore
SplineSet
170 535 m 2
 138 535 105 528 83 448 c 1
 72 446.7 61.9 447.9 51 451 c 1
 59 503 70 563 71 611 c 0
 71 614 72 614 75 614 c 0
 93 610 91 600 125 600 c 2
 331 600 l 2
 369 600 391 606 408 611 c 1
 424 599 l 1
 312 326 257 160 200 -10 c 1
 132 -13 l 1
 124 -6 l 1
 192 146 271 341 349 535 c 1
 170 535 l 2
EndSplineSet
EndChar

StartChar: nine
Encoding: 57 57 17
Width: 465
GlyphClass: 2
Flags: MW
LayerCount: 2
Fore
SplineSet
335.8 292 m 1
 341.7 320.8 344 347.5 344 370 c 0
 344 541 287 575 224 575 c 0
 175 575 133 525 133 415 c 0
 133 365 155 269 253 269 c 0
 270.4 269 303 270.4 335.8 292 c 1
326.7 255.7 m 1
 296.9 242 258 234 232 234 c 0
 96 234 50 311 50 397 c 0
 50 483 104 610 235 610 c 0
 312 610 427 570 427 367 c 0
 427 288 396 197 334 125 c 0
 278 60 216 18 115 -12 c 1
 107 -7 103 2 103 14 c 1
 236 63.8 299.6 164.8 326.7 255.7 c 1
EndSplineSet
Colour: ff00ff
EndChar

StartChar: less
Encoding: 60 60 19
Width: 550
GlyphClass: 2
Flags: MW
LayerCount: 2
Fore
SplineSet
138 239 m 1
 455 123 l 1
 468 109 469 79 455 73 c 1
 65 215 l 1
 55.7 229.7 55.7 245.7 65 263 c 1
 455 404 l 1
 469 398 468 368 455 354 c 1
 138 239 l 1
EndSplineSet
EndChar

StartChar: equal
Encoding: 61 61 20
Width: 550
GlyphClass: 2
Flags: MW
LayerCount: 2
Fore
SplineSet
464 309 m 2
 75 309 l 2
 66 309 60 317 60 325 c 0
 60 340 73 359 85 359 c 2
 477 359 l 2
 487 359 491 350 491 342 c 0
 491 332 477 309 464 309 c 2
464 143 m 2
 75 143 l 2
 66 143 60 151 60 159 c 0
 60 174 73 193 85 193 c 2
 477 193 l 2
 487 193 491 184 491 176 c 0
 491 166 477 143 464 143 c 2
EndSplineSet
EndChar

StartChar: greater
Encoding: 62 62 21
Width: 550
GlyphClass: 2
Flags: MW
LayerCount: 2
Fore
SplineSet
412 236 m 1
 95 352 l 1
 82 366 81 396 95 402 c 1
 485 260 l 1
 494.3 245.3 494.3 229.3 485 212 c 1
 95 71 l 1
 81 77 82 107 95 121 c 1
 412 236 l 1
EndSplineSet
Colour: ff00ff
EndChar

StartChar: question
Encoding: 63 63 22
Width: 435
GlyphClass: 2
Flags: MW
LayerCount: 2
Fore
SplineSet
114 572 m 0
 114 557 116 551 120 546 c 0
 124 541 126 535 126 522 c 0
 126 499 106 487 87 487 c 0
 71 487 46 495 46 530 c 0
 46 568 67 596 97 620 c 1
 126 645 168 659 221 659 c 0
 323 659 389 599 389 508 c 0
 389 429 327 385 280 351 c 0
 257 334 237 318 228 301 c 0
 215 276 214 252 214 228 c 2
 214 184 l 2
 214 177 205 174 197 174 c 0
 189 174 181 177 181 184 c 2
 181 230 l 2
 181 273 186 332 251 391 c 0
 291 428 306 457 306 504 c 0
 306 569 268 626 211 626 c 0
 154 626 114 602 114 572 c 0
EndSplineSet
Refer: 256 46 N 1 0 0 1 87 0 2
Colour: ff9ccc
EndChar

StartChar: at
Encoding: 64 64 23
Width: 895
GlyphClass: 2
Flags: MW
LayerCount: 2
Fore
SplineSet
569 316 m 0
 569 354 540 379 504 379 c 0
 487 379 444 370 414 339 c 0
 363 288 346 224 346 162 c 0
 346 114 361 70 424 70 c 0
 459 70 508 127 539 200 c 0
 552 231 569 282 569 316 c 0
583 74 m 0
 583 64 592 62 594 62 c 0
 696 62 759 109 759 275 c 0
 759 481 584 580 459 580 c 0
 307 580 139 478 139 241 c 0
 139 91 215 -125 473 -125 c 0
 558 -125 620 -102 674 -59 c 1
 687 -77 l 1
 627 -123 567 -158 454 -158 c 0
 215 -158 59 10 59 223 c 0
 59 438 244 611 469 611 c 0
 684 611 839 469 839 282 c 0
 839 168 769 27 551 27 c 0
 522 27 515 52 515 68 c 0
 515 83 522 106 530 131 c 1
 528 132 l 1
 484 58 430 29 395 29 c 0
 295 29 273 113 273 153 c 0
 273 296 400 410 506 410 c 0
 539 410 573 393 583 367 c 1
 588 391 l 1
 641 404 l 1
 656 399 l 1
 596 141 l 2
 590 114 583 80.5 583 74 c 0
EndSplineSet
EndChar

StartChar: A
Encoding: 65 65 24
Width: 695
GlyphClass: 2
Flags: MW
AnchorPoint: "below" 308 -110 basechar 0
AnchorPoint: "cedilla" 116 5 basechar 0
AnchorPoint: "above" 354 850 basechar 0
LayerCount: 2
Fore
SplineSet
263 283 m 2
 440 283 l 1
 346 555 l 1
 340 555 l 1
 237.8 296.3 l 2
 234 286 241 283 263 283 c 2
155 79 m 2
 139.4 37.9 186.4 33.6 224 31 c 1
 230 25 230 4 224 -2 c 1
 187 -1 137 0 96 0 c 0
 65.7 0 33 -1 7 -2 c 1
 1 4 1 25 7 31 c 1
 50.5 34 81 40 107 102 c 2
 334 638 l 1
 347 638 374 649 389 658 c 1
 595 86 l 2
 612.4 37.8 646.2 34.5 685 31 c 1
 691 25 691 4 685 -2 c 1
 650 -1 612 0 571 0 c 0
 532 0 477 -1 440 -2 c 1
 434 4 434 25 440 31 c 1
 487.6 34.4 525.8 37.5 514 72 c 2
 456 241 l 1
 245 241 l 2
 221 241 215 237 210 224 c 2
 155 79 l 2
EndSplineSet
Position2: "'cpsp' Versalabstaende 1" dx=2 dy=0 dh=5 dv=0
EndChar

StartChar: B
Encoding: 66 66 25
Width: 588
GlyphClass: 2
Flags: MW
AnchorPoint: "middle" 306 175 basechar 0
AnchorPoint: "right" 509 732 basechar 0
AnchorPoint: "below" 268 -110 basechar 0
AnchorPoint: "cedilla" 250 0 basechar 0
AnchorPoint: "above" 267 850 basechar 0
LayerCount: 2
Fore
SplineSet
191 550 m 2
 191 366 l 1
 265 366 l 2
 348 366 407 396 407 481 c 0
 407 583 334 613 278 613 c 0
 191 613 191 603 191 550 c 2
191 332 m 1
 191 118 l 2
 191 57 204 31 274 31 c 0
 426 31 454 92 454 165 c 0
 454 255 397 332 260 332 c 2
 191 332 l 1
148 645 m 0
 184 645 238 647 273 647 c 0
 459 647 488 560 488 493 c 0
 488 438.7 443.1 387.4 393 362 c 1
 393 360 l 1
 480 335 547 280 547 184 c 0
 547 98 494 -2 295 -2 c 0
 211 -2 184.7 0 149 0 c 0
 111.9 0 58 -1 19 -2 c 1
 13 4 13 25 19 31 c 1
 89 34 106 39 106 122 c 2
 106 523 l 2
 106 606 89 611 19 614 c 1
 13 620 13 641 19 647 c 1
 58 646 112.3 645 148 645 c 0
EndSplineSet
Position2: "'cpsp' Versalabstaende 1" dx=2 dy=0 dh=5 dv=0
EndChar

StartChar: C
Encoding: 67 67 26
Width: 646
GlyphClass: 2
Flags: MW
AnchorPoint: "komb_OR" 620 606 basechar 0
AnchorPoint: "middle" 346 315 basechar 0
AnchorPoint: "right" 609 732 basechar 0
AnchorPoint: "below" 363 -110 basechar 0
AnchorPoint: "cedilla" 356 -7 basechar 0
AnchorPoint: "above" 340 850 basechar 0
LayerCount: 2
Fore
SplineSet
357 -10 m 0
 142 -10 37 136.2 37 310 c 0
 37 414.3 76.6 512.2 143 573 c 0
 202 627 273 658 358 658 c 0
 481 658 526 618 577 613 c 1
 587 558 594 510 599 458 c 1
 587.7 452 578 449 566 453 c 1
 540 539 485 621 347 621 c 0
 295 621 237 593 187.4 532 c 0
 150.9 487.1 128 415.3 128 329 c 0
 128 183 221.4 31 356 31 c 0
 449 31 517 62 588 140 c 1
 599 140 606 134 611 125 c 1
 543 36 454 -10 357 -10 c 0
EndSplineSet
Position2: "'cpsp' Versalabstaende 1" dx=2 dy=0 dh=5 dv=0
EndChar

StartChar: D
Encoding: 68 68 27
Width: 701
GlyphClass: 2
Flags: MW
AnchorPoint: "middle" 346 315 basechar 0
AnchorPoint: "right" 619 732 basechar 0
AnchorPoint: "below" 309 -110 basechar 0
AnchorPoint: "cedilla" 309 1 basechar 0
AnchorPoint: "above" 306 850 basechar 0
LayerCount: 2
Fore
SplineSet
191 84 m 2
 191 52 202 32 300 32 c 0
 441 32 562 82 562 284 c 0
 562 438 491 613 275 613 c 0
 226 613 191 599 191 564 c 2
 191 84 l 2
148 645 m 0
 187 645 242 647 313 647 c 0
 505 647 658 494 658 308 c 0
 658 62 472 -2 331 -2 c 0
 228 -2 186 0 149 0 c 0
 111.3 0 58 -1 19 -2 c 1
 13 4 13 25 19 31 c 1
 89 34 106 39 106 122 c 2
 106 523 l 2
 106 606 89 611 19 614 c 1
 13 620 13 641 19 647 c 1
 59 646 112.3 645 148 645 c 0
EndSplineSet
Position2: "'cpsp' Versalabstaende 1" dx=2 dy=0 dh=5 dv=0
EndChar

StartChar: E
Encoding: 69 69 28
Width: 557
GlyphClass: 2
Flags: MW
AnchorPoint: "right" 527 732 basechar 0
AnchorPoint: "cedilla" 287 4 basechar 0
AnchorPoint: "below" 287 -110 basechar 0
AnchorPoint: "above" 281 850 basechar 0
LayerCount: 2
Fore
SplineSet
281 361 m 2
 366 361 369 374 372 429 c 1
 378 435 399 435 405 429 c 1
 404 405 403 371 403 343 c 0
 403 308.7 404 281 405 255 c 1
 399 249 378 249 372 255 c 1
 369 300 366 323 281 323 c 2
 190 323 l 1
 190 102 l 2
 190 55 204 39 246 39 c 2
 362 39 l 2
 438 39 473 98 493 170 c 1
 506.1 173.2 517.6 170.9 528 165 c 1
 520 114 505 48 491 -2 c 1
 491 -2 411 0 363 0 c 2
 148 0 l 2
 115 0 55 -1 18 -2 c 1
 12 4 12 25 18 31 c 1
 88 34 105 39 105 122 c 2
 105 523 l 2
 105 606 88 611 18 614 c 1
 12 620 12 641 18 647 c 1
 58 646 116.5 645 147 645 c 2
 402 645 l 2
 426 645 434 646 451 649 c 0
 454 649 455 648 455 646 c 0
 457 638 472 542 477 501 c 1
 467.2 496.3 456.4 494.2 444 496 c 1
 422 565 406 605 331 605 c 2
 256 605 l 2
 202 605 190 585 190 541 c 2
 190 361 l 1
 281 361 l 2
EndSplineSet
Position2: "'cpsp' Versalabstaende 1" dx=2 dy=0 dh=5 dv=0
EndChar

StartChar: F
Encoding: 70 70 29
Width: 485
GlyphClass: 2
Flags: MW
AnchorPoint: "right" 507 732 basechar 0
AnchorPoint: "cedilla" 153 -1 basechar 0
AnchorPoint: "below" 209 -110 basechar 0
AnchorPoint: "above" 284 850 basechar 0
LayerCount: 2
Fore
SplineSet
283 323 m 2
 190 323 l 1
 190 122 l 2
 190 39 207 34 277 31 c 1
 283 25 283 4 277 -2 c 1
 242 -1 193 0 148 0 c 0
 103 0 53 -1 18 -2 c 1
 12 4 12 25 18 31 c 1
 88 34 105 39 105 122 c 2
 105 523 l 2
 105 606 88 611 18 614 c 1
 12 620 12 641 18 647 c 1
 58 646 115 645 147 645 c 2
 402.3 645 l 2
 427 645 431.8 645.6 449.3 649 c 0
 451.7 649 452.9 648.3 453.3 646 c 0
 454.7 638.4 469.8 542 475 501 c 1
 467 498 456 496 444 496 c 1
 422 565 397 605 291 605 c 2
 246 605 l 2
 202 605 190 595 190 541 c 2
 190 361 l 1
 283 361 l 2
 368 361 371 374 374 429 c 1
 380 435 401 435 407 429 c 1
 406 403 405 376.5 405 343 c 0
 405 308.7 406 280 407 255 c 1
 401 249 380 249 374 255 c 1
 371 300 368 323 283 323 c 2
EndSplineSet
Position2: "'cpsp' Versalabstaende 1" dx=2 dy=0 dh=5 dv=0
EndChar

StartChar: G
Encoding: 71 71 30
Width: 685
GlyphClass: 2
Flags: MW
AnchorPoint: "komb_OR" 600 606 basechar 0
AnchorPoint: "middle" 308 335 basechar 0
AnchorPoint: "right" 631 732 basechar 0
AnchorPoint: "cedilla" 337 2 basechar 0
AnchorPoint: "below" 367 -110 basechar 0
AnchorPoint: "above" 365 850 basechar 0
LayerCount: 2
Fore
SplineSet
377 658 m 0
 488 658 525 623 585 613 c 1
 601 541 605.5 501 608 459 c 1
 596.7 454.3 586.3 452.3 575 453 c 1
 549 539 508 622 363 622 c 0
 246.5 622 133 502 133 327 c 0
 133 195 217 26 375 26 c 0
 429 26 496 32 530 64 c 1
 530 217 l 2
 530 257.1 502.9 260.8 448 265 c 1
 442 271 442 295 448 301 c 1
 492 300 538.5 299 572 299 c 0
 612 299 637 300 661 301 c 1
 667 295 667 271 661 265 c 1
 632 262 615 252.2 615 217 c 2
 615 101 l 2
 615 90 620 82 631 73 c 1
 563 15 470 -10 352 -10 c 0
 161 -10 37 127.2 37 307 c 0
 37 527 210 658 377 658 c 0
EndSplineSet
Position2: "'cpsp' Versalabstaende 1" dx=2 dy=0 dh=5 dv=0
EndChar

StartChar: divide
Encoding: 247 247 37
Width: 550
GlyphClass: 2
Flags: MW
LayerCount: 2
Fore
SplineSet
225.8 387 m 0
 225.8 411.3 245.9 431.4 270.2 431.4 c 0
 294.5 431.4 314.6 411.3 314.6 387 c 0
 314.6 362.7 294.5 342.6 270.2 342.6 c 0
 245.9 342.6 225.8 362.7 225.8 387 c 0
225.8 119 m 0
 225.8 143.3 245.9 163.4 270.2 163.4 c 0
 294.5 163.4 314.6 143.3 314.6 119 c 0
 314.6 94.7 294.5 74.6 270.2 74.6 c 0
 245.9 74.6 225.8 94.7 225.8 119 c 0
EndSplineSet
Refer: 1205 8722 N 1 0 0 1 0 0 2
Colour: ff00ff
EndChar

StartChar: Eogonek
Encoding: 280 280 44
Width: 557
GlyphClass: 2
Flags: MW
AnchorPoint: "above" 273 850 basechar 0
AnchorPoint: "below" 279 -110 basechar 0
AnchorPoint: "cedilla" 279 4 basechar 0
AnchorPoint: "right" 519 732 basechar 0
LayerCount: 2
Fore
SplineSet
498 -135 m 1
 469 -180 429 -200 388 -200 c 0
 338 -200 300 -180 300 -126 c 0
 300 -84.6 335.6 -27.2 395.9 -0.2 c 1
 384.2 -0.1 372.9 0 363 0 c 2
 148 0 l 2
 115 0 55 -1 18 -2 c 1
 12 4 12 25 18 31 c 1
 88 34 105 39 105 122 c 2
 105 523 l 2
 105 606 88 611 18 614 c 1
 12 620 12 641 18 647 c 1
 58 646 116.5 645 147 645 c 2
 402 645 l 2
 426 645 434 646 451 649 c 0
 454 649 455 648 455 646 c 0
 457 638 472 542 477 501 c 1
 467.2 496.3 456.4 494.2 444 496 c 1
 422 565 406 605 331 605 c 2
 256 605 l 2
 202 605 190 585 190 541 c 2
 190 361 l 1
 281 361 l 2
 366 361 369 374 372 429 c 1
 378 435 399 435 405 429 c 1
 404 405 403 371 403 343 c 0
 403 308.7 404 281 405 255 c 1
 399 249 378 249 372 255 c 1
 369 300 366 323 281 323 c 2
 190 323 l 1
 190 102 l 2
 190 55 204 39 246 39 c 2
 362 39 l 2
 438 39 473 98 493 170 c 1
 506.1 173.2 517.6 171 528 165 c 1
 520 114 505 48 491 -2 c 1
 491 -2 487.6 -1.9 481.8 -1.8 c 1
 482 -2 l 1
 411 -2 362 -69 362 -115 c 0
 362 -141 375 -162 412 -162 c 0
 441 -162 457 -146 479 -124 c 1
 488 -124 494 -128 498 -135 c 1
EndSplineSet
Position2: "'cpsp' Versalabstaende 1" dx=2 dy=0 dh=5 dv=0
Colour: ff9ccc
EndChar

StartChar: eogonek
Encoding: 281 281 45
Width: 447
GlyphClass: 2
Flags: MW
AnchorPoint: "below" 70 -108 basechar 0
AnchorPoint: "above" 231 645 basechar 0
LayerCount: 2
Fore
SplineSet
373 -135 m 1
 344 -180 304 -200 263 -200 c 0
 213 -200 175 -180 175 -126 c 0
 175 -85 209.4 -46.1 259.2 -9 c 1
 252 -9.7 244.6 -10 237 -10 c 0
 165 -10 118 14 84 54 c 0
 51 92 37 146 37 202 c 0
 37 354 150 437 237 437 c 0
 376 437 406 347 406 263 c 0
 406 252 399 246 387 246 c 2
 121 248 l 1
 121 190 133 144 153 111 c 0
 184 60 226 39 262 39 c 0
 320 39 349 55 386 93 c 1
 398 92 404 87 407 77 c 1
 385.5 49 359.9 26 329.1 10.7 c 1
 266 -41.8 237 -71.6 237 -115 c 0
 237 -141 250 -162 287 -162 c 0
 316 -162 332 -146 354 -124 c 1
 363 -124 369 -128 373 -135 c 1
124 282 m 1
 305 285 l 2
 316 285.2 320 290 320 299 c 0
 320 383 275 404 237 404 c 0
 213 404 143 395 124 282 c 1
EndSplineSet
Colour: ff00ff
EndChar

StartChar: hcircumflex
Encoding: 293 293 57
Width: 538
GlyphClass: 2
Flags: MW
LayerCount: 2
Fore
SplineSet
339.3 663.9 m 1
 365.4 614.6 405 558.9 437.4 516.9 c 1
 432.9 509.6 423.1 501.1 414.7 499.1 c 1
 380.5 524.3 351 551.7 324 584.2 c 1
 295.2 550.6 267.5 522.2 232.4 499.1 c 1
 224.3 501.2 216 507.5 210.6 516.9 c 1
 243 558.9 284.4 615.6 310.5 663.9 c 1
 320.1 666.3 329.7 667.1 339.3 663.9 c 1
EndSplineSet
Refer: 288 104 N 1 0 0 1 0 0 2
Colour: ff00ff
EndChar

StartChar: Hbar
Encoding: 294 294 58
Width: 730
GlyphClass: 2
Flags: MW
LayerCount: 2
Fore
SplineSet
618 122 m 2
 618 39 635 34 705 31 c 1
 711 25 711 4 705 -2 c 1
 661 -1 613.3 0 576 0 c 0
 538.9 0 491 -1 446 -2 c 1
 440 4 440 25 446 31 c 1
 516 34 533 39 533 122 c 2
 533 321 l 1
 191 321 l 1
 191 122 l 2
 191 39 208 34 278 31 c 1
 284 25 284 4 278 -2 c 1
 234 -1 185.3 0 149 0 c 0
 111.3 0 63 -1 19 -2 c 1
 13 4 13 25 19 31 c 1
 89 34 106 39 106 122 c 2
 106 512 l 1
 41 512 l 1
 41 546 l 1
 105.4 546 l 1
 102 607 81.9 611.3 19 614 c 1
 13 620 13 641 19 647 c 1
 57 646 98 645 148 645 c 0
 199 645 240 646 278 647 c 1
 284 641 284 620 278 614 c 1
 215.1 611.3 195 607 191.6 546 c 1
 532.4 546 l 1
 529 607 508.9 611.3 446 614 c 1
 440 620 440 641 446 647 c 1
 490 646 537.7 645 575 645 c 0
 613 645 664 646 705 647 c 1
 711 641 711 620 705 614 c 1
 642.1 611.3 622 607 618.6 546 c 1
 676 546 l 1
 676 512 l 1
 618 512 l 1
 618 122 l 2
533 512 m 1
 191 512 l 1
 191 363 l 1
 533 363 l 1
 533 512 l 1
EndSplineSet
Position2: "'cpsp' Versalabstaende 1" dx=2 dy=0 dh=5 dv=0
Colour: ff9ccc
EndChar

StartChar: hbar
Encoding: 295 295 59
Width: 538
GlyphClass: 2
Flags: MW
LayerCount: 2
Fore
SplineSet
167 285.9 m 2
 167 122 l 2
 167 39 176 35 226.8 31 c 1
 232.8 25 232.8 4 226.8 -2 c 1
 198.8 -1 166 0 128 0 c 0
 88 0 51.2 -1 18.2 -2 c 1
 12.2 4 12.2 25 18.2 31 c 1
 76.2 35 88 39 88 122 c 2
 88 530 l 1
 26 530 l 1
 26 569 l 1
 87.9 569 l 1
 86.9 642.6 73.8 638.1 24 641 c 1
 18 647 16 663 18 671 c 1
 58 674 133 688 158 698 c 1
 167 698 171 695 171 688 c 2
 171 688 167 648 167 583 c 2
 167 569 l 1
 341 569 l 1
 341 530 l 1
 166.8 530 l 1
 166.2 358 l 2
 166.2 344 172.6 354.2 176 358 c 0
 237 426 296.9 439 346 439 c 0
 381 439 412.2 427 429 405 c 0
 452.3 374.5 456 326 456 271 c 2
 456 122 l 2
 456 40 467 36 523 31 c 1
 528 25 528 4 523 -2 c 1
 490 -1 457 0 417 0 c 0
 377 0 343 -1 315 -2 c 1
 310 4 310 25 315 31 c 1
 367 36 377 40 377 122 c 2
 377 274 l 2
 377 304 375 331.2 365 351 c 0
 353.4 373.9 332.4 387 312 387 c 0
 272.6 387 222 365.3 184 328 c 0
 176 319.3 167 307 167 285.9 c 2
EndSplineSet
Colour: ff9ccc
EndChar

StartChar: itilde
Encoding: 297 297 61
Width: 271
GlyphClass: 2
Flags: MW
AnchorPoint: "cedilla" 142 -2 basechar 0
AnchorPoint: "below" 136 -110 basechar 0
AnchorPoint: "above" 139 809 basechar 0
LayerCount: 2
Fore
SplineSet
184.1 573 m 0
 203.9 573 213.8 583 226.4 625 c 1
 236.3 626 245.3 623 250.7 619 c 1
 239.9 559 213.8 520 172.4 520 c 0
 152.6 520 133.7 538 114.8 552 c 0
 98.6 563 81.5 571 66.2 571 c 0
 42.8 571 33.8 556 24.8 523 c 1
 14.9 521 5.9 522 0.5 528 c 1
 13.1 587 33.8 626 72.5 626 c 0
 99.5 626 119.3 606 137.3 592 c 0
 151.7 580 167 573 184.1 573 c 0
EndSplineSet
Refer: 419 305 N 1 0 0 1 0 0 2
Colour: ff00ff
EndChar

StartChar: imacron
Encoding: 299 299 63
Width: 271
GlyphClass: 2
Flags: MW
LayerCount: 2
Fore
SplineSet
219.9 518 m 2
 18.3 518 l 2
 10.2 518 6.6 529 6.6 536 c 0
 6.6 548 16.5 568 26.4 568 c 2
 228.9 568 l 2
 237.9 568 241.5 557 241.5 551 c 0
 241.5 539 231.6 518 219.9 518 c 2
EndSplineSet
Refer: 419 305 N 1 0 0 1 0 0 2
Colour: ff00ff
EndChar

StartChar: ibreve
Encoding: 301 301 65
Width: 271
GlyphClass: 2
Flags: MW
LayerCount: 2
Fore
SplineSet
28.2 650 m 1
 38.1 597 76.8 560 125.4 560 c 0
 172.2 560 213.6 592 222.6 650 c 1
 246.9 638 l 1
 236.1 552 178.5 503 125.4 503 c 0
 62.4 503 16.5 553 3.9 638 c 1
 28.2 650 l 1
EndSplineSet
Refer: 419 305 N 1 0 0 1 0 0 2
Colour: ff00ff
EndChar

StartChar: Iogonek
Encoding: 302 302 66
Width: 297
GlyphClass: 2
Flags: MW
AnchorPoint: "above" 146 850 basechar 0
LayerCount: 2
Fore
SplineSet
271 -135 m 1
 242 -180 202 -200 161 -200 c 0
 111 -200 73 -180 73 -126 c 0
 73 -84.5 108.8 -27 169.2 -0.1 c 1
 162.1 0 155.3 0 149 0 c 0
 112.7 0 64 -1 19 -2 c 1
 13 4 13 25 19 31 c 1
 89 34 106 39 106 122 c 2
 106 523 l 2
 106 606 89 611 19 614 c 1
 13 620 13 641 19 647 c 1
 66 646 114.5 645 148 645 c 0
 186.5 645 234 646 278 647 c 1
 284 641 284 620 278 614 c 1
 208 611 191 606 191 523 c 2
 191 122 l 2
 191 39 208 34 278 31 c 1
 284 25 284 4 278 -2 c 1
 270.3 -1.8 262.5 -1.7 254.6 -1.5 c 1
 255 -2 l 1
 184 -2 135 -69 135 -115 c 0
 135 -141 148 -162 185 -162 c 0
 214 -162 230 -146 252 -124 c 1
 261 -124 267 -128 271 -135 c 1
EndSplineSet
Position2: "'cpsp' Versalabstaende 1" dx=2 dy=0 dh=5 dv=0
Colour: ff9ccc
EndChar

StartChar: iogonek
Encoding: 303 303 67
Width: 271
GlyphClass: 2
Flags: MW
AnchorPoint: "above" 132 825 basechar 0
LayerCount: 2
Fore
SplineSet
259 -135 m 1
 230 -180 190 -200 149 -200 c 0
 99 -200 61 -180 61 -126 c 0
 61 -84.5 96.8 -26.9 157.3 -0 c 1
 152.3 0 147.1 0 142 0 c 0
 102 0 63 -1 30 -2 c 1
 24 4 24 25 30 31 c 1
 91 36 102 39 102 122 c 2
 102 317 l 2
 102 374 91.5 379.9 37 385 c 1
 35 391 33 407 35 413 c 1
 104 422 143.5 431 172 442 c 1
 180 442 185 439 185 435 c 2
 185 435 181 371 181 321.3 c 2
 181 122 l 2
 181 39 192 35 253 31 c 1
 259 25 259 4 253 -2 c 1
 249.6 -1.9 246.2 -1.8 242.7 -1.7 c 1
 243 -2 l 1
 172 -2 123 -69 123 -115 c 0
 123 -141 136 -162 173 -162 c 0
 202 -162 218 -146 240 -124 c 1
 249 -124 255 -128 259 -135 c 1
EndSplineSet
Refer: 673 775 N 1 0 0 1 320 23 2
Colour: ff9ccc
EndChar

StartChar: uni0408
Encoding: 1032 1032 69
Width: 384
GlyphClass: 2
Flags: MW
LayerCount: 2
Fore
SplineSet
295 523 m 2
 295 225 l 2
 295 125 263.1 58.7 215 24 c 0
 182.6 0.700001 149.7 -7.3 122.6 -7.3 c 0
 96.9 -7.3 10 4.5 10 54 c 0
 10 76 34 90 48 90 c 0
 79 90 94.3 76.2 100 63 c 0
 104.9 51.6 114 33 128 33 c 0
 161 33 210 42 210 203 c 2
 210 523 l 2
 210 606 193 611 113 614 c 1
 107 620 107 641 113 647 c 1
 163 646 214 645 252 645 c 0
 290 645 334 646 372 647 c 1
 378 641 378 620 372 614 c 1
 312 611 295 606 295 523 c 2
EndSplineSet
EndChar

StartChar: uni0414
Encoding: 1044 1044 74
Width: 659
GlyphClass: 2
Flags: MW
LayerCount: 2
Fore
SplineSet
112 47 m 0
 137.5 73.7 156 145 188 301 c 1
 210 415 222 508 222 571 c 0
 222 600 208.8 608.8 149 614 c 1
 144.5 622.7 143.5 638 149 647 c 1
 149 647 221 645 251 645 c 2
 512 645 l 2
 542 645 623 647 623 647 c 1
 628.7 637 629 625 623 614 c 1
 556.3 609 549 607.8 549 555 c 2
 549 78 l 2
 549 41 571.5 30 589 27 c 0
 610.7 23.3 617.8 19.9 619 8 c 0
 624 -40.6 625.5 -90.1 626 -140 c 1
 618.3 -145.3 607 -146.7 599 -142 c 1
 587 -86 551 0 471 0 c 2
 181 0 l 2
 98 0 72 -89 61 -141 c 1
 51.2 -143.5 41 -142.7 34 -139 c 1
 34.6 -88.7 37 -38.3 41 12 c 0
 42 24 52 30.5 62 31 c 0
 81.5 32 101.5 36 112 47 c 0
427 605 m 2
 304 605 l 2
 277 605 267 591 265 566 c 0
 257 465 241 361 229 293 c 0
 207 176 182 77 182 56 c 0
 182 44 195 39 209 39 c 2
 428 39 l 2
 452 39 464 42 464 79 c 2
 464 566 l 2
 464 597 458 605 427 605 c 2
EndSplineSet
EndChar

StartChar: uni0416
Encoding: 1046 1046 75
Width: 889
GlyphClass: 2
Flags: MW
LayerCount: 2
Fore
SplineSet
487 122 m 2
 487 39 504 34 574 31 c 1
 580 25 580 4 574 -2 c 1
 529 -1 480.6 0 445 0 c 0
 408.7 0 360 -1 315 -2 c 1
 309 4 309 25 315 31 c 1
 385 34 402 39 402 122 c 2
 402 323.8 l 1
 299.6 321.3 281.5 287.1 244 191 c 0
 201 81 164 0 86 -1 c 2
 7 -2 l 1
 1.5 8.2 1.2 21.2 7 31 c 1
 72.8 33.9 108.4 81.9 167 234 c 0
 194 304 232 347 301 347 c 1
 301 352 l 1
 225 380 202 466 193 528 c 0
 188.8 557.1 183 590 153 590 c 0
 140 590 132 585 121 574 c 0
 111 564 97 559 84 559 c 0
 63 559 40 570 40 599 c 0
 40 622 58 651 111 651 c 0
 190 651 220 595 230 533 c 0
 239 477 253 413 312 381 c 0
 333.2 368.7 369.1 366.5 402 366.1 c 1
 402 523 l 2
 402 606 385 611 315 614 c 1
 309 620 309 641 315 647 c 1
 362 646 410.5 645 444 645 c 0
 482.5 645 530 646 574 647 c 1
 580 641 580 620 574 614 c 1
 504 611 487 606 487 523 c 2
 487 366.1 l 1
 519.9 366.5 555.8 368.7 577 381 c 0
 636 413 650 477 659 533 c 0
 669 595 699 651 778 651 c 0
 831 651 849 622 849 599 c 0
 849 570 826 559 805 559 c 0
 792 559 778 564 768 574 c 0
 757 585 749 590 736 590 c 0
 706 590 700.2 557.1 696 528 c 0
 687 466 664 380 588 352 c 1
 588 347 l 1
 657 347 695 304 722 234 c 0
 780.6 81.9 816.2 33.9 882 31 c 1
 887.8 21.2 887.5 8.2 882 -2 c 1
 803 -1 l 2
 725 0 688 81 645 191 c 0
 607.5 287.1 589.4 321.3 487 323.8 c 1
 487 122 l 2
EndSplineSet
Colour: ff9ccc
EndChar

StartChar: uni0417
Encoding: 1047 1047 76
Width: 558
GlyphClass: 2
Flags: MW
LayerCount: 2
Fore
SplineSet
44 115 m 0
 44 139 57 155 77 155 c 0
 105 155 120 129 133 103 c 0
 158 56 199 26 277 26 c 0
 376 26 425 90 425 181 c 0
 425 254 380.5 328 267 328 c 0
 234 328 225 322 198 322 c 0
 186 322 169 327 169 347 c 0
 169 367 186 371 198 371 c 0
 225 371 241 365 268 365 c 0
 357.5 365 401 434 401 503 c 0
 401 573 372 624 286 624 c 0
 172 624 125 551 99 463 c 1
 87.3 460.7 77 461.7 68 466 c 1
 73.6 518.9 80.6 571.8 92 626 c 1
 164 636.5 219 658 294 658 c 0
 433 658 489 592 489 510 c 0
 489 426 428 377 358 357 c 1
 358 352 l 1
 456.5 344.2 518 270 518 185 c 0
 518 54 405 -10 278 -10 c 0
 178 -10 120 12 90 39 c 0
 63 63 44 82 44 115 c 0
EndSplineSet
EndChar

StartChar: uni0418
Encoding: 1048 1048 77
Width: 710
GlyphClass: 2
Flags: MW
LayerCount: 2
Fore
SplineSet
598 122 m 2
 598 39 615 34 685 31 c 1
 691 25 691 4 685 -2 c 1
 640 -1 591.6 0 556 0 c 0
 519.7 0 471 -1 426 -2 c 1
 420 4 420 25 426 31 c 1
 496 34 513 39 513 122 c 2
 513 478 l 1
 505.5 475.5 500.4 471 495.5 465 c 2
 222.4 125 l 2
 210.7 110.1 200.7 102 193.8 78.3 c 1
 200.9 37 223.2 33.3 278 31 c 1
 284 25 284 4 278 -2 c 1
 233 -1 184.6 0 149 0 c 0
 112.7 0 64 -1 19 -2 c 1
 13 4 13 25 19 31 c 1
 89 34 106 39 106 122 c 2
 106 523 l 2
 106 606 89 611 19 614 c 1
 13 620 13 641 19 647 c 1
 66 646 114.5 645 148 645 c 0
 186.5 645 234 646 278 647 c 1
 284 641 284 620 278 614 c 1
 208 611 191 606 191 523 c 2
 191 167 l 1
 195.6 167.3 201.4 170.7 208.7 178 c 1
 483.5 520 l 2
 494.8 534.2 504.1 552.3 509.9 568.5 c 1
 502.5 608.1 480 611.7 426 614 c 1
 420 620 420 641 426 647 c 1
 473 646 521.5 645 555 645 c 0
 593.5 645 641 646 685 647 c 1
 691 641 691 620 685 614 c 1
 615 611 598 606 598 523 c 2
 598 122 l 2
EndSplineSet
EndChar

StartChar: uni0423
Encoding: 1059 1059 83
Width: 590
GlyphClass: 2
Flags: MW
LayerCount: 2
Fore
SplineSet
104.5 523 m 2
 72 594 62 609 5 614 c 1
 -1 620 -2 641 4 647 c 1
 38 646 76 645 108 645 c 0
 143.2 645 192 646 229 647 c 1
 235 641 235 620 229 614 c 1
 161 607 162 591 188.4 534 c 2
 327 229 l 1
 329 229 l 1
 438 528 l 2
 458 584 461 609 387 614 c 1
 381 620 381 641 387 647 c 1
 424 646 473 645 496 645 c 0
 519 645 554 646 584 647 c 1
 590 641 590 620 584 614 c 1
 518 606 502 569 483.7 521 c 2
 342 161 l 2
 299 52 244 -22 154 -22 c 0
 112 -22 64 1 64 33 c 0
 64 61 83 81 113 81 c 0
 127 81 149 74 159 62 c 0
 166 53 181 40 195 40 c 0
 227 40 252 61 283 136 c 1
 104.5 523 l 2
EndSplineSet
EndChar

StartChar: uni0426
Encoding: 1062 1062 85
Width: 674
GlyphClass: 2
Flags: MW
LayerCount: 2
Fore
SplineSet
558 523 m 2
 558 122 l 2
 558 39 582 34 606 31 c 0
 630.8 27.9 635 20 636 11 c 0
 640 -37 642 -90 642 -141 c 1
 633 -148.1 618 -149 609 -142 c 1
 595 -71 547 0 470 0 c 2
 144 0 l 2
 124 0 63 -1 14 -2 c 1
 8 4 8 25 14 31 c 1
 84 34 101 39 101 122 c 2
 101 523 l 2
 101 606 84 611 14 614 c 1
 8 620 8 641 14 647 c 1
 54 646 108.5 645 143 645 c 0
 179 645 234 646 273 647 c 1
 279 641 279 620 273 614 c 1
 203 611 186 606 186 523 c 2
 186 89 l 2
 186 58 204 39 233 39 c 2
 436 39 l 2
 468 38.7 473 44 473 122 c 2
 473 523 l 2
 473 606 456 611 386 614 c 1
 380 620 380 641 386 647 c 1
 426 646 479 645 515 645 c 0
 554 645 606 646 645 647 c 1
 651 641 651 620 645 614 c 1
 575 611 558 606 558 523 c 2
EndSplineSet
EndChar

StartChar: uni0427
Encoding: 1063 1063 86
Width: 650
GlyphClass: 2
Flags: MW
LayerCount: 2
Fore
SplineSet
102 523 m 2
 102 606 85 611 15 614 c 1
 9 620 9 641 15 647 c 1
 55 646 108 645 144 645 c 0
 180.3 645 235 646 274 647 c 1
 280 641 280 620 274 614 c 1
 204 611 187 606 187 523 c 2
 187 417 l 2
 187 335 227 308 299 308 c 0
 327.5 308 390 311.9 453 353 c 1
 453 523 l 2
 453 606 436 611 366 614 c 1
 360 620 360 641 366 647 c 1
 404 646 459.3 645 495 645 c 0
 531.7 645 587 646 625 647 c 1
 631 641 631 620 625 614 c 1
 555 611 538 606 538 523 c 2
 538 122 l 2
 538 39 555 34 625 31 c 1
 631 25 631 4 625 -2 c 1
 586 -1 532.1 0 496 0 c 0
 460.3 0 405 -1 366 -2 c 1
 360 4 360 25 366 31 c 1
 436 34 453 39 453 122 c 2
 453 314.9 l 1
 381.1 265.5 314.2 250 257 250 c 0
 143 250 102 329 102 428 c 2
 102 523 l 2
EndSplineSet
EndChar

StartChar: uni0428
Encoding: 1064 1064 87
Width: 969
GlyphClass: 2
Flags: MW
LayerCount: 2
Fore
SplineSet
820 0 m 2
 149 0 l 2
 115 0 58 -1 19 -2 c 1
 13 4 13 25 19 31 c 1
 89 34 106 39 106 122 c 2
 106 523 l 2
 106 606 89 611 19 614 c 1
 13 620 13 641 19 647 c 1
 59 646 112.7 645 148 645 c 0
 185.7 645 239 646 278 647 c 1
 284 641 284 620 278 614 c 1
 208 611 191 606 191 523 c 2
 191 122 l 2
 191 40 208 37 250 37 c 2
 389 37 l 2
 426 37 440 40 440 122 c 2
 440 523 l 2
 440 606 423 611 353 614 c 1
 347 620 347 641 353 647 c 1
 393 646 446.3 645 482 645 c 0
 519 645 573 646 612 647 c 1
 618 641 618 620 612 614 c 1
 542 611 525 606 525 523 c 2
 525 122 l 2
 525 40 542 37 580 37 c 2
 709 37 l 2
 765 37 778 40 778 122 c 2
 778 523 l 2
 778 606 761 611 691 614 c 1
 685 620 685 641 691 647 c 1
 730 646 784.7 645 821 645 c 0
 857 645 910 646 950 647 c 1
 956 641 956 620 950 614 c 1
 880 611 863 606 863 523 c 2
 863 122 l 2
 863 39 880 34 950 31 c 1
 956 25 956 4 950 -2 c 1
 911 -1 857.5 0 820 0 c 2
EndSplineSet
EndChar

StartChar: uni0429
Encoding: 1065 1065 88
Width: 974
GlyphClass: 2
Flags: MW
LayerCount: 2
Fore
SplineSet
863 523 m 2
 863 122 l 2
 863 39 887 34 911 31 c 0
 935.8 27.9 940 20 941 11 c 0
 945 -37 947 -90 947 -141 c 1
 938 -148.1 923 -149 914 -142 c 1
 900 -71 852 0 775 0 c 2
 149 0 l 2
 115.5 0 58 -1 19 -2 c 1
 13 4 13 25 19 31 c 1
 89 34 106 39 106 122 c 2
 106 523 l 2
 106.2 606 89 611 19 614 c 1
 13 620 13 641 19 647 c 1
 59 646 112.7 645 148 645 c 0
 185.7 645 239 646 278 647 c 1
 284 641 284 620 278 614 c 1
 208 611 191.2 606 191 523 c 2
 191 122 l 2
 191 40 208 37 250 37 c 2
 389 37 l 2
 426 37 440 40 440 122 c 2
 440 523 l 2
 440.2 606 423 611 353 614 c 1
 347 620 347 641 353 647 c 1
 393 646 446.3 645 482 645 c 0
 519 645 573 646 612 647 c 1
 618 641 618 620 612 614 c 1
 542 611 525.2 606 525 523 c 2
 525 122 l 2
 525 40 542 37 580 37 c 2
 709 37 l 2
 765 37 778 40 778 122 c 2
 778 523 l 2
 778.2 606 761 611 691 614 c 1
 685 620 685 641 691 647 c 1
 730 646 784.7 645 821 645 c 0
 857 645 910 646 950 647 c 1
 956 641 956 620 950 614 c 1
 880 611 863.2 606 863 523 c 2
EndSplineSet
EndChar

StartChar: uni042A
Encoding: 1066 1066 89
Width: 723
GlyphClass: 2
Flags: MW
LayerCount: 2
Fore
SplineSet
427 31 m 0
 559 31 590 110 590 193 c 0
 590 297.7 538.3 345.9 409.7 345.9 c 0
 391.4 345.9 371.5 344.9 350 343 c 1
 350 98 l 2
 350 65 359 31 427 31 c 0
265 523 m 2
 265 598 253 605 206 605 c 2
 164 605 l 2
 98 605 64 512 56 469 c 1
 42 466 33.7 468.5 26 474 c 1
 30 530 35 584 42 647 c 1
 77 646 114.7 645 163.7 645 c 2
 307 645 l 2
 357 645 398 646 437 647 c 1
 443 641 443 620 437 614 c 1
 367 611 350 606 350 523 c 2
 350 383 l 1
 379.7 385.5 407.1 386.8 432.3 386.8 c 0
 615.6 386.8 683 320.1 683 193 c 0
 683 67.5 596.5 -2 425 -2 c 0
 389 -2 337 0 308 0 c 0
 270.3 0 217 -1 178 -2 c 1
 172 4 172 25 178 31 c 1
 248 34 265 39 265 122 c 2
 265 523 l 2
EndSplineSet
EndChar

StartChar: uni042C
Encoding: 1068 1068 91
Width: 559
GlyphClass: 2
Flags: MW
AnchorPoint: "above" 201 850 basechar 0
AnchorPoint: "below" 250 -110 basechar 0
AnchorPoint: "cedilla" 250 2 basechar 0
AnchorPoint: "right" 509 418 basechar 0
AnchorPoint: "middle" 286 186 basechar 0
LayerCount: 2
Fore
SplineSet
267 31 m 0
 399 31 430 110 430 193 c 0
 430 297.7 378.3 345.9 249.7 345.9 c 0
 231.4 345.9 211.5 344.9 190 343 c 1
 190 98 l 2
 190 65 199 31 267 31 c 0
105 122 m 2
 105 523 l 2
 105 606 88 611 18 614 c 1
 12 620 12 641 18 647 c 1
 58 646 111.7 645 147 645 c 0
 185.3 645 238 646 277 647 c 1
 283 641 283 620 277 614 c 1
 207 611 190 606 190 523 c 2
 190 383 l 1
 219.7 385.5 247.1 386.8 272.3 386.8 c 0
 455.6 386.8 523 320.1 523 193 c 0
 523 67.5 436.5 -2 265 -2 c 0
 229 -2 177 0 148 0 c 0
 110.3 0 57 -1 18 -2 c 1
 12 4 12 25 18 31 c 1
 88 34 105 39 105 122 c 2
EndSplineSet
EndChar

StartChar: uni042D
Encoding: 1069 1069 92
Width: 622
GlyphClass: 2
Flags: MW
LayerCount: 2
Fore
SplineSet
271 -10 m 0
 174 -10 46 50 46 124 c 0
 46 144 55 163 80 163 c 0
 109 163 124 136 137 99 c 0
 151 59 191 25 267 25 c 0
 415 25 487 143 497 301 c 1
 464 316 435 323 397 323 c 0
 339 323 310 291 243 291 c 0
 184 291 121 320 121 345 c 0
 121 353 126 357 130 357 c 0
 138 357 154 341 192 341 c 0
 251 341 294 379 357 379 c 0
 370 379 436 367 497 333 c 1
 498 334 l 1
 498 547 383 621 304 621 c 0
 166 621 109 540 83 454 c 1
 53 458 l 1
 63 510 71 559 75 613 c 1
 132 616 172 658 299 658 c 0
 465 658 585 534 585 325 c 0
 585 140 486 -10 271 -10 c 0
EndSplineSet
EndChar

StartChar: uni042E
Encoding: 1070 1070 93
Width: 905
GlyphClass: 2
Flags: MW
LayerCount: 2
Fore
SplineSet
562 619 m 0
 478 619 378 537 378 327 c 0
 378 135 484 28 592 28 c 0
 695 28 773 131 773 310 c 0
 773 518 687 619 562 619 c 0
191 122 m 2
 191 39 208 34 278 31 c 1
 284 25 284 4 278 -2 c 1
 233 -1 184.6 0 149 0 c 0
 112.7 0 64 -1 19 -2 c 1
 13 4 13 25 19 31 c 1
 89 34 106 39 106 122 c 2
 106 523 l 2
 106 606 89 611 19 614 c 1
 13 620 13 641 19 647 c 1
 66 646 114.5 645 148 645 c 0
 186.5 645 234 646 278 647 c 1
 284 641 284 620 278 614 c 1
 208 611 191 606 191 523 c 2
 191 344 l 1
 286 344 l 1
 299 523 417 658 573 658 c 0
 741 658 866 527 866 329 c 0
 866 129 752 -10 574 -10 c 0
 416 -10 287 111 285 305 c 1
 191 305 l 1
 191 122 l 2
EndSplineSet
EndChar

StartChar: uni042F
Encoding: 1071 1071 94
Width: 580
GlyphClass: 2
Flags: MW
LayerCount: 2
Fore
SplineSet
169 502 m 0
 169 396 231 362 314 362 c 2
 392 362 l 1
 392 575 l 2
 392 608 388 611 301 611 c 0
 245 611 169 595 169 502 c 0
393 323 m 1
 286 324 266 295 224 189 c 0
 181 80.5 144 0 73 -1 c 2
 7 -2 l 1
 6 0 l 1
 6 19 l 2
 6 24 9 27 13 27 c 2
 22 28 l 2
 54 32 97.6 86.4 149 220 c 0
 174 285 207 310 234 326 c 1
 234 329 l 1
 166 339 77 389 77 491 c 0
 77 560 122 646 308 646 c 0
 343 646 402 645 436 645 c 0
 486.3 645 515 646 565 647 c 1
 571 641 571 620 565 614 c 1
 495 611 478 606 478 523 c 2
 478 122 l 2
 478 39 495 34 565 31 c 1
 571 25 571 4 565 -2 c 1
 516 -1 485.7 0 435 0 c 0
 378.8 0 341 -1 291 -2 c 1
 285 4 285 25 291 31 c 1
 369 35 393 39 393 122 c 2
 393 323 l 1
EndSplineSet
EndChar

StartChar: uni0447
Encoding: 1095 1095 95
Width: 539
GlyphClass: 2
Flags: MW
LayerCount: 2
Fore
SplineSet
162 307 m 2
 162 290 l 2
 162 212 165 178 230 178 c 0
 282 178 318 205 352 235 c 1
 352 307 l 2
 352 390 341 394 290 398 c 1
 284 404 284 425 290 431 c 1
 313 430 353 429 392 429 c 0
 436 429 470 430 504 431 c 1
 510 425 510 404 504 398 c 1
 443 393 432 390 432 307 c 2
 432 122 l 2
 432 39 443 35 504 31 c 1
 510 25 510 4 504 -2 c 1
 472 -1 435 0 392 0 c 0
 348 0 313 -1 280 -2 c 1
 274 4 274 25 280 31 c 1
 341 36 352 39 352 122 c 2
 352 199 l 1
 311 169 261 133 198 133 c 0
 105 133 84 170 84 264 c 2
 84 307 l 2
 84 390 73 394 12 398 c 1
 6 404 6 425 12 431 c 1
 45 430 79 429 122 429 c 0
 162 429 200 430 224 431 c 1
 230 425 230 404 224 398 c 1
 173 393 162 390 162 307 c 2
EndSplineSet
EndChar

StartChar: uni0448
Encoding: 1096 1096 96
Width: 849
GlyphClass: 2
Flags: MW
LayerCount: 2
Fore
SplineSet
746 122 m 2
 746 40 759 35 814 31 c 1
 820 25 820 4 814 -2 c 1
 784 -1 746 0 706 0 c 2
 147 0 l 2
 107 0 69 -1 39 -2 c 1
 33 4 33 25 39 31 c 1
 94 35 107 40 107 122 c 2
 107 307 l 2
 107 389 98 394 43 398 c 1
 38 404 38 425 43 431 c 1
 71 430 106 429 146 429 c 0
 186 429 223 430 248 431 c 1
 253 425 253 404 248 398 c 1
 196 394 186 389 186 307 c 2
 186 90 l 2
 186 50 192 39 229 39 c 2
 343 39 l 2
 380 39 385 52 385 89 c 2
 385 307 l 1
 386 389 376 394 326 398 c 1
 321 404 321 425 326 431 c 1
 351 430 384 429 424 429 c 0
 464 429 501 430 526 431 c 1
 531 425 531 404 526 398 c 1
 472 394 465 389 464 307 c 1
 464 90 l 2
 464 48 477 39 507 39 c 2
 625 39 l 2
 664 39 667 59 667 90 c 2
 667 307 l 2
 667 389 657 393 606 398 c 1
 600 404 600 425 606 431 c 1
 636 430 666 429 706 429 c 0
 746 429 784 430 814 431 c 1
 820 425 820 404 814 398 c 1
 759 394 746 389 746 307 c 2
 746 122 l 2
EndSplineSet
EndChar

StartChar: uni0449
Encoding: 1097 1097 97
Width: 849
GlyphClass: 2
Flags: MW
LayerCount: 2
Fore
SplineSet
669 0 m 2
 147 0 l 2
 107 0 69 -1 39 -2 c 1
 33 4 33 25 39 31 c 1
 94 35 107 40 107 122 c 2
 107 307 l 2
 107 389 98 394 43 398 c 1
 38 404 38 425 43 431 c 1
 71 430 106 429 146 429 c 0
 186 429 223 430 248 431 c 1
 253 425 253 404 248 398 c 1
 196 394 186 389 186 307 c 2
 186 90 l 2
 186 50 192 39 229 39 c 2
 343 39 l 2
 380 39 385 52 385 89 c 2
 385 307 l 1
 386 389 376 394 326 398 c 1
 321 404 321 425 326 431 c 1
 351 430 384 429 424 429 c 0
 464 429 501 430 526 431 c 1
 531 425 531 404 526 398 c 1
 472 394 465 389 464 307 c 1
 464 90 l 2
 464 48 477 39 507 39 c 2
 625 39 l 2
 664 39 667 59 667 90 c 2
 667 307 l 2
 667 389 657 393 606 398 c 1
 600 404 600 425 606 431 c 1
 636 430 666 429 706 429 c 0
 746 429 784 430 814 431 c 1
 820 425 820 404 814 398 c 1
 759 394 746 389 746 307 c 2
 746 122 l 2
 746 42 762.3 36 785 31 c 0
 798.8 28 814 23 815 5 c 2
 821 -128 l 1
 812.7 -130.6 804.1 -131.3 795 -129 c 1
 782 -80 753 0 669 0 c 2
EndSplineSet
EndChar

StartChar: uni044A
Encoding: 1098 1098 98
Width: 565
GlyphClass: 2
Flags: MW
LayerCount: 2
Fore
SplineSet
455 126 m 0
 455 179 432 224 357 224 c 2
 286 224 l 1
 286 76 l 2
 286 41 303 31 352 31 c 0
 405 31 455 44 455 126 c 0
207 307 m 2
 207 380 188 392 165 392 c 0
 88 392 74 357 56 275 c 1
 44.8 274.4 34.7 276.5 27 280 c 1
 34 326 39 373 40 431 c 1
 40 431 165.7 429 246 429 c 0
 289.7 429 324 430 358 431 c 1
 364 425 364 404 358 398 c 1
 297 393 286 390 286 306 c 2
 286 257 l 1
 358 257 l 2
 459 257 541 230 541 136 c 0
 541 29 474 -2 351 -2 c 0
 310.4 -2 287.6 0 247 0 c 0
 203.3 0 168 -1 135 -2 c 1
 129 4 129 25 135 31 c 1
 196 36 207 39 207 122 c 2
 207 307 l 2
EndSplineSet
EndChar

StartChar: uni044C
Encoding: 1100 1100 100
Width: 465
GlyphClass: 2
Flags: MW
LayerCount: 2
Fore
SplineSet
355 126 m 0
 355 179 332 224 257 224 c 2
 186 224 l 1
 186 76 l 2
 186 41 203 31 252 31 c 0
 305 31 355 44 355 126 c 0
186 306 m 2
 186 257 l 1
 258 257 l 2
 359 257 441 230 441 136 c 0
 441 29 374 -2 251 -2 c 0
 210.4 -2 187.6 0 147 0 c 0
 103.3 0 68 -1 35 -2 c 1
 29 4 29 25 35 31 c 1
 96 36 107 39 107 122 c 2
 107 307 l 2
 107 390 96 394 35 398 c 1
 29 404 29 425 35 431 c 1
 68 430 102.7 429 146 429 c 0
 189.7 429 224 430 258 431 c 1
 264 425 264 404 258 398 c 1
 197 393 186 390 186 306 c 2
EndSplineSet
EndChar

StartChar: uni044D
Encoding: 1101 1101 101
Width: 454
GlyphClass: 2
Flags: MW
LayerCount: 2
Fore
SplineSet
47 82 m 0
 47 98 61 111 80 111 c 0
 98 111 112 106 127 74 c 0
 140 47 164 25 206 25 c 0
 295 25 332 82 332 201 c 1
 319 206 306 210 292 210 c 0
 272.8 210 258.4 206 243.5 199.7 c 0
 227.7 193.1 210.4 188 186 188 c 0
 141 188 92 206 92 220 c 0
 92 224 94 234 100 234 c 0
 107 234 120 228 134 228 c 0
 151.7 228 167.9 233.6 184.2 241.1 c 0
 202.4 249.4 221.5 256 245 256 c 0
 276 256 304 244 331 228 c 1
 334 230 l 1
 334 322 292.5 404 209 404 c 0
 131 404 98 360 80 296 c 1
 69.8 294.4 62.3 295.3 54 300 c 1
 55.7 340.7 57.7 381.7 63 420 c 1
 115 424 167 439 217 439 c 0
 362.5 439 418 342 418 221 c 0
 418 60 322 -10 218 -10 c 0
 122 -10 47 29 47 82 c 0
EndSplineSet
EndChar

StartChar: uni044E
Encoding: 1102 1102 102
Width: 731
GlyphClass: 2
Flags: MW
LayerCount: 2
Fore
SplineSet
186 237 m 1
 290 237 l 1
 301 356 369 439 490 439 c 0
 642 439 691 321 691 217 c 0
 691 117 636 -10 489 -10 c 0
 354 -10 291 97 289 198 c 1
 186 198 l 1
 186 122 l 2
 186 39 197 35 258 31 c 1
 264 25 264 4 258 -2 c 1
 226 -1 190 0 147 0 c 0
 103 0 68 -1 35 -2 c 1
 29 4 29 25 35 31 c 1
 96 36 107 39 107 122 c 2
 107 307 l 2
 107 390 96 394 35 398 c 1
 29 404 29 425 35 431 c 1
 68 430 103 429 146 429 c 0
 190 429 224 430 258 431 c 1
 264 425 264 404 258 398 c 1
 197 393 186 390 186 307 c 2
 186 237 l 1
480 404 m 0
 402 404 375 313 375 226 c 0
 375 149 408 25 507 25 c 0
 550 25 605 53 605 185 c 0
 605 331 562 404 480 404 c 0
EndSplineSet
EndChar

StartChar: uni044F
Encoding: 1103 1103 103
Width: 481
GlyphClass: 2
Flags: MW
LayerCount: 2
Fore
SplineSet
142 321 m 0
 142 271 165 225 225 225 c 2
 295 225 l 1
 295 342 l 2
 295 380.3 279 398 238 398 c 0
 157 398 142 368 142 321 c 0
114 0 m 2
 114 0 36 -1 16 -2 c 1
 10 4 10 25 16 31 c 1
 55 33 72.3 39 85 73 c 0
 89.8 85.8 99 107.7 110 131 c 0
 127.2 167.5 143.7 189 181.7 199.8 c 0
 183.3 200.5 183.2 204.2 180.3 204.4 c 0
 105.6 206.6 56 240.3 56 305 c 0
 56 359 71 431 246 431 c 0
 270.7 431 299.7 429 334 429 c 0
 377.7 429 412 430 446 431 c 1
 452 425 452 404 446 398 c 1
 385 393 374 390 374 307 c 2
 374 122 l 2
 374 39 385 35 446 31 c 1
 452 25 452 4 446 -2 c 1
 414 -1 378.3 0 335 0 c 0
 291.3 0 256 -1 223 -2 c 1
 217 4 217 25 223 31 c 1
 284 36 295 39 295 122 c 2
 295 191 l 1
 269 191 l 2
 218.6 191 189.5 141.5 163.5 63 c 0
 151.5 26.6 141.7 0.8 114 0 c 2
EndSplineSet
EndChar

StartChar: uni04D4
Encoding: 1236 1236 110
Width: 865
GlyphClass: 2
Flags: MW
LayerCount: 2
Fore
SplineSet
271 305 m 1
 429 305 l 1
 429 575 l 2
 429 587 428 596 424 598 c 1
 271 305 l 1
429 122 m 2
 429 266 l 1
 251 266 l 1
 154 79 l 2
 133.7 39.9 186.4 33.6 224 31 c 1
 230 25 230 4 224 -2 c 1
 187 -1 137 0 96 0 c 0
 57 0 44 -1 7 -2 c 1
 1 4 1 25 7 31 c 1
 50.5 34 79.3 42.7 111 102 c 2
 354 557 l 2
 370.2 587.7 364 611 294 614 c 1
 288 620 288 641 294 647 c 1
 344 646 409 645 409 645 c 1
 549 645 l 1
 725 645 l 2
 749 645 757 646 774 649 c 0
 777 649 778 648 778 646 c 0
 780 638 795 542 800 501 c 1
 790.2 496.3 779.4 494.2 767 496 c 1
 745 565 729 605 654 605 c 2
 549 605 l 2
 525 605 513 585 513 561 c 2
 513 361 l 1
 604 361 l 2
 689 361 692 374 695 429 c 1
 701 435 722 435 728 429 c 1
 727 399 726 376.5 726 343 c 0
 726 308.7 727 290 728 255 c 1
 722 249 701 249 695 255 c 1
 692 300 689 323 604 323 c 2
 513 323 l 1
 513 82 l 2
 513 55 527 39 549 39 c 2
 685 39 l 2
 761 39 796 98 816 170 c 1
 829.1 173.2 840.6 171 851 165 c 1
 843 114 828 48 814 -2 c 1
 814 -2 734 0 686 0 c 2
 472 0 l 1
 472 0 391 -1 342 -2 c 1
 336 4 336 25 342 31 c 1
 412 34 429 39 429 122 c 2
EndSplineSet
Colour: ff00ff
EndChar

StartChar: uni04E9
Encoding: 1257 1257 123
Width: 504
GlyphClass: 2
Flags: MW
AnchorPoint: "below" 246 -107 basechar 0
AnchorPoint: "above" 236 645 basechar 0
LayerCount: 2
Fore
SplineSet
41 205 m 0
 41 268.2 60 326.4 96.3 369 c 0
 132.9 412 187.2 439 253 439 c 0
 406 439 463 318 463 214 c 0
 463 152.7 442.7 89.8 397.9 46 c 0
 363.8 12.7 315.4 -10 251 -10 c 0
 109 -10 41 103 41 205 c 0
238 404 m 0
 148 404 127 315 127 228 c 0
 127 227.4 127 226.7 127 226.1 c 1
 148.4 237.9 191.8 249 223 249 c 0
 268 249 290 229 328 229 c 0
 344.3 229 360.5 233.4 373.9 238.5 c 1
 361.5 346.3 312 404 238 404 c 0
376.3 210.2 m 1
 353.5 196.6 317.1 179 284 179 c 0
 241 179 207 207 172 207 c 0
 162.3 207 140.1 202.4 128.3 200.7 c 1
 135.4 124.5 172.6 25 265 25 c 0
 312 25 377 56 377 182 c 0
 377 191.7 376.8 201.1 376.3 210.2 c 1
EndSplineSet
Colour: ff9ccc
EndChar

StartChar: uni1E14
Encoding: 7700 7700 149
Width: 557
GlyphClass: 2
Flags: MW
LayerCount: 2
Fore
SplineSet
20.9 831.1 m 1
 114.1 757.2 l 2
 122.6 750.2 125.6 744.9 125.6 738.7 c 0
 125.6 731.7 120.3 725.5 114.1 725.5 c 0
 107.9 725.5 97.2 728.1 81 736 c 2
 -37.6 791.5 l 1
 -23.5 807.1 -5.4 820.9 20.9 831.1 c 1
EndSplineSet
Refer: 692 917 N 1 0 0 1 0 0 2
Refer: 1419 772 N 1 0 0 1 515 178 2
Colour: ff00ff
EndChar

StartChar: uni1E15
Encoding: 7701 7701 150
Width: 447
GlyphClass: 2
Flags: MW
LayerCount: 2
Fore
SplineSet
212.2 765.2 m 1
 268.2 651.8 l 2
 272.2 642.8 273 636.5 273 630.2 c 0
 273 625.7 267.4 620.3 261 620.3 c 0
 256.2 620.3 250.6 624.8 237.8 638.3 c 2
 146.6 736.4 l 1
 148.2 746.3 l 1
 154.6 751.7 173 767 200.2 767 c 0
 204.2 767 209 766.1 212.2 765.2 c 1
EndSplineSet
Refer: 417 275 N 1 0 0 1 0 0 2
Colour: ff00ff
EndChar

StartChar: uni1E16
Encoding: 7702 7702 151
Width: 557
GlyphClass: 2
Flags: MW
LayerCount: 2
Fore
SplineSet
535.1 831.9 m 1
 557.2 820.2 573.1 804.9 582.9 786.1 c 1
 472 735 l 2
 455.8 727.1 446.5 724.5 439.6 724.5 c 0
 432.7 724.5 428.1 730.7 428.1 737.7 c 0
 428.1 743.9 429.6 748.3 439.6 756.2 c 2
 535.1 831.9 l 1
EndSplineSet
Refer: 692 917 N 1 0 0 1 0 0 2
Refer: 1419 772 N 1 0 0 1 458 178 2
Colour: ff00ff
EndChar

StartChar: uni1E17
Encoding: 7703 7703 152
Width: 447
GlyphClass: 2
Flags: MW
LayerCount: 2
Fore
SplineSet
264.4 759.2 m 1
 266.8 760.1 271.6 761 275.6 761 c 0
 280.7 761 301.2 760.1 319.6 740.3 c 1
 322 730.4 l 1
 230 632.3 l 2
 218 618.8 211.6 615.2 206 615.2 c 0
 200.4 615.2 194.8 620.6 194.8 626.9 c 0
 194.8 637 197.5 640.6 204 652.1 c 2
 264.4 759.2 l 1
EndSplineSet
Refer: 417 275 N 1 0 0 1 0 0 2
Colour: ff00ff
EndChar

StartChar: uni1E27
Encoding: 7719 7719 168
Width: 538
GlyphClass: 2
Flags: MW
LayerCount: 2
Fore
SplineSet
345 572 m 0
 345 597 365 618 390 618 c 0
 415 618 436 597 436 572 c 0
 436 547 415 527 390 527 c 0
 365 527 345 547 345 572 c 0
208 572 m 0
 208 597 228 618 253 618 c 0
 278 618 298 597 298 572 c 0
 298 547 278 527 253 527 c 0
 228 527 208 547 208 572 c 0
EndSplineSet
Refer: 288 104 N 1 0 0 1 0 0 2
Colour: ff9ccc
EndChar

StartChar: uni1E28
Encoding: 7720 7720 169
Width: 730
GlyphClass: 2
Flags: MW
LayerCount: 2
Fore
SplineSet
618 122 m 2
 618 39 635 34 705 31 c 1
 711 25 711 4 705 -2 c 1
 661 -1 613.3 0 576 0 c 0
 538.9 0 491 -1 446 -2 c 1
 440 4 440 25 446 31 c 1
 516 34 533 39 533 122 c 2
 533 321 l 1
 191 321 l 1
 191 122 l 2
 191 39 208 34 278 31 c 1
 284 25 284 4 278 -2 c 1
 240.8 -1.2 200.2 -0.3 166.6 -0.1 c 1
 142 -66 l 1
 150 -64 159 -63 168 -63 c 0
 208 -63 239 -87 239 -125 c 0
 239 -168 193 -199 132 -199 c 0
 100 -199 83 -193 58 -182 c 1
 58 -170 61 -163 68 -156 c 1
 95 -166 106 -170 126 -170 c 0
 156 -170 177 -156 177 -130 c 0
 177 -109 167 -95 144 -95 c 0
 125 -95 115 -96 99 -101 c 1
 93 -95 l 1
 132.6 -0.1 l 1
 97.9 -0.3 56.8 -1.1 19 -2 c 1
 13 4 13 25 19 31 c 1
 89 34 106 39 106 122 c 2
 106 523 l 2
 106 606 89 611 19 614 c 1
 13 620 13 641 19 647 c 1
 57 646 98 645 148 645 c 0
 199 645 240 646 278 647 c 1
 284 641 284 620 278 614 c 1
 208 611 191 606 191 523 c 2
 191 363 l 1
 533 363 l 1
 533 523 l 2
 533 606 516 611 446 614 c 1
 440 620 440 641 446 647 c 1
 490 646 537.7 645 575 645 c 0
 613 645 664 646 705 647 c 1
 711 641 711 620 705 614 c 1
 635 611 618 606 618 523 c 2
 618 122 l 2
EndSplineSet
Colour: ff00ff
EndChar

StartChar: uni1E29
Encoding: 7721 7721 170
Width: 538
GlyphClass: 2
Flags: MW
LayerCount: 2
Fore
SplineSet
117 -96 m 0
 98 -96 88 -97 72 -102 c 1
 66 -96 l 1
 106 -0.1 l 1
 74.5 -0.4 45 -1.2 18.2 -2 c 1
 12.2 4 12.2 25 18.2 31 c 1
 76.2 35 88 39 88 122 c 2
 88 559 l 2
 88 643 76 638 24 641 c 1
 18 647 16 663 18 671 c 1
 58 674 133 688 158 698 c 1
 167 698 171 695 171 688 c 2
 171 688 167 648 167 583 c 2
 166.2 358 l 2
 166.2 344 172.6 354.2 176 358 c 0
 237 426 296.9 439 346 439 c 0
 381 439 412.2 427 429 405 c 0
 452.3 374.5 456 326 456 271 c 2
 456 122 l 2
 456 40 467 36 523 31 c 1
 528 25 528 4 523 -2 c 1
 490 -1 457 0 417 0 c 0
 377 0 343 -1 315 -2 c 1
 310 4 310 25 315 31 c 1
 367 36 377 40 377 122 c 2
 377 274 l 2
 377 304 375 331.2 365 351 c 0
 353.4 373.9 332.4 387 312 387 c 0
 272.6 387 222 365.3 184 328 c 0
 176 319.3 167 307 167 285.9 c 2
 167 122 l 2
 167 39 176 35 226.8 31 c 1
 232.8 25 232.8 4 226.8 -2 c 1
 201.8 -1.1 172.9 -0.2 140 -0 c 1
 115 -67 l 1
 123 -65 132 -64 141 -64 c 0
 181 -64 212 -88 212 -126 c 0
 212 -169 166 -200 105 -200 c 0
 73 -200 56 -194 31 -183 c 1
 31 -171 34 -164 41 -157 c 1
 68 -167 79 -171 99 -171 c 0
 129 -171 150 -157 150 -131 c 0
 150 -110 140 -96 117 -96 c 0
EndSplineSet
Colour: ff00ff
EndChar

StartChar: uni1E2E
Encoding: 7726 7726 175
Width: 297
GlyphClass: 2
Flags: MW
LayerCount: 2
Fore
SplineSet
225.1 889.9 m 1
 247.2 878.2 263.1 862.9 272.9 844.1 c 1
 162 793 l 2
 145.8 785.1 136.5 782.5 129.6 782.5 c 0
 122.7 782.5 118.1 788.7 118.1 795.7 c 0
 118.1 801.9 119.6 806.3 129.6 814.2 c 2
 225.1 889.9 l 1
EndSplineSet
Refer: 358 207 N 1 0 0 1 0 0 2
Colour: ff00ff
EndChar

StartChar: uni1E2F
Encoding: 7727 7727 176
Width: 271
GlyphClass: 2
Flags: MW
LayerCount: 2
Fore
SplineSet
177 740 m 1
 179.3 740.9 183.8 741.8 187.7 741.8 c 0
 192.6 741.8 212.4 741 230.1 721.6 c 1
 232.4 711.9 l 1
 143.8 616 l 2
 132.3 602.8 126.2 599.2 120.8 599.2 c 0
 115.4 599.2 110 604.5 110 610.7 c 0
 110 620.6 112.5 624 118.8 635.3 c 2
 177 740 l 1
EndSplineSet
Refer: 390 239 N 1 0 0 1 0 0 2
Colour: ff00ff
EndChar

StartChar: uni1E4C
Encoding: 7756 7756 205
Width: 702
GlyphClass: 2
Flags: MW
LayerCount: 2
Fore
SplineSet
400.7 748.1 m 0
 419.4 748.1 428.7 759.1 440.6 805.3 c 1
 450 806.4 458.4 803.1 463.5 798.7 c 1
 453.3 732.7 428.7 689.8 389.6 689.8 c 0
 370.9 689.8 353 709.6 335.2 725 c 0
 319.9 737.1 303.8 745.9 289.3 745.9 c 0
 267.2 745.9 258.7 729.4 250.2 693.1 c 1
 240.8 690.9 232.3 692 227.2 698.6 c 1
 239.1 763.5 258.7 806.4 295.2 806.4 c 0
 320.7 806.4 339.5 784.4 356.5 769 c 0
 370.1 755.8 384.5 748.1 400.7 748.1 c 0
608.1 804.9 m 1
 630.2 793.2 646.1 777.9 655.9 759.1 c 1
 545 708 l 2
 528.8 700.1 519.5 697.5 512.6 697.5 c 0
 505.7 697.5 501.1 703.7 501.1 710.7 c 0
 501.1 716.9 502.6 721.3 512.6 729.2 c 2
 608.1 804.9 l 1
EndSplineSet
Refer: 264 79 N 1 0 0 1 0 0 2
Colour: ff00ff
EndChar

StartChar: uni1E4D
Encoding: 7757 7757 206
Width: 504
GlyphClass: 2
Flags: MW
LayerCount: 2
Fore
SplineSet
341 750 m 1
 343.3 750.9 347.8 751.8 351.7 751.8 c 0
 356.6 751.8 376.4 751 394.1 731.6 c 1
 396.4 721.9 l 1
 307.8 626 l 2
 296.3 612.8 290.2 609.2 284.8 609.2 c 0
 279.4 609.2 274 614.5 274 620.7 c 0
 274 630.6 276.5 634 282.8 645.3 c 2
 341 750 l 1
EndSplineSet
Refer: 672 771 N 1 0 0 1 388 -70 2
Refer: 295 111 N 1 0 0 1 0 0 2
Colour: ff00ff
EndChar

StartChar: uni1E4E
Encoding: 7758 7758 207
Width: 702
GlyphClass: 2
Flags: MW
LayerCount: 2
Fore
SplineSet
511 752 m 0
 511 777 532 798 557 798 c 0
 582 798 603 777 603 752 c 0
 603 727 582 706 557 706 c 0
 532 706 511 727 511 752 c 0
101 752 m 0
 101 777 122 798 147 798 c 0
 172 798 193 777 193 752 c 0
 193 727 172 706 147 706 c 0
 122 706 101 727 101 752 c 0
400.7 748.1 m 0
 419.4 748.1 428.7 759.1 440.6 805.3 c 1
 450 806.4 458.4 803.1 463.5 798.7 c 1
 453.3 732.7 428.7 689.8 389.6 689.8 c 0
 370.9 689.8 353 709.6 335.2 725 c 0
 319.9 737.1 303.8 745.9 289.3 745.9 c 0
 267.2 745.9 258.7 729.4 250.2 693.1 c 1
 240.8 690.9 232.3 692 227.2 698.6 c 1
 239.1 763.5 258.7 806.4 295.2 806.4 c 0
 320.7 806.4 339.5 784.4 356.5 769 c 0
 370.1 755.8 384.5 748.1 400.7 748.1 c 0
EndSplineSet
Refer: 264 79 N 1 0 0 1 0 0 2
Colour: ff9ccc
EndChar

StartChar: uni1E50
Encoding: 7760 7760 209
Width: 702
GlyphClass: 2
Flags: MW
LayerCount: 2
Fore
SplineSet
442.3 745 m 2
 252 745 l 2
 244.3 745 240.9 756 240.9 763 c 0
 240.9 775 250.3 795 259.6 795 c 2
 450.8 795 l 2
 459.3 795 462.7 784 462.7 778 c 0
 462.7 766 453.4 745 442.3 745 c 2
95.9 805.1 m 1
 189.1 731.2 l 2
 197.6 724.2 200.6 718.9 200.6 712.7 c 0
 200.6 705.7 195.3 699.5 189.1 699.5 c 0
 182.9 699.5 172.2 702.1 156 710 c 2
 37.4 765.5 l 1
 51.5 781.1 69.6 794.9 95.9 805.1 c 1
EndSplineSet
Refer: 264 79 N 1 0 0 1 0 0 2
Colour: ff00ff
EndChar

StartChar: uni1E51
Encoding: 7761 7761 210
Width: 504
GlyphClass: 2
Flags: MW
LayerCount: 2
Fore
SplineSet
213.9 758 m 1
 267.8 647.2 l 2
 271.6 638.4 272.4 632.2 272.4 626 c 0
 272.4 621.6 267 616.4 260.8 616.4 c 0
 256.2 616.4 250.8 620.8 238.5 634 c 2
 150.7 729.9 l 1
 152.3 739.6 l 1
 158.5 744.9 176.1 759.8 202.3 759.8 c 0
 206.1 759.8 210.8 758.9 213.9 758 c 1
EndSplineSet
Refer: 447 333 N 1 0 0 1 0 0 2
Colour: ff00ff
EndChar

StartChar: uni1E52
Encoding: 7762 7762 211
Width: 702
GlyphClass: 2
Flags: MW
LayerCount: 2
Fore
SplineSet
420.3 745 m 2
 230 745 l 2
 222.3 745 218.9 756 218.9 763 c 0
 218.9 775 228.3 795 237.6 795 c 2
 428.8 795 l 2
 437.3 795 440.7 784 440.7 778 c 0
 440.7 766 431.4 745 420.3 745 c 2
603.1 804.9 m 1
 625.2 793.2 641.1 777.9 650.9 759.1 c 1
 540 708 l 2
 523.8 700.1 514.5 697.5 507.6 697.5 c 0
 500.7 697.5 496.1 703.7 496.1 710.7 c 0
 496.1 716.9 497.6 721.3 507.6 729.2 c 2
 603.1 804.9 l 1
EndSplineSet
Refer: 264 79 N 1 0 0 1 0 0 2
Colour: ff00ff
EndChar

StartChar: uni1E53
Encoding: 7763 7763 212
Width: 504
GlyphClass: 2
Flags: MW
LayerCount: 2
Fore
SplineSet
273 767 m 1
 275.3 767.9 279.8 768.8 283.7 768.8 c 0
 288.6 768.8 308.4 768 326.1 748.6 c 1
 328.4 738.9 l 1
 239.8 643 l 2
 228.3 629.8 222.2 626.2 216.8 626.2 c 0
 211.4 626.2 206 631.5 206 637.7 c 0
 206 647.6 208.5 651 214.8 662.3 c 2
 273 767 l 1
EndSplineSet
Refer: 447 333 N 1 0 0 1 0 0 2
Colour: ff00ff
EndChar

StartChar: uni1E65
Encoding: 7781 7781 230
Width: 390
GlyphClass: 2
Flags: MW
LayerCount: 2
Fore
SplineSet
52.4 593.1 m 0
 52.4 614.7 77.6 636.3 99.2 636.3 c 0
 123.5 636.3 142.4 611.1 142.4 589.5 c 0
 142.4 570.5 120.8 546.3 95.6 546.3 c 0
 74 546.3 52.4 569.7 52.4 593.1 c 0
EndSplineSet
Refer: 670 769 N 1 0 0 1 392 -37 2
Refer: 2045 115 N 1 0 0 1 0 0 2
Colour: ff00ff
EndChar

StartChar: uni1E67
Encoding: 7783 7783 232
Width: 390
GlyphClass: 2
Flags: MW
LayerCount: 2
Fore
SplineSet
150.4 648.1 m 0
 150.4 669.7 175.6 691.3 197.2 691.3 c 0
 221.5 691.3 240.4 666.1 240.4 644.5 c 0
 240.4 625.5 218.8 601.3 193.6 601.3 c 0
 172 601.3 150.4 624.7 150.4 648.1 c 0
EndSplineSet
Refer: 467 353 N 1 0 0 1 0 0 2
Colour: ff00ff
EndChar

StartChar: uni1E78
Encoding: 7800 7800 249
Width: 661
GlyphClass: 2
Flags: MW
LayerCount: 2
Fore
SplineSet
405.6 745.1 m 0
 424.3 745.1 433.6 756.1 445.5 802.3 c 1
 454.9 803.4 463.4 800.1 468.5 795.7 c 1
 458.3 729.7 433.6 686.8 394.5 686.8 c 0
 375.8 686.8 358 706.6 340.2 722 c 0
 324.9 734.1 308.7 742.9 294.2 742.9 c 0
 272.1 742.9 263.7 726.4 255.2 690.1 c 1
 245.8 687.9 237.3 689 232.2 695.6 c 1
 244.1 760.5 263.7 803.4 300.2 803.4 c 0
 325.7 803.4 344.4 781.4 361.4 766 c 0
 375 752.8 389.5 745.1 405.6 745.1 c 0
594.1 831.9 m 1
 616.2 820.2 632.1 804.9 641.9 786.1 c 1
 531 735 l 2
 514.8 727.1 505.5 724.5 498.6 724.5 c 0
 491.7 724.5 487.1 730.7 487.1 737.7 c 0
 487.1 743.9 488.6 748.3 498.6 756.2 c 2
 594.1 831.9 l 1
EndSplineSet
Refer: 270 85 N 1 0 0 1 0 0 2
Colour: ff00ff
EndChar

StartChar: uni1E79
Encoding: 7801 7801 250
Width: 531
GlyphClass: 2
Flags: MW
LayerCount: 2
Fore
SplineSet
312 778 m 1
 314.3 778.9 318.8 779.8 322.7 779.8 c 0
 327.6 779.8 347.4 779 365.1 759.6 c 1
 367.4 749.9 l 1
 278.8 654 l 2
 267.3 640.8 261.2 637.2 255.8 637.2 c 0
 250.4 637.2 245 642.5 245 648.7 c 0
 245 658.6 247.5 662 253.8 673.3 c 2
 312 778 l 1
EndSplineSet
Refer: 475 361 N 1 0 0 1 0 0 2
Colour: ff00ff
EndChar

StartChar: ampersand
Encoding: 38 38 252
Width: 705
GlyphClass: 2
Flags: MW
LayerCount: 2
Fore
SplineSet
250 338 m 1
 147 281 125 227 125 156 c 0
 125 58 179 23 242 23 c 0
 313 23 349 59 398 126 c 1
 341 201 261 317 250 338 c 1
421 94 m 1
 375 31 320 -10 235 -10 c 0
 128 -10 43 34 43 156 c 0
 43 235 96 302 228 376 c 1
 191 440 177 479 177 517 c 0
 177 576 231 647 331 647 c 0
 401 647 459 602 459 539 c 0
 459 484 393 419 310 371 c 1
 314 363 l 1
 332 332 390 249 436 187 c 1
 472.1 240.3 496.3 283.1 513.4 315 c 0
 551 385 536.1 390.3 482 393 c 1
 476 399 476 420 482 426 c 1
 502 425 543 424 577 424 c 0
 611 424 641 425 661 426 c 1
 667 420 667 399 661 393 c 1
 599.8 389.2 593 384 547 302 c 0
 520.1 254 497.6 214 458 157 c 1
 494 107 l 2
 525 64 555 44 571 44 c 0
 604 44 627 59 647 98 c 1
 658 98 662.8 93.4 668 88 c 1
 645 18 600 -10 565 -10 c 0
 534 -10 497 -8 450 57 c 1
 421 94 l 1
289 409 m 1
 353 451 390 503 390 539 c 0
 390 584 367 614 326 614 c 0
 300 614 251 585 251 519 c 0
 251 496 263 458 289 409 c 1
EndSplineSet
EndChar

StartChar: quotesingle
Encoding: 39 39 253
Width: 190
GlyphClass: 2
Flags: MW
LayerCount: 2
Fore
SplineSet
79 426 m 1
 79 426 53 585 53 594 c 0
 53 616 74 644 104 644 c 0
 130 644 139 627 139 611 c 0
 139 595 106 430 106 430 c 1
 79 426 l 1
EndSplineSet
EndChar

StartChar: comma
Encoding: 44 44 254
Width: 220
GlyphClass: 2
Flags: MW
LayerCount: 2
Fore
SplineSet
104 95 m 0
 144 95 170 56 170 -4 c 0
 170 -74 112 -122 52 -133 c 1
 45 -126 43 -119 43 -109 c 1
 95 -96 131 -50 131 -29 c 0
 131 -6 114 0 95 2 c 1
 77 5 51 14.5 51 46 c 0
 51 74 73 95 104 95 c 0
EndSplineSet
EndChar

StartChar: hyphen
Encoding: 45 45 255
Width: 338
GlyphClass: 2
Flags: MW
LayerCount: 2
Fore
SplineSet
271 223 m 2
 55 223 l 2
 46 223 40 232 40 242 c 0
 40 260 53 283 65 283 c 2
 284 283 l 2
 294 283 298 273 298 263 c 0
 298 251 284 223 271 223 c 2
EndSplineSet
EndChar

StartChar: period
Encoding: 46 46 256
Width: 220
GlyphClass: 2
Flags: MW
LayerCount: 2
Fore
SplineSet
57 43 m 0
 57 72 81 96 110 96 c 0
 139 96 163 72 163 43 c 0
 163 14 139 -10 110 -10 c 0
 81 -10 57 14 57 43 c 0
EndSplineSet
EndChar

StartChar: zero
Encoding: 48 48 257
Width: 465
GlyphClass: 2
Flags: MW
LayerCount: 2
Fore
SplineSet
232 575 m 0
 187 575 126 529 126 283 c 0
 126 196 136 25 229 25 c 0
 247 25 296 34 318 116 c 0
 332 167 335 230 335 322 c 0
 335 456 308 532 277 558 c 0
 265 569 249 575 232 575 c 0
228 -10 m 0
 189.3 -10 155 3.6 126.6 32 c 0
 71.9 86.5 39 187.4 39 294 c 0
 39 492 133 610 232 610 c 0
 286 610 327.8 579.7 354 545 c 0
 398 487 422 402 422 303 c 0
 422 68 305 -10 228 -10 c 0
EndSplineSet
EndChar

StartChar: I
Encoding: 73 73 258
Width: 297
GlyphClass: 2
Flags: MW
AnchorPoint: "above" 150 850 basechar 0
AnchorPoint: "below" 147 -110 basechar 0
AnchorPoint: "cedilla" 147 1 basechar 0
AnchorPoint: "middle" 148 325 basechar 0
LayerCount: 2
Fore
SplineSet
191 122 m 2
 191 39 208 34 278 31 c 1
 284 25 284 4 278 -2 c 1
 233 -1 184.6 0 149 0 c 0
 112.7 0 64 -1 19 -2 c 1
 13 4 13 25 19 31 c 1
 89 34 106 39 106 122 c 2
 106 523 l 2
 106 606 89 611 19 614 c 1
 13 620 13 641 19 647 c 1
 66 646 114.5 645 148 645 c 0
 186.5 645 234 646 278 647 c 1
 284 641 284 620 278 614 c 1
 208 611 191 606 191 523 c 2
 191 122 l 2
EndSplineSet
Position2: "'cpsp' Versalabstaende 1" dx=2 dy=0 dh=5 dv=0
EndChar

StartChar: J
Encoding: 74 74 259
Width: 322
GlyphClass: 2
Flags: MW
AnchorPoint: "below" 109 -319 basechar 0
AnchorPoint: "middle" 186 315 basechar 0
AnchorPoint: "above" 182 850 basechar 0
LayerCount: 2
Fore
SplineSet
226 523 m 2
 226 103 l 2
 226 -40 167.7 -91.7 124 -129 c 0
 83 -164 52 -172 7 -172 c 0
 -15 -172 -68 -154 -68 -118 c 0
 -68 -96 -38 -75 -24 -75 c 0
 0.9 -75 9.7 -87.8 15.7 -100.5 c 0
 22.7 -115.2 36.9 -127 56 -127 c 0
 89 -127 141 -99 141 81 c 2
 141 523 l 2
 141 606 124 611 44 614 c 1
 38 620 38 641 44 647 c 1
 94 646 146.7 645 183 645 c 0
 221.7 645 265 646 303 647 c 1
 309 641 309 620 303 614 c 1
 243 611 226 606 226 523 c 2
EndSplineSet
Position2: "'cpsp' Versalabstaende 1" dx=2 dy=0 dh=5 dv=0
EndChar

StartChar: K
Encoding: 75 75 260
Width: 637
GlyphClass: 2
Flags: MW
AnchorPoint: "right" 649 732 basechar 0
AnchorPoint: "cedilla" 148 -1 basechar 0
AnchorPoint: "below" 342 -110 basechar 0
AnchorPoint: "above" 336 850 basechar 0
LayerCount: 2
Fore
SplineSet
191 122 m 2
 191 39 208 34 278 31 c 1
 284 25 284 4 278 -2 c 1
 233 -1 187 0 149 0 c 0
 110 0 64 -1 19 -2 c 1
 13 4 13 25 19 31 c 1
 89 34 106 39 106 122 c 2
 106 523 l 2
 106 606 89 611 19 614 c 1
 13 620 13 641 19 647 c 1
 64 646 109.5 645 148 645 c 0
 184.5 645 232 646 278 647 c 1
 284 641 284 620 278 614 c 1
 208 611 191 606 191 523 c 2
 191 347.3 l 1
 226.1 350.2 248.7 363.3 270 386 c 2
 435 562 l 2
 477.1 606.9 443.1 610.6 407 614 c 1
 401 620 401 641 407 647 c 1
 444 646 483 645 520 645 c 0
 552.2 645 584 646 615 647 c 1
 621 641 621 620 615 614 c 1
 575 611 535 607 489 558 c 1
 342 407 l 2
 308 372 307 365 307 358 c 0
 307 350 312.3 342.1 320 333 c 2
 539 73 l 2
 569.6 36.7 598.1 33.6 627 31 c 1
 633 25 633 4 627 -2 c 1
 594 -1 560 0 526 0 c 0
 504.9 0 492 -1 472 -2 c 0
 468 -2 467.4 1 467 4 c 0
 465 20 451.3 47.4 431 73 c 2
 274 271 l 2
 253.7 296.6 224.8 307.9 191 308.9 c 1
 191 122 l 2
EndSplineSet
Position2: "'cpsp' Versalabstaende 1" dx=2 dy=0 dh=5 dv=0
Colour: ff9ccc
EndChar

StartChar: L
Encoding: 76 76 261
Width: 528
GlyphClass: 2
Flags: MW
AnchorPoint: "middle" 288 315 basechar 0
AnchorPoint: "right" 471 732 basechar 0
AnchorPoint: "cedilla" 262 1 basechar 0
AnchorPoint: "below" 262 -110 basechar 0
AnchorPoint: "above" 151 850 basechar 0
LayerCount: 2
Fore
SplineSet
149 0 m 2
 115.3 0 58 -1 19 -2 c 1
 13 4 13 25 19 31 c 1
 89 34 106 39 106 122 c 2
 106 523 l 2
 106 606 89 611 19 614 c 1
 13 620 13 641 19 647 c 1
 65 646 111.9 645 148 645 c 0
 186.1 645 233 646 278 647 c 1
 284 641 284 620 278 614 c 1
 208 611 191 606 191 523 c 2
 191 109 l 2
 191 58 209 39 248 39 c 2
 311 39 l 2
 417 39 454 98 474 170 c 1
 486.4 171.8 497.2 169.7 507 165 c 1
 501 113 491 48 481 -2 c 1
 481 -2 389 0 361.7 0 c 2
 149 0 l 2
EndSplineSet
Position2: "'cpsp' Versalabstaende 1" dx=2 dy=0 dh=5 dv=0
EndChar

StartChar: M
Encoding: 77 77 262
Width: 839
GlyphClass: 2
Flags: MW
AnchorPoint: "middle" 426 445 basechar 0
AnchorPoint: "cedilla" 107 2 basechar 0
AnchorPoint: "below" 393 -110 basechar 0
AnchorPoint: "above" 431 850 basechar 0
LayerCount: 2
Fore
SplineSet
662.7 116 m 2
 637 534 l 1
 635 534 l 1
 410 5 l 2
 406 -3 402 -10 396 -10 c 0
 390 -10 383.8 -2.1 381 5 c 2
 174 524 l 1
 172 524 l 1
 134 123 l 2
 128.6 66.7 134 36 200 31 c 1
 206 25 206 4 200 -2 c 1
 170 -1 130 0 106 0 c 0
 82 0 50 -1 20 -2 c 1
 14 4 14 25 20 31 c 1
 77 36 89 61.1 94.9 121 c 2
 135 533 l 2
 142 608 136 610 67 614 c 1
 61 620 61 641 67 647 c 1
 212 645 l 1
 417 137 l 2
 420.1 129.4 423 124 425 124 c 0
 427 124 430 128 434 138 c 2
 646 645 l 1
 777 647 l 1
 783 641 783 620 777 614 c 1
 709 610 704 596 708.3 542 c 2
 738.1 121 l 2
 743.9 38.2 747 34 815 31 c 1
 821 25 821 4 815 -2 c 1
 781.8 -1 736 0 706 0 c 0
 676 0 636 -1 599 -2 c 1
 593 4 593 25 599 31 c 1
 664 34 667.7 35 662.7 116 c 2
EndSplineSet
Position2: "'cpsp' Versalabstaende 1" dx=2 dy=0 dh=5 dv=0
EndChar

StartChar: N
Encoding: 78 78 263
Width: 699
GlyphClass: 2
Flags: MW
AnchorPoint: "middle" 356 320 basechar 0
AnchorPoint: "cedilla" 125 -4 basechar 0
AnchorPoint: "below" 348 -110 basechar 0
AnchorPoint: "above" 346 850 basechar 0
LayerCount: 2
Fore
SplineSet
556 512 m 2
 556 603 539 607 469 614 c 1
 463 620 463 641 469 647 c 1
 513 646 558.7 645 580 645 c 0
 603.7 645 651 646 692 647 c 1
 698 641 698 620 692 614 c 1
 622 607 605 601 605 512 c 2
 605 21 l 2
 605 2 596 -10 582 -10 c 0
 566 -10 553 -1 542 14 c 2
 193 455 l 2
 176 477 165 488 159 488 c 0
 151 488 151 473 151 439 c 2
 151 133 l 2
 151 42 168 38 238 31 c 1
 244 25 244 4 238 -2 c 1
 196 -1 150.1 0 127 0 c 0
 103.4 0 58 -1 15 -2 c 1
 9 4 9 25 15 31 c 1
 85 38 102 44 102 133 c 2
 102 550 l 1
 96 576 66 611 23 614 c 1
 17 620 17 641 23 647 c 1
 158 645 l 1
 501 210 l 2
 530 173 545 155 549 155 c 0
 556 155 556 166 556 185 c 2
 556 512 l 2
EndSplineSet
Position2: "'cpsp' Versalabstaende 1" dx=2 dy=0 dh=5 dv=0
EndChar

StartChar: O
Encoding: 79 79 264
Width: 702
GlyphClass: 2
Flags: MW
AnchorPoint: "middle" 346 322 basechar 0
AnchorPoint: "komb_OR" 620 606 basechar 0
AnchorPoint: "cedilla" 350 0 basechar 0
AnchorPoint: "below" 350 -110 basechar 0
AnchorPoint: "above" 335 850 basechar 0
LayerCount: 2
Fore
SplineSet
331 622 m 0
 232 622 133 537 133 327 c 0
 133 135 248 26 370 26 c 0
 484 26 570 131 570 310 c 0
 570 512 463 622 331 622 c 0
666 329 m 0
 666 245 644 172.7 604.2 116 c 0
 549.3 37.7 460.8 -10 350 -10 c 0
 180 -10 37 113 37 310 c 0
 37 503.9 150.3 658 344 658 c 0
 523 658 666 536 666 329 c 0
EndSplineSet
Position2: "'cpsp' Versalabstaende 1" dx=2 dy=0 dh=5 dv=0
EndChar

StartChar: P
Encoding: 80 80 265
Width: 541
GlyphClass: 2
Flags: MW
AnchorPoint: "middle" 286 464 basechar 0
AnchorPoint: "right" 509 732 basechar 0
AnchorPoint: "cedilla" 150 -3 basechar 0
AnchorPoint: "below" 240 -110 basechar 0
AnchorPoint: "above" 277 850 basechar 0
LayerCount: 2
Fore
SplineSet
189 554 m 2
 189 321 l 1
 200 318 240 316 265 316 c 0
 362 316 414 360 414 468 c 0
 414 595 345 618 276 618 c 0
 204 618 189 583 189 554 c 2
104 523 m 2
 104 606 87 611 17 614 c 1
 11 620 11 641 17 647 c 1
 57 646 109.3 645 146 645 c 0
 186 645 244.7 652 283 652 c 0
 468 652 507 545 507 486 c 0
 507 401 452 282 270 282 c 0
 235 282 211 285 189 292 c 1
 189 122 l 2
 189 39 213 35 291 31 c 1
 297 25 297 4 291 -2 c 1
 241 -1 182.4 0 147 0 c 0
 111.3 0 62 -1 17 -2 c 1
 11 4 11 25 17 31 c 1
 87 34 104 39 104 122 c 2
 104 523 l 2
EndSplineSet
Position2: "'cpsp' Versalabstaende 1" dx=2 dy=0 dh=5 dv=0
EndChar

StartChar: Q
Encoding: 81 81 266
Width: 702
GlyphClass: 2
Flags: MW
AnchorPoint: "middle" 336 324 basechar 0
AnchorPoint: "right" 619 732 basechar 0
AnchorPoint: "komb_OR" 620 606 basechar 0
AnchorPoint: "above" 348 850 basechar 0
LayerCount: 2
Fore
SplineSet
331 622 m 0
 232 622 133 537 133 327 c 0
 133 135 248 26 370 26 c 0
 484 26 570 131 570 310 c 0
 570 512 463 622 331 622 c 0
666 329 m 0
 666 245 644 172.7 604.2 116 c 0
 559.5 52.3 492.5 8.8 409.3 -5.2 c 1
 376.7 -14.4 327.7 -35.2 278.1 -71.5 c 1
 285.3 -70.5 292 -70 298 -70 c 0
 355.8 -70 405.9 -91.7 452.5 -114.1 c 0
 495 -134.5 535.2 -152 577 -152 c 0
 606 -152 642 -142 664 -115 c 1
 681 -127 l 1
 642 -183 600 -209 537 -209 c 0
 466.4 -209 415.6 -182 369 -155.4 c 0
 330.1 -133.2 293.5 -114 251 -114 c 0
 243.4 -114 229.8 -117.3 215.7 -126.7 c 1
 202.5 -140.8 189.8 -156.2 178 -173 c 1
 139 -153 l 1
 143.8 -144.7 149.8 -137 156.6 -129.9 c 0
 192.5 -86.8 248.2 -39.5 309.1 -7.6 c 1
 157.7 10.5 37 129 37 310 c 0
 37 503.9 150.3 658 344 658 c 0
 523 658 666 536 666 329 c 0
EndSplineSet
Position2: "'cpsp' Versalabstaende 1" dx=2 dy=0 dh=5 dv=0
Colour: ff9ccc
EndChar

StartChar: R
Encoding: 82 82 267
Width: 587
GlyphClass: 2
Flags: MW
AnchorPoint: "middle" 278 468 basechar 0
AnchorPoint: "right" 519 732 basechar 0
AnchorPoint: "cedilla" 148 -1 basechar 0
AnchorPoint: "below" 258 -110 basechar 0
AnchorPoint: "above" 269 850 basechar 0
LayerCount: 2
Fore
SplineSet
272 618 m 0
 201 618 189 583 189 554 c 2
 189 325 l 1
 237 325 l 2
 334 325 405 353 405 478 c 0
 405 596 333 618 272 618 c 0
189 122 m 2
 189 39 206 34 276 31 c 1
 282 25 282 4 276 -2 c 1
 232 -1 184.6 0 147 0 c 0
 108.5 0 62 -1 17 -2 c 1
 11 4 11 25 17 31 c 1
 87 34 104 39 104 122 c 2
 104 523 l 2
 104 606 87 611 17 614 c 1
 11 620 11 641 17 647 c 1
 64 646 111 645 146 645 c 0
 182 645 224 652 271 652 c 0
 334 652 396 649 444 604 c 0
 480 570 497 529 497 479 c 0
 497 374 407 322 364 308 c 1
 490 98 l 2
 516 54.6 541 21 586 21 c 1
 590 13 590.5 3.9 587 -3 c 1
 577 -8 560 -10 545 -10 c 0
 485 -10 441.7 32.4 413 79 c 2
 306 253 l 2
 291.7 276.3 273 291 189 291 c 1
 189 122 l 2
EndSplineSet
Position2: "'cpsp' Versalabstaende 1" dx=2 dy=0 dh=5 dv=0
EndChar

StartChar: S
Encoding: 83 83 268
Width: 485
GlyphClass: 2
Flags: MW
AnchorPoint: "middle" 236.1 345 basechar 0
AnchorPoint: "right" 480.8 732 basechar 0
AnchorPoint: "cedilla" 223.5 2 basechar 0
AnchorPoint: "below" 234 -110 basechar 0
AnchorPoint: "above" 231.9 850 basechar 0
LayerCount: 2
Fore
SplineSet
394.6 631 m 1
 405 578 409 550 412.5 502 c 1
 403.5 495 390.5 494.2 380 496 c 1
 360 562 329 624 231.9 624 c 0
 173 624 122.4 568 122.4 512 c 0
 122.4 427.9 222.3 390.1 281.5 367.9 c 0
 363.9 337 444 290.4 444 184 c 0
 444 120.4 407.5 58.8 350 22.8 c 0
 315.2 1.1 272.1 -10 226.6 -10 c 0
 137.9 -10 110 13 47 13 c 1
 35 62 31 88 27 165 c 1
 36.6 170.1 47.2 172 59.5 168 c 1
 81.5 68.5 141.6 26 235 26 c 0
 314.8 26 360 68 360 149 c 0
 360 246.8 286.3 274.9 225.5 298 c 0
 137.5 331.5 51 379.6 51 485 c 0
 51 591 140 658 241.4 658 c 0
 339 658 336.8 639 394.6 631 c 1
EndSplineSet
Position2: "'cpsp' Versalabstaende 1" dx=2 dy=0 dh=5 dv=0
EndChar

StartChar: T
Encoding: 84 84 269
Width: 597
GlyphClass: 2
Flags: MW
AnchorPoint: "middle" 307 285 basechar 0
AnchorPoint: "right" 619 732 basechar 0
AnchorPoint: "cedilla" 308 10 basechar 0
AnchorPoint: "below" 300 -110 basechar 0
AnchorPoint: "above" 307 850 basechar 0
LayerCount: 2
Fore
SplineSet
350 122 m 2
 350 39 367 34 447 31 c 1
 453 25 453 4 447 -2 c 1
 397 -1 346.4 0 308 0 c 0
 267.9 0 217 -1 168 -2 c 1
 162 4 162 25 168 31 c 1
 248 34 265 39 265 122 c 2
 265 507 l 2
 265 568 255 606 218 606 c 2
 169 606 l 2
 103 606 57 580 37 500 c 1
 25 500 13 501 3 505 c 1
 14 553 24 605 28 650 c 0
 28 651 30 653 32 653 c 0
 70 650 188 645 265 645 c 2
 351 645 l 2
 430 645 541 650 575 653 c 0
 576 653 578 651 578 650 c 0
 579 605 584 554 591 508 c 1
 582 504 568 503 557 503 c 1
 540 580 493 606 418 606 c 2
 396 606 l 2
 360 606 350 568 350 504 c 2
 350 122 l 2
EndSplineSet
Position2: "'cpsp' Versalabstaende 1" dx=2 dy=0 dh=5 dv=0
EndChar

StartChar: U
Encoding: 85 85 270
Width: 661
GlyphClass: 2
Flags: MW
AnchorPoint: "middle" 336 321 basechar 0
AnchorPoint: "cedilla" 328 4 basechar 0
AnchorPoint: "below" 328 -110 basechar 0
AnchorPoint: "above" 346 850 basechar 0
LayerCount: 2
Fore
SplineSet
172 523 m 2
 172 266 l 2
 172 201 174 125 223 78 c 0
 253.1 49.1 294 31 342 31 c 0
 511 31 526 165 526 277 c 2
 526 523 l 2
 526 604 509 607 434 614 c 1
 428 620 428 641 434 647 c 1
 480 646 528.5 645 550 645 c 0
 573.2 645 614 646 652 647 c 1
 658 641 658 620 652 614 c 1
 592 607 575 603.3 575 523 c 2
 575 295 l 2
 575 117 526 -10 321 -10 c 0
 218.5 -10 87 29 87 233 c 2
 87 523 l 2
 87 606 70 611 10 614 c 1
 4 620 4 641 10 647 c 1
 49 646 90 645 129 645 c 0
 168.4 645 217 646 264 647 c 1
 270 641 270 620 264 614 c 1
 187 611 172 606 172 523 c 2
EndSplineSet
Position2: "'cpsp' Versalabstaende 1" dx=2 dy=0 dh=5 dv=0
EndChar

StartChar: V
Encoding: 86 86 271
Width: 652
GlyphClass: 2
Flags: MW
AnchorPoint: "middle" 334 474 basechar 0
AnchorPoint: "right" 679 732 basechar 0
AnchorPoint: "cedilla" 318 3 basechar 0
AnchorPoint: "below" 318 -110 basechar 0
AnchorPoint: "above" 336 850 basechar 0
LayerCount: 2
Fore
SplineSet
448 614 m 1
 442 620 442 641 448 647 c 1
 489 646 534 645 557 645 c 0
 580 645 615 646 645 647 c 1
 651 641 651 620 645 614 c 1
 582 607 565.9 568.3 546.7 521 c 2
 340 11 l 2
 334.2 -3.3 327 -12 316 -12 c 0
 306 -12 299 -4.6 293 11 c 2
 95.5 523 l 2
 68.9 592 61 609 6 614 c 1
 0 620 -1 641 5 647 c 1
 38 646 72.7 645 109 645 c 0
 145 645 190 646 230 647 c 1
 236 641 236 620 230 614 c 1
 162 607 156.2 593.5 179.4 534 c 2
 338.5 127 l 1
 343.1 127 l 1
 501 528 l 2
 522.4 582.4 522 609 448 614 c 1
EndSplineSet
Position2: "'cpsp' Versalabstaende 1" dx=2 dy=0 dh=5 dv=0
EndChar

StartChar: W
Encoding: 87 87 272
Width: 951
GlyphClass: 2
Flags: MW
AnchorPoint: "right" 979 732 basechar 0
AnchorPoint: "cedilla" 295 0 basechar 0
AnchorPoint: "below" 479 -110 basechar 0
AnchorPoint: "above" 450 850 basechar 0
LayerCount: 2
Fore
SplineSet
810 565 m 2
 825.3 607.6 785 611 744 614 c 1
 738 620 738 641 744 647 c 1
 784 646 828 645 854 645 c 0
 880 645 912 646 941 647 c 1
 947 641 947 620 941 614 c 1
 886 611 867.9 587.7 855 553 c 2
 654 14 l 2
 649 -1 642 -12 631 -12 c 0
 619 -12 613.9 -2 608 15 c 2
 493 347 l 2
 487.1 364.1 483 375 479 375 c 0
 474 375 470.9 370 462 350 c 2
 313 15 l 2
 305.6 -1.6 300 -12 287 -12 c 0
 275.5 -12 270.4 -0.9 265 15 c 2
 77 556 l 2
 58.4 609.5 51 611 6 614 c 1
 0 620 0 641 6 647 c 1
 35 646 64.3 645 99 645 c 0
 138 645 182 646 215 647 c 1
 221 641 221 620 215 614 c 1
 180 612 153.4 607.1 165 572 c 2
 311.2 129.7 l 1
 315.5 128.7 l 1
 445 422 l 2
 452.5 438.9 454 446.7 454 457 c 0
 454 466 450.9 476 447 488 c 2
 424 554 l 2
 415 579.7 393 611 340 614 c 1
 334 620 334 641 340 647 c 1
 372 646 407 645 440 645 c 0
 480 645 524 646 565 647 c 1
 571 641 571 620 565 614 c 1
 531 611 495.5 607.8 513 554 c 2
 650.5 132 l 1
 653.7 130.7 l 1
 810 565 l 2
EndSplineSet
Position2: "'cpsp' Versalabstaende 1" dx=2 dy=0 dh=5 dv=0
EndChar

StartChar: X
Encoding: 88 88 273
Width: 660
GlyphClass: 2
Flags: MW
AnchorPoint: "middle" 326 325 basechar 0
AnchorPoint: "right" 689 732 basechar 0
AnchorPoint: "cedilla" 102 0 basechar 0
AnchorPoint: "below" 307 -110 basechar 0
AnchorPoint: "above" 332 850 basechar 0
LayerCount: 2
Fore
SplineSet
538 102 m 2
 580.4 43.7 597 34 639 31 c 1
 645 25 646 4 640 -2 c 1
 610 -1 577 0 538 0 c 0
 498 0 461 -1 424 -2 c 1
 418 4 418 25 424 31 c 1
 480 34 475.8 44.9 447.5 85.2 c 2
 324 261 l 2
 318.4 269 314 272 310 272 c 0
 307 272 300.7 266 295 258 c 2
 163 73 l 2
 138.8 39 157.7 34 202 31 c 1
 208 25 208 4 202 -2 c 1
 162 -1 120 0 97 0 c 0
 74 0 37 -1 7 -2 c 1
 1 4 1 25 7 31 c 1
 51.7 35.3 83.7 47.1 118 93 c 2
 266 291 l 2
 271.9 298.9 276 308 276 314 c 0
 276 324 270.2 332.3 262 344 c 2
 119.7 547 l 2
 78.5 605.7 60 611 18 614 c 1
 12 620 11 641 17 647 c 1
 47 646 80 645 119 645 c 0
 159 645 196 646 233 647 c 1
 239 641 239 620 233 614 c 1
 177 611 181.3 599.8 209.5 559.8 c 1
 320 396 l 2
 324.8 389 329 385 332 385 c 0
 336 385 342 388.5 348 397 c 2
 471 572 l 2
 494.5 605.4 476.3 611 432 614 c 1
 426 620 426 641 432 647 c 1
 472 646 514 645 537 645 c 0
 560 645 597 646 627 647 c 1
 633 641 633 620 627 614 c 1
 582.3 609.7 550.7 596.9 516 552 c 2
 379 375 l 2
 369.9 363.2 369 354 369 345 c 0
 369 335 375.2 325.4 385 312 c 2
 538 102 l 2
EndSplineSet
Position2: "'cpsp' Versalabstaende 1" dx=2 dy=0 dh=5 dv=0
EndChar

StartChar: Y
Encoding: 89 89 274
Width: 575
GlyphClass: 2
Flags: MW
AnchorPoint: "cedilla" 293 1 basechar 0
AnchorPoint: "below" 295 -110 basechar 0
AnchorPoint: "above" 295 850 basechar 0
LayerCount: 2
Fore
SplineSet
337 122 m 2
 337 39 354 34 434 31 c 1
 440 25 440 4 434 -2 c 1
 384 -1 333.7 0 295 0 c 0
 256.4 0 204 -1 155 -2 c 1
 149 4 149 25 155 31 c 1
 235 34 252 39 252 122 c 2
 252 249 l 2
 252 286 248.5 296.5 231 326 c 2
 99.7 547 l 2
 65.2 605.1 48 611 6 614 c 1
 0 620 -1 641 5 647 c 1
 35 646 68 645 107 645 c 0
 147 645 185 646 221 647 c 1
 227 641 227 620 221 614 c 1
 165 611 161 601.4 185.2 558.8 c 2
 301.2 354 l 2
 310.2 338.1 315 336.8 323 352 c 2
 433.8 561 l 2
 455.2 601.4 439.3 611 395 614 c 1
 389 620 389 641 395 647 c 1
 427 646 463 645 486 645 c 0
 509 645 541 646 569 647 c 1
 575 641 575 620 569 614 c 1
 524.3 609.7 502 600.7 474 550 c 2
 354.5 334 l 2
 338.1 304.4 337 287.5 337 257.7 c 2
 337 122 l 2
EndSplineSet
Position2: "'cpsp' Versalabstaende 1" dx=2 dy=0 dh=5 dv=0
EndChar

StartChar: Z
Encoding: 90 90 275
Width: 604
GlyphClass: 2
Flags: MW
AnchorPoint: "middle" 305 321 basechar 0
AnchorPoint: "right" 619 732 basechar 0
AnchorPoint: "cedilla" 287 4 basechar 0
AnchorPoint: "below" 287 -110 basechar 0
AnchorPoint: "above" 320 850 basechar 0
LayerCount: 2
Fore
SplineSet
551 -2 m 1
 551 -2 451.3 0 424.3 0 c 2
 60 0 l 2
 46 0 41 5 41 15 c 0
 41 22 43 30 49 38 c 0
 151 190 341 456 438 579 c 0
 443 586 446 592 446 597 c 0
 446 603 441.9 606.1 436 606 c 2
 225 602 l 2
 150 600.6 112 565 91 496 c 1
 80 496 71 498 61 501 c 1
 69 542 79 599 83 653 c 1
 120 650 217 645 264 645 c 2
 485 645 l 2
 515 645 546 647 558 647 c 0
 566 647 571 643 571 636 c 0
 571 625 568.1 618.2 547 591 c 0
 429 439 245 178 172 72 c 0
 167 63 164 57 164 52 c 0
 164 43 172 37.6 189 38 c 2
 382 42 l 2
 491 44 516 99 547 170 c 1
 560 170 571 167 578 165 c 1
 566 113 556 54 551 -2 c 1
EndSplineSet
Position2: "'cpsp' Versalabstaende 1" dx=2 dy=0 dh=5 dv=0
EndChar

StartChar: bracketleft
Encoding: 91 91 276
Width: 356
GlyphClass: 2
Flags: MW
LayerCount: 2
Fore
SplineSet
108 -193 m 1
 108 703 l 1
 320 703 l 1
 326 697 326 679 320 673 c 1
 183 663 175 648 175 561 c 2
 175 -50 l 2
 175 -137 182 -152 320 -163 c 1
 326 -169 326 -187 320 -193 c 1
 108 -193 l 1
EndSplineSet
EndChar

StartChar: backslash
Encoding: 92 92 277
Width: 287
GlyphClass: 2
Flags: MW
LayerCount: 2
Fore
SplineSet
55 698 m 1
 285 -48 l 1
 241 -48 l 1
 11 698 l 1
 55 698 l 1
EndSplineSet
EndChar

StartChar: bracketright
Encoding: 93 93 278
Width: 356
GlyphClass: 2
Flags: MW
LayerCount: 2
Fore
SplineSet
248 704 m 1
 248 -192 l 1
 36 -192 l 1
 30 -186 30 -168 36 -162 c 1
 173 -152 181 -137 181 -50 c 2
 181 561 l 2
 181 648 174 663 36 674 c 1
 30 680 30 698 36 704 c 1
 248 704 l 1
EndSplineSet
Colour: ff00ff
EndChar

StartChar: underscore
Encoding: 95 95 280
Width: 486
GlyphClass: 2
Flags: MW
LayerCount: 2
Fore
SplineSet
476 -110 m 1
 484 -118 484 -146 476 -154 c 1
 10 -154 l 1
 2 -146 2 -118 10 -110 c 1
 476 -110 l 1
EndSplineSet
EndChar

StartChar: a
Encoding: 97 97 281
Width: 457
GlyphClass: 2
Flags: MW
AnchorPoint: "ogonek" 410 16 basechar 0
AnchorPoint: "cedilla" 167 -3 basechar 0
AnchorPoint: "below" 196 -110 basechar 0
AnchorPoint: "above" 209 645 basechar 0
LayerCount: 2
Fore
SplineSet
293 233 m 1
 214 212 l 2
 140 193 119 147 119 102 c 0
 119 71 141 31 191 31 c 0
 219 31 253 54 279 75 c 0
 287 81 293 88 293 101 c 2
 293 233 l 1
293 48 m 1
 291 48 l 1
 271 32 l 2
 227 -2 196.8 -10 162 -10 c 0
 92 -10 36 16 36 98 c 0
 36 166 105 219 201 243 c 2
 287 264 l 2
 290 265 293 269 293 276 c 0
 293 389 246 406 212 406 c 0
 174 406 132 395 132 364 c 0
 132 353 133 347 134 344 c 0
 136 340 137 333 137 326 c 0
 137 313 119 292 90 292 c 0
 67 292 55 304 55 328 c 0
 55 385 138 439 220 439 c 0
 293 439 371 412 371 270 c 2
 371 123 l 2
 371 77 372 38 401 38 c 0
 413.7 38 430.5 47.8 438 54 c 1
 449.3 47.7 453.3 39.3 455 27 c 1
 434.3 7 398.3 -10 360 -10 c 0
 309.6 -10 299 17 293 48 c 1
EndSplineSet
EndChar

StartChar: b
Encoding: 98 98 282
Width: 493
GlyphClass: 2
Flags: MW
AnchorPoint: "middle" 236 215 basechar 0
AnchorPoint: "right" 420 580 basechar 0
AnchorPoint: "below" 234 -110 basechar 0
LayerCount: 2
Fore
SplineSet
174 363 m 0
 161.1 351.6 157 342 157 321 c 2
 157 71 l 1
 177 46 198 24 229 24 c 0
 324 24 370 110 370 224 c 0
 370 321 320 395 259 395 c 0
 230 395 200 386 174 363 c 0
167 394 m 0
 198 422 236.1 439 279 439 c 0
 366 439 456 364 456 242 c 0
 456 83 337 -10 235 -10 c 0
 199.7 -10 169.9 -4.5 147 14.8 c 0
 136 24 130 24 119.7 12 c 0
 112 3.1 102.1 -6.2 96 -12 c 1
 84 -12 79 -8 74 0 c 1
 77 14 78 32 78 71 c 2
 78 559 l 2
 78 643 66 638 14 641 c 1
 8 647 6 663 8 671 c 1
 48 674 123 688 148 698 c 1
 157 698 161 695 161 688 c 2
 161 688 157 648 157 583 c 2
 157 399 l 2
 157 390 160.7 388.3 167 394 c 0
EndSplineSet
EndChar

StartChar: c
Encoding: 99 99 283
Width: 428
GlyphClass: 2
Flags: MW
AnchorPoint: "middle" 236 215 basechar 0
AnchorPoint: "ogonek" 361 42 basechar 0
AnchorPoint: "cedilla" 242 -2 basechar 0
AnchorPoint: "below" 236 -110 basechar 0
AnchorPoint: "above" 242 645 basechar 0
LayerCount: 2
Fore
SplineSet
398 91 m 1
 348 9 295 -10 235 -10 c 0
 109 -10 37 79 37 208 c 0
 37 350 143 439 242 439 c 0
 338 439 395 399 395 344 c 0
 395 313 367 300 346 300 c 0
 325 300 311 309 308 336 c 0
 304 371 296 406 237 406 c 0
 171 406 123 340 123 230 c 0
 123 113 184 39 257 39 c 0
 300 39 343 61 377 105 c 1
 386 104 394 100 398 91 c 1
EndSplineSet
EndChar

StartChar: d
Encoding: 100 100 284
Width: 506
GlyphClass: 2
Flags: MW
AnchorPoint: "middle" 236 215 basechar 0
AnchorPoint: "komb_OR" 500 466 basechar 0
AnchorPoint: "right" 490 580 basechar 0
AnchorPoint: "above" 218 645 basechar 0
AnchorPoint: "ogonek" 312 20 basechar 0
AnchorPoint: "below" 221 -110 basechar 0
LayerCount: 2
Fore
SplineSet
345 124 m 2
 345 314 l 2
 345 345 342 352 328 368 c 0
 308 391 283 404 247 404 c 0
 227 404 185 401 154 354 c 0
 139 333 125 293 125 221 c 0
 125 96 181 37 235 37 c 0
 260 37 292 53 329 85 c 0
 343.1 97.2 345 105 345 124 c 2
334 50.3 m 0
 285 10 248 -10 209 -10 c 0
 101 -10 39 80 39 203 c 0
 39 277 65 336 108 379 c 1
 148 417 192 439 258 439 c 0
 291 439 332 422 336 422 c 0
 343 422 345 424 345 431 c 2
 345 559 l 2
 345 643 333 638 281 641 c 1
 275 647 273 663 275 671 c 1
 315 674 390 688 415 698 c 1
 424 698 428 695 428 688 c 2
 428 688 424 648 424 583 c 2
 424 130 l 2
 424 81 433 62 497 57 c 1
 503 51 503 36 497 30 c 1
 436 23 401 8 379 -10 c 1
 373 -12.5 368 -13 360 -10 c 1
 360 -10 351.5 24.5 349 49 c 0
 348.3 56 338.8 54.2 334 50.3 c 0
EndSplineSet
EndChar

StartChar: e
Encoding: 101 101 285
Width: 447
GlyphClass: 2
Flags: MW
AnchorPoint: "middle" 236 215 basechar 0
AnchorPoint: "komb_OR" 420 396 basechar 0
AnchorPoint: "cedilla" 241 -3 basechar 0
AnchorPoint: "ogonek" 384.3 41 basechar 0
AnchorPoint: "above" 242.6 645 basechar 0
AnchorPoint: "below" 234.2 -110 basechar 0
LayerCount: 2
Fore
SplineSet
124 282 m 1
 305 285 l 2
 316 285.2 320 290 320 299 c 0
 320 383 275 404 237 404 c 0
 213 404 143 395 124 282 c 1
386 93 m 1
 398 92 404 87 407 77 c 1
 367 25 313 -10 237 -10 c 0
 165 -10 118 14 84 54 c 0
 51 92 37 146 37 202 c 0
 37 354 150 437 237 437 c 0
 376 437 406 347 406 263 c 0
 406 252 399 246 387 246 c 2
 121 248 l 1
 121 190 133 144 153 111 c 0
 184 60 226 39 262 39 c 0
 320 39 349 55 386 93 c 1
EndSplineSet
EndChar

StartChar: f
Encoding: 102 102 286
Width: 310
GlyphClass: 2
Flags: MW
AnchorPoint: "middle" 136 215 basechar 0
AnchorPoint: "right" 410 750 basechar 0
AnchorPoint: "below" 132 -110 basechar 0
LayerCount: 2
Fore
SplineSet
175 122 m 2
 175 39 181 35 259 31 c 1
 265 25 265 4 259 -2 c 1
 224 -1 176 0 136 0 c 0
 96 0 61 -1 26 -2 c 1
 20 4 20 25 26 31 c 1
 80 35 96 39 96 122 c 2
 96 390 l 1
 27 390 l 2
 23 390 22 391 22 396 c 2
 22 409 l 2
 22 417 27 429 45 429 c 2
 96 429 l 1
 96 469 l 2
 96 625 189 698 273 698 c 0
 311 698 337 695 363 677 c 1
 384 661 395 643 395 626 c 0
 395 606 371 585 354 585 c 0
 333 585 322 599 314 617 c 0
 300 652 284 664 254 664 c 0
 221 664 175 640 175 486 c 2
 175 429 l 1
 283 429 l 2
 288 429 291 427 291 423 c 2
 291 403 l 2
 291 394 277 390 268 390 c 2
 175 390 l 1
 175 122 l 2
EndSplineSet
EndChar

StartChar: g
Encoding: 103 103 287
Width: 500
GlyphClass: 2
Flags: MW
AnchorPoint: "middle" 227 285 basechar 0
AnchorPoint: "right" 492 580 basechar 0
AnchorPoint: "below" 229 -319 basechar 0
AnchorPoint: "above" 231 645 basechar 0
LayerCount: 2
Fore
SplineSet
319 279 m 0
 319 362 285 408 222 408 c 0
 167 408 142 372 142 302 c 0
 142 238 151 167 235 167 c 0
 272 167 319 186 319 279 c 0
132 -10 m 1
 103 -45 101 -70 101 -104 c 0
 101 -172 185 -201 221 -201 c 0
 311 -201 417 -163 417 -91 c 0
 417 -65 405 -51 366 -29 c 0
 337 -13 295 -12 245 -12 c 0
 231 -12 203 -15 172 -15 c 0
 159 -15 143 -13 132 -10 c 1
444 387 m 0
 433 387 420 397 416 405 c 1
 410 414 403 417 396 417 c 0
 383 417 363 403 356 393 c 1
 385 363 399 336 399 289 c 0
 399 191 318 136 230 136 c 0
 191 136 163 143 139 157 c 1
 127 140 121 119 121 99 c 0
 121 56 156 42 185 42 c 0
 190 42 200 43 215 44 c 0
 239 47 264 49 282 49 c 0
 319 49 389 48 428 16 c 0
 457 -8 472 -33 472 -65 c 0
 472 -173 326 -238 191 -238 c 0
 114 -238 32 -211 32 -124 c 0
 32 -81 60 -35 114 -3 c 1
 88 10 68 38 68 74 c 0
 68 108 84 151 112 175 c 1
 84 202 60 233 60 287 c 0
 60 379 142 439 231 439 c 0
 290 439 323 419 335 411 c 1
 361 445 409 462 435 462 c 0
 462 462 481 446 481 425 c 0
 481 405 463 387 444 387 c 0
EndSplineSet
EndChar

StartChar: h
Encoding: 104 104 288
Width: 538
GlyphClass: 2
Flags: MW
AnchorPoint: "middle" 264 215 basechar 0
AnchorPoint: "right" 429 580 basechar 0
AnchorPoint: "ogonek" 423 10 basechar 0
AnchorPoint: "above" 299 645 basechar 0
AnchorPoint: "below" 272 -110 basechar 0
LayerCount: 2
Fore
SplineSet
167 285.9 m 2
 167 122 l 2
 167 39 176 35 226.8 31 c 1
 232.8 25 232.8 4 226.8 -2 c 1
 198.8 -1 166 0 128 0 c 0
 88 0 51.2 -1 18.2 -2 c 1
 12.2 4 12.2 25 18.2 31 c 1
 76.2 35 88 39 88 122 c 2
 88 559 l 2
 88 643 76 638 24 641 c 1
 18 647 16 663 18 671 c 1
 58 674 133 688 158 698 c 1
 167 698 171 695 171 688 c 2
 171 688 167 648 167 583 c 2
 166.2 358 l 2
 166.2 344 172.6 354.2 176 358 c 0
 237 426 296.9 439 346 439 c 0
 381 439 412.2 427 429 405 c 0
 452.3 374.5 456 326 456 271 c 2
 456 122 l 2
 456 40 467 36 523 31 c 1
 528 25 528 4 523 -2 c 1
 490 -1 457 0 417 0 c 0
 377 0 343 -1 315 -2 c 1
 310 4 310 25 315 31 c 1
 367 36 377 40 377 122 c 2
 377 274 l 2
 377 304 375 331.2 365 351 c 0
 353.4 373.9 332.4 387 312 387 c 0
 272.6 387 222 365.3 184 328 c 0
 176 319.3 167 307 167 285.9 c 2
EndSplineSet
EndChar

StartChar: k
Encoding: 107 107 291
Width: 512
GlyphClass: 2
Flags: MW
AnchorPoint: "right" 535.6 696.4 basechar 0
AnchorPoint: "cedilla" 107.9 -57.3 basechar 0
AnchorPoint: "above" 305.9 783.5 basechar 0
AnchorPoint: "below" 290.1 -214.4 basechar 0
LayerCount: 2
Fore
SplineSet
86 122 m 2
 86 559 l 2
 86 643 74 638 22 641 c 1
 16 647 14 663 16 671 c 1
 56 674 131 688 156 698 c 1
 165 698 169 695 169 688 c 2
 169 688 165 648 165 583 c 2
 165 234.2 l 1
 183.9 236.8 210.8 248.6 233 265 c 0
 258.7 284 290 318 313 347 c 0
 322.3 358.7 346 394 290 398 c 1
 284 404 284 425 290 431 c 1
 313 430 350 429 388 429 c 0
 424 429 452 430 475 431 c 1
 481 425 481 404 475 398 c 1
 435 394 400 386 370 354 c 2
 282 263 l 2
 278 259 278 257 278 253 c 0
 278 248 281.4 243.5 285 239 c 2
 417 73 l 2
 443.7 39.4 469 35 503 31 c 1
 509 25 509 4 503 -2 c 1
 483 -1 452 0 421 0 c 0
 401 0 379 -1 359 -2 c 0
 356 -2 355.3 0 355 3 c 0
 353.7 14.7 342.4 33.5 313 73 c 2
 240 171 l 2
 228.1 187 219 196 208 203.5 c 1
 198.3 206.9 184.2 208.4 165 208.9 c 1
 165 122 l 2
 165 39 176 35 217 31 c 1
 223 25 223 4 217 -2 c 1
 194 -1 161 0 126 0 c 0
 86 0 52 -1 19 -2 c 1
 13 4 13 25 19 31 c 1
 75 35 86 39 86 122 c 2
EndSplineSet
EndChar

StartChar: uni02E1
Encoding: 737 737 292
Width: 161
GlyphClass: 2
Flags: MW
LayerCount: 2
Fore
SplineSet
55 440 m 2
 55 651 l 2
 55 703 47 699 15 701 c 1
 11 705 11 717 12 722 c 1
 37 724 82 733 98 739 c 1
 104 739 106 737 106 733 c 2
 106 733 104 707 104 667 c 2
 104 440 l 2
 104 389 111 387 144 385 c 1
 148 381 148 367 144 363 c 1
 122 364 105 364 80 364 c 0
 55 364 36 364 15 363 c 1
 11 367 11 379 15 383 c 1
 48 385 55 389 55 440 c 2
EndSplineSet
Colour: ff00ff
EndChar

StartChar: m
Encoding: 109 109 293
Width: 790
GlyphClass: 2
Flags: MW
AnchorPoint: "middle" 278 215 basechar 0
AnchorPoint: "cedilla" 137 9 basechar 0
AnchorPoint: "above" 392 645 basechar 0
AnchorPoint: "below" 408 -110 basechar 0
LayerCount: 2
Fore
SplineSet
170 358 m 0
 170.5 346 177.4 352.9 182 358 c 0
 223.7 404.6 276 439 334 439 c 0
 386 439 424.5 406.6 434 365.6 c 0
 436 357 442 362 445 365.2 c 0
 497.1 420.2 558.8 439 610 439 c 0
 698 439 713 369 713 280 c 2
 713 122 l 2
 713 40 722 35 777 31 c 1
 782 25 782 4 777 -2 c 1
 749 -1 714 0 674 0 c 0
 634 0 597 -1 572 -2 c 1
 567 4 567 25 572 31 c 1
 624 35 634 40 634 122 c 2
 634 298 l 2
 634 365 612 387 574 387 c 0
 535 387 490 374 442 321 c 1
 443 309 443 295 443 281 c 2
 443 122 l 2
 443 40 452 35 502 31 c 1
 507 25 507 4 502 -2 c 1
 477 -1 444 0 404 0 c 0
 364 0 327 -1 302 -2 c 1
 297 4 297 25 302 31 c 1
 356 35 364 40 364 122 c 2
 364 296 l 2
 364 363 336 387 298 387 c 0
 267.1 387 229.6 366.7 190 328 c 0
 182 319.3 173 307 173 286 c 2
 173 122 l 2
 173 40 184 36 234.8 31 c 1
 240.8 25 240.8 4 234.8 -2 c 1
 204.8 -1 174 0 134 0 c 0
 94 0 56 -1 26 -2 c 1
 20 4 20 25 26 31 c 1
 81 35 94 40 94 122 c 2
 94 317 l 2
 94 375 83 380 29 385 c 1
 27 391 25 407 27 413 c 1
 96 422 122 431 150 442 c 1
 158 442 159.9 438.6 162 434 c 0
 166.7 423.7 168.7 387.7 170 358 c 0
EndSplineSet
EndChar

StartChar: n
Encoding: 110 110 294
Width: 542
GlyphClass: 2
Flags: MW
AnchorPoint: "middle" 264 215 basechar 0
AnchorPoint: "cedilla" 136 9 basechar 0
AnchorPoint: "below" 265 -110 basechar 0
AnchorPoint: "above" 264 646 basechar 0
LayerCount: 2
Fore
SplineSet
184 358 m 0
 243.3 426 299 439 348 439 c 0
 383 439 414 427 431 405 c 0
 454 374 458 326 458 271 c 2
 458 122 l 2
 458 40 469 36 525 31 c 1
 530 25 530 4 525 -2 c 1
 495 -1 459 0 419 0 c 0
 379 0 347 -1 317 -2 c 1
 312 4 312 25 317 31 c 1
 369 36 379 40 379 122 c 2
 379 274 l 2
 379 304 377 331 367 351 c 0
 355 374 334 387 314 387 c 0
 275 387 230 365 192 328 c 0
 184 319 175 307 175 286 c 2
 175 122 l 2
 175 40 185 36 236 31 c 1
 242 25 242 4 236 -2 c 1
 206 -1 176 0 136 0 c 0
 96 0 56 -1 26 -2 c 1
 20 4 20 25 26 31 c 1
 86 36 96 40 96 122 c 2
 96 317 l 2
 96 375 85 380 31 385 c 1
 29 391 27 407 29 413 c 1
 98 422 124 431 152 442 c 1
 160 442 161.9 438.6 164 434 c 0
 168.7 423.7 171 385 172 358 c 0
 172.3 348.6 177.9 351 184 358 c 0
EndSplineSet
EndChar

StartChar: o
Encoding: 111 111 295
Width: 504
GlyphClass: 2
Flags: MW
AnchorPoint: "middle" 236 215 basechar 0
AnchorPoint: "komb_OR" 420 396 basechar 0
AnchorPoint: "cedilla" 241 -3 basechar 0
AnchorPoint: "ogonek" 372 44 basechar 0
AnchorPoint: "below" 243 -110 basechar 0
AnchorPoint: "above" 238 645 basechar 0
LayerCount: 2
Fore
SplineSet
41 205 m 0
 41 268.2 60 326.4 96.3 369 c 0
 132.9 412 187.2 439 253 439 c 0
 406 439 463 318 463 214 c 0
 463 152.7 442.7 89.8 397.9 46 c 0
 363.8 12.7 315.4 -10 251 -10 c 0
 109 -10 41 103 41 205 c 0
238 404 m 0
 148 404 127 315 127 228 c 0
 127 151 161 25 265 25 c 0
 312 25 377 56 377 182 c 0
 377 326 324 404 238 404 c 0
EndSplineSet
EndChar

StartChar: p
Encoding: 112 112 296
Width: 519
GlyphClass: 2
Flags: MW
AnchorPoint: "middle" 246 215 basechar 0
AnchorPoint: "right" 429 580 basechar 0
AnchorPoint: "below" 179 -319 basechar 0
AnchorPoint: "above" 271 646 basechar 0
LayerCount: 2
Fore
SplineSet
175 331 m 0
 163.4 316.7 159 308 159 287 c 2
 159 105 l 2
 159 68.9 162.9 63.1 183 45.1 c 0
 201 29 236 24 254 24 c 0
 366 24 395 126 395 208 c 0
 395 321 340 393 276 393 c 0
 246.8 393 201 363 175 331 c 0
156 368 m 0
 156.5 358.4 161.4 357.7 167 364 c 0
 206.5 408.5 257.5 439 304 439 c 0
 406 439 481 341 481 235 c 0
 481 154 454 92 407 46 c 0
 366 7 316 -10 260 -10 c 0
 228.4 -10 197.5 -4.4 173 5.5 c 0
 162.8 9.7 159 11 159 -2 c 2
 159 -110 l 2
 159 -193 170 -197 241 -201 c 1
 247 -207 247 -228 241 -234 c 1
 208 -233 160 -232 120 -232 c 0
 80 -232 43 -233 8 -234 c 1
 2 -228 2 -207 8 -201 c 1
 69 -198 80 -193 80 -110 c 2
 80 317 l 2
 80 375 69 380 15 385 c 1
 13 391 11 407 13 413 c 1
 82 422 108 431 136 442 c 1
 144 442 145.9 438.6 148 434 c 0
 152.7 423.7 154.5 398 156 368 c 0
EndSplineSet
EndChar

StartChar: q
Encoding: 113 113 297
Width: 503
GlyphClass: 2
Flags: MW
AnchorPoint: "middle" 236 215 basechar 0
AnchorPoint: "right" 469 732 basechar 0
AnchorPoint: "below" 348 -319 basechar 0
AnchorPoint: "above" 238 645 basechar 0
LayerCount: 2
Fore
SplineSet
322 368.4 m 0
 300.1 392.9 273.4 405 243 405 c 0
 163 405 121 331 121 227 c 0
 121 76 208 34 266 34 c 0
 281.8 34 308.6 35.1 332 47.2 c 0
 345 54 346 59 346 77 c 2
 346 307 l 2
 346 331.1 342 346 322 368.4 c 0
346 -111 m 2
 346 0 l 2
 346 21 342 19 319 5.6 c 0
 301.9 -4.4 269 -10 242 -10 c 0
 98 -10 35 114 35 207 c 0
 35 339 125 439 247 439 c 0
 289.4 439 328.4 430.3 360 409.8 c 0
 372 402 376 405 389 423 c 0
 397.1 434.3 403 442 410 442 c 0
 421 442 425 431 425 417 c 2
 425 -111 l 2
 425 -194 436 -198 497 -201 c 1
 503 -207 503 -228 497 -234 c 1
 464 -233 426 -232 386 -232 c 0
 346 -232 309 -233 274 -234 c 1
 268 -228 268 -207 274 -201 c 1
 335 -198 346 -194 346 -111 c 2
EndSplineSet
EndChar

StartChar: r
Encoding: 114 114 298
Width: 372
GlyphClass: 2
Flags: MW
AnchorPoint: "middle" 136 185 basechar 0
AnchorPoint: "right" 349 580 basechar 0
AnchorPoint: "cedilla" 134 7 basechar 0
AnchorPoint: "above" 191 646 basechar 0
AnchorPoint: "below" 135 -110 basechar 0
LayerCount: 2
Fore
SplineSet
176 358 m 0
 176.2 353 181 345 187 356 c 0
 210 395 251 439 298 439 c 0
 340 439 358 410.1 358 391 c 0
 358 366 335 341 311 341 c 0
 293.6 341 282.4 354.3 274.8 364.3 c 0
 267 374.6 258 377 249 377 c 0
 237 377 214 344 203 328 c 0
 191 310 179 287 179 261 c 2
 179 122 l 2
 179 39 191 36 261 31 c 1
 267 25 267 4 261 -2 c 1
 226 -1 180 0 140 0 c 0
 100 0 61 -1 26 -2 c 1
 20 4 20 25 26 31 c 1
 88 35 100 39 100 122 c 2
 100 317 l 2
 100 375 89 380 35 385 c 1
 33 391 31 407 33 413 c 1
 102 422 128 431 156 442 c 1
 164 442 165.9 438.6 168 434 c 0
 172.7 423.7 174.3 398 176 358 c 0
EndSplineSet
EndChar

StartChar: uni02E2
Encoding: 738 738 299
Width: 253
GlyphClass: 2
Flags: MW
AnchorPoint: "above" 128 805 basechar 0
LayerCount: 2
Fore
SplineSet
28 458 m 1
 50 458 l 1
 51 444 57 417 73 401 c 0
 80 395 99 383 122 383 c 0
 146 383 170 394 170 421 c 0
 170 442 162 462 112 483 c 0
 66 502 35 518 35 563 c 0
 35 605 80 637 129 637 c 0
 160 637 199 627 210 620 c 1
 219 545 l 1
 196 544 l 1
 182 602 148 612 129 612 c 0
 104 612 83 599 83 572 c 0
 83 548 93 539 127 525 c 0
 178 504 224 485 224 435 c 0
 224 374 158 358 124 358 c 0
 94 358 72 372 52 372 c 0
 49 372 39 371 33 370 c 1
 33 394 31 426 28 458 c 1
EndSplineSet
Colour: ff00ff
EndChar

StartChar: t
Encoding: 116 116 300
Width: 316
GlyphClass: 2
Flags: MW
AnchorPoint: "middle" 127 215 basechar 0
AnchorPoint: "right" 279 580 basechar 0
AnchorPoint: "cedilla" 165 -3 basechar 0
AnchorPoint: "ogonek" 237 15 basechar 0
AnchorPoint: "below" 163 -110 basechar 0
LayerCount: 2
Fore
SplineSet
43 429 m 2
 89 429.1 l 1
 89 540 86 533.4 86 545 c 0
 86 551.9 96 555.3 108 558.7 c 0
 120.5 562.2 130.7 566.5 142 572.8 c 0
 151.3 577.9 159.8 581.8 164.3 581.8 c 0
 169 581.8 172 579.4 172 573 c 2
 172 573 168 533 168 468 c 2
 168 429 l 1
 288 429 l 2
 293 429 296 427 296 423 c 2
 296 403 l 2
 296 394 282 390 272 390 c 2
 168 390 l 1
 168 137 l 2
 168 75 174 45 201 45 c 0
 227 45 257 53 283 73 c 1
 293 72 299 66.3 301 56 c 1
 262 12 212 -10 166 -10 c 0
 120 -10 89 18 89 89 c 2
 89 390 l 1
 30 390 l 2
 26 390 25 391 25 396 c 2
 25 409 l 2
 25 417 29 429 43 429 c 2
EndSplineSet
EndChar

StartChar: u
Encoding: 117 117 301
Width: 531
GlyphClass: 2
Flags: MW
AnchorPoint: "middle" 252 215 basechar 0
AnchorPoint: "cedilla" 213 0 basechar 0
AnchorPoint: "ogonek" 293 7 basechar 0
AnchorPoint: "below" 239 -110 basechar 0
AnchorPoint: "above" 255 645 basechar 0
LayerCount: 2
Fore
SplineSet
217 -10 m 0
 118 -10 88 57 88 126 c 2
 88 318 l 2
 88 383 74 394 26 398 c 1
 20 404 20 425 26 431 c 1
 60 430 96 429 128 429 c 0
 143 429 158 430 163 431 c 0
 168 431 171 428 171 425 c 2
 171 425 167 352 167 322 c 2
 167 140 l 2
 167 51 217 37 247 37 c 0
 272 37 310 53 347 85 c 0
 361 97 363 105 363 124 c 2
 363 317 l 2
 363 383 350 395 301 398 c 1
 295 404 295 425 301 431 c 1
 335 430 371 429 403 429 c 0
 418 429 433 430 438 431 c 0
 443 431 446 428 446 425 c 2
 446 425 442 352 442 322 c 2
 442 130 l 2
 442 81 451 62 515 57 c 1
 521 51 521 36 515 30 c 1
 454 23 419 8 397 -10 c 1
 390.5 -12.5 386 -13 378 -10 c 1
 378 -10 369.5 23.5 367 49 c 0
 366.3 56 357 54 352 50 c 0
 303 10 256 -10 217 -10 c 0
EndSplineSet
EndChar

StartChar: v
Encoding: 118 118 302
Width: 497
GlyphClass: 2
Flags: MW
AnchorPoint: "middle" 247 267 basechar 0
AnchorPoint: "right" 460 580 basechar 0
AnchorPoint: "above" 256 646 basechar 0
AnchorPoint: "below" 241 -110 basechar 0
LayerCount: 2
Fore
SplineSet
325 398 m 1
 319 404 319 425 325 431 c 1
 350 430 384 429 417 429 c 0
 443 429 467 430 487 431 c 1
 493 425 493 404 487 398 c 1
 431 393 420.1 367.9 401.4 324 c 2
 268 11 l 2
 260.9 -5.6 254 -12 244 -12 c 0
 231 -12 225 -6 219 9 c 2
 91.4 325 l 2
 71 375.6 64 391.7 11 398 c 1
 5 404 5 425 11 431 c 1
 41 430 71 429 104 429 c 0
 137 429 172 430 205 431 c 1
 211 425 211 404 205 398 c 1
 151.7 391 156 379 173.9 331 c 2
 246 138 l 2
 261.6 96.2 266.8 95.5 283 135 c 2
 363.7 331 l 2
 384.6 381.8 379 394 325 398 c 1
EndSplineSet
EndChar

StartChar: w
Encoding: 119 119 303
Width: 747
GlyphClass: 2
Flags: MW
AnchorPoint: "right" 719 580 basechar 0
AnchorPoint: "above" 345 646 basechar 0
AnchorPoint: "below" 352 -110 basechar 0
LayerCount: 2
Fore
SplineSet
203 398 m 1
 155 395 154 379 172.9 331 c 2
 252.9 125 l 2
 265.8 92.5 268 94 281 127 c 2
 351 304 l 1
 344.6 320 l 2
 326.7 364.8 315 393.5 268 398 c 1
 262 404 262 425 268 431 c 1
 298 430 331 429 356 429 c 0
 386 429 426 430 456 431 c 1
 462 425 462 404 456 398 c 1
 403 394 401 384 419.5 337 c 2
 505.8 118 l 2
 514 97.2 518 97 528 122 c 2
 611.6 330 l 2
 625.7 365.1 636 394 561 398 c 1
 555 404 555 425 561 431 c 1
 591 430 633 429 663 429 c 0
 693 429 715 430 735 431 c 1
 741 425 741 404 735 398 c 1
 684 395 667 366.9 650.6 326 c 2
 520 9 l 2
 514 -6 506 -12 497 -12 c 0
 487 -12 479 -6 473 8 c 2
 370 256 l 1
 269 10 l 2
 262 -6 254 -12 245 -12 c 0
 235 -12 227 -6 221 8 c 2
 90.1 331 l 2
 69 383 58.1 393.2 11 398 c 1
 5 404 5 425 11 431 c 1
 37.2 430 64 429 102 429 c 0
 138 429 173 430 203 431 c 1
 209 425 209 404 203 398 c 1
EndSplineSet
EndChar

StartChar: uni02E3
Encoding: 739 739 304
Width: 307
GlyphClass: 2
Flags: MW
AnchorPoint: "above" 158 805 basechar 0
LayerCount: 2
Fore
SplineSet
234.2 569 m 2
 182 502 l 1
 234.2 428 l 2
 260.5 390.7 266.9 387.8 295 386 c 1
 299 382 299 368 295 364 c 1
 277 365 262 366 239 366 c 0
 215 366 189 365 171 364 c 1
 167 368 167 382 171 386 c 1
 200 387 197 395 185 414 c 2
 185 414 158 456 153 464 c 1
 137 443 113 414 113 414 c 2
 99 396 98 387 127 386 c 1
 131 382 131 368 127 364 c 1
 109 365 93 366 69 366 c 0
 46 366 39 365 21 364 c 1
 17 368 17 382 21 386 c 1
 49.1 387.8 51.4 392.5 81.8 428 c 2
 81.8 428 131 486 134 489 c 1
 77.8 569 l 2
 51.2 606.8 50.1 609.2 22 611 c 1
 18 615 18 629 22 633 c 1
 40 632 50 631 73 631 c 0
 97 631 126 632 144 633 c 1
 148 629 148 615 144 611 c 1
 115 610 115 603 127 583 c 2
 163 526 l 1
 203 582 204 583 204 583 c 2
 217.2 601.8 219 610 190 611 c 1
 186 615 186 629 190 633 c 1
 208 632 223 631 247 631 c 0
 270 631 277 632 295 633 c 1
 299 629 299 615 295 611 c 1
 266.9 609.2 262.2 604.9 234.2 569 c 2
EndSplineSet
Colour: ff00ff
EndChar

StartChar: y
Encoding: 121 121 305
Width: 515
GlyphClass: 2
Flags: MW
AnchorPoint: "above" 262 645 basechar 0
AnchorPoint: "below" 242 -319 basechar 0
LayerCount: 2
Fore
SplineSet
204 -160 m 0
 168 -224 128 -232 107 -232 c 0
 80 -232 60 -216 60 -195 c 0
 60 -182 75 -152 104 -152 c 0
 115 -152 119 -155 133 -155 c 0
 158 -155 172 -146 183 -126 c 1
 198 -95 210.1 -67.4 222 -34 c 0
 232 -6 216.7 39.9 208 60 c 2
 94.9 323 l 2
 68.7 384 55.7 393 16 398 c 1
 10 404 10 425 16 431 c 1
 36 430 63 429 97 429 c 0
 133 429 173 430 210 431 c 1
 216 425 216 404 210 398 c 1
 154 393.7 159.2 375.2 177.2 333 c 2
 265.9 125 l 2
 274.4 105.2 282.8 107.9 289.8 124 c 2
 389 353 l 2
 405 389 372.6 395 341 398 c 1
 335 404 335 425 341 431 c 1
 371 430 402 429 432 429 c 0
 460 429 483 430 503 431 c 1
 509 425 509 404 503 398 c 1
 456 392.3 441.7 376.3 422 334 c 0
 369.8 221.6 325 119 245 -74 c 0
 232.7 -103.6 219.6 -132.2 204 -160 c 0
EndSplineSet
EndChar

StartChar: z
Encoding: 122 122 306
Width: 424
GlyphClass: 2
Flags: MW
AnchorPoint: "middle" 207 215 basechar 0
AnchorPoint: "right" 399 580 basechar 0
AnchorPoint: "above" 220 646 basechar 0
AnchorPoint: "cedilla" 208 4 basechar 0
AnchorPoint: "below" 207 -110 basechar 0
LayerCount: 2
Fore
SplineSet
71 439 m 0
 85.5 433.6 97.9 429 130 429 c 2
 313 429 l 2
 342 429 370 431 375 431 c 0
 382 431 387 428 387 424 c 0
 387 420 384.3 412.2 369 387 c 0
 307 285 203 128 129 34 c 1
 262 34 l 1
 314.1 35.2 334.5 57.2 360 110 c 2
 374 139 l 1
 386 139 397.5 136.7 404 133 c 1
 397 83 384 31 372 -3 c 1
 60 0 l 2
 45 0 37 5 37 12 c 0
 37 17 37.4 20.4 46 32 c 0
 124 137 224 281 292 395 c 1
 164 392 l 2
 134 391.3 103 374 83 301 c 1
 71.4 298.4 58.8 300.3 50 304 c 1
 59 353 64 388 65 433 c 0
 65 435.4 68.6 439 71 439 c 0
EndSplineSet
EndChar

StartChar: braceleft
Encoding: 123 123 307
Width: 277
GlyphClass: 2
Flags: MW
LayerCount: 2
Fore
SplineSet
178 552 m 2
 186 386 l 2
 190.3 297 148.2 268.2 81 249 c 1
 81 245 l 1
 148.8 216.8 190.4 177.3 186 95 c 2
 178 -54 l 2
 173.5 -138 214 -188 258 -188 c 1
 264 -194 264 -206 258 -212 c 1
 157 -212 101 -179 106 -49 c 2
 112 121 l 2
 114 182 87.5 226 14 235 c 1
 6 243 5 250 14 259 c 1
 88 266 112 320 112 370 c 1
 106 554 l 2
 102 667 168 707 258 707 c 1
 264 701 264 689 258 683 c 1
 220 672 173 654.9 178 552 c 2
EndSplineSet
EndChar

StartChar: bar
Encoding: 124 124 308
Width: 205
GlyphClass: 2
Flags: MW
LayerCount: 2
Fore
SplineSet
125 -232 m 1
 81 -232 l 1
 81 698 l 1
 125 698 l 1
 125 -232 l 1
EndSplineSet
EndChar

StartChar: braceright
Encoding: 125 125 309
Width: 277
GlyphClass: 2
Flags: MW
LayerCount: 2
Fore
SplineSet
95 -58 m 2
 87 108 l 2
 82.7 197 124.8 225.8 192 245 c 1
 192 249 l 1
 124.2 277.2 82.6 316.7 87 399 c 2
 95 548 l 2
 99.5 632 59 682 15 682 c 1
 9 688 9 700 15 706 c 1
 116 706 172 673 167 543 c 2
 161 373 l 2
 159 312 185.5 268 259 259 c 1
 267 251 268 244 259 235 c 1
 185 228 161 174 161 124 c 1
 167 -60 l 2
 171 -173 105 -213 15 -213 c 1
 9 -207 9 -195 15 -189 c 1
 53 -178 100 -160.9 95 -58 c 2
EndSplineSet
Colour: ff00ff
EndChar

StartChar: asciitilde
Encoding: 126 126 310
Width: 449
GlyphClass: 2
Flags: MW
LayerCount: 2
Fore
SplineSet
26 209 m 1
 39 274 93 337 154 337 c 0
 177 337 204.5 323.2 229 305 c 0
 256 285 279 272 301 272 c 0
 329 272 378 289 400 339 c 1
 408 339 413.7 337.1 417 333 c 1
 386 226 321 213 297 213 c 0
 274 213 245 228 221 246 c 0
 196.8 264.1 173 278 148 278 c 0
 113 278 66 249 43 205 c 1
 37 205 31.7 206 26 209 c 1
EndSplineSet
EndChar

StartChar: exclamdown
Encoding: 161 161 312
Width: 288
GlyphClass: 2
Flags: MW
LayerCount: 2
Fore
SplineSet
144 -229 m 0
 120 -229 91 -210 91 -156 c 0
 91 -91 105 -49 115 37 c 0
 128 145 128 205 130 219 c 0
 131 230 134 239 144 239 c 0
 154 239 157 232 158 226 c 0
 160 205 166 115 174 37 c 0
 183 -51 197 -86 197 -156 c 0
 197 -210 168 -229 144 -229 c 0
EndSplineSet
Refer: 256 46 N 1 0 0 1 34 343 2
Colour: ff00ff
EndChar

StartChar: cent
Encoding: 162 162 313
Width: 465
GlyphClass: 2
Flags: MW
LayerCount: 2
Fore
SplineSet
232 611 m 1
 268 611 l 1
 268 514.4 l 1
 356.9 513.3 409.5 475.6 409.5 424.1 c 0
 409.5 394.6 383 382.2 363 382.2 c 0
 343 382.2 329.7 390.8 326.8 416.5 c 0
 323.2 448 316.2 479.4 268 482.7 c 1
 268 134.6 l 1
 271.4 134.3 274.8 134.1 278.3 134.1 c 0
 319.2 134.1 360.1 155 392.4 196.8 c 1
 401 195.8 408.6 192.1 412.4 183.5 c 1
 367.8 110.4 320.7 90 268 87.7 c 1
 268 -13 l 1
 232 -13 l 1
 232 88.8 l 1
 128 100 69.2 181.1 69.2 294.8 c 0
 69.2 414.5 148.4 494.6 232 511.2 c 1
 232 611 l 1
232 145.3 m 1
 232 478.7 l 1
 183.8 462.9 151 404.4 151 315.7 c 0
 151 230.5 184.9 169.3 232 145.3 c 1
EndSplineSet
Colour: ff9ccc
EndChar

StartChar: sterling
Encoding: 163 163 314
Width: 465
GlyphClass: 2
Flags: MW
LayerCount: 2
Fore
SplineSet
74 300 m 2
 69 300 68 302 68 307 c 2
 68 318 l 2
 68 326 74 339 92 339 c 2
 137 339 l 1
 137 359 l 2
 137 444 164 498 219 552 c 1
 254 588 299 611 352 611 c 0
 375 611 432 598 432 562 c 0
 432 537 415 521 391 521 c 0
 376 521 367 529 355 540 c 0
 342 552 327 563 305 563 c 0
 259 563 222 497 222 410 c 2
 222 339 l 1
 346 339 l 2
 351 339 354 337 354 333 c 2
 354 313 l 2
 354 305 341 300 330 300 c 2
 222 300 l 1
 221 181 181 123 147 91 c 1
 271 91 260 44 329 44 c 0
 359 44 406 52 432 88 c 1
 440 87 446 84 450 77 c 1
 426 25 376 -11 311 -11 c 0
 221 -11 220 49 132 49 c 0
 97 49 92 35 92 24 c 0
 92 1 74 -11 52 -11 c 0
 33 -11 16 1 16 17 c 0
 16 36 40 52 67 67 c 1
 126 110 137 190 137 281 c 2
 137 300 l 1
 74 300 l 2
EndSplineSet
EndChar

StartChar: currency
Encoding: 164 164 315
Width: 465
GlyphClass: 2
Flags: MW
LayerCount: 2
Fore
SplineSet
108 305 m 0
 108 228 156 164 231 164 c 0
 305 164 354 229 354 304 c 0
 354 383 298 445 233 445 c 0
 159 445 108 380 108 305 c 0
231 119 m 0
 189 119 151 132 117 157 c 1
 72 101 l 1
 29 144 l 1
 86 189 l 1
 59 222 44 261 44 304 c 0
 44 349 59 388 86 420 c 1
 31 464 l 1
 70 506 l 1
 118 452 l 1
 153 477 190 489 231 489 c 0
 274 489 312 476 346 450 c 1
 395 508 l 1
 436 465 l 1
 378 418 l 1
 404 386 418 348 418 304 c 0
 418 262 404 224 379 191 c 1
 434 145 l 1
 396 105 l 1
 348 158 l 1
 313 132 274 119 231 119 c 0
EndSplineSet
EndChar

StartChar: yen
Encoding: 165 165 316
Width: 465
GlyphClass: 2
Flags: MW
LayerCount: 2
Fore
SplineSet
191 127 m 2
 191 134 l 1
 50 134 l 2
 45 134 44 136 44 141 c 2
 44 154 l 2
 44 162 50 173 68 173 c 2
 191 173 l 1
 191 245 l 1
 50 245 l 2
 45 245 44 246 44 251 c 2
 44 263 l 2
 44 271 50 284 68 284 c 2
 187 284 l 1
 80 503 l 2
 62 541 41 565 0 569 c 1
 -6 575 -6 596 0 602 c 1
 32 601 76 600 90 600 c 0
 96 600 147 601 179 602 c 1
 185 596 185 575 179 569 c 1
 143 569 132 566 149 531 c 2
 256 311 l 1
 258 311 l 1
 335 487 l 2
 367 560 370 565 320 569 c 1
 314 575 314 596 320 602 c 1
 352 601 382 600 399 600 c 0
 416 600 434 601 466 602 c 1
 472 596 470 575 464 569 c 1
 411 564 411 560 378 487 c 2
 286 284 l 1
 415 284 l 2
 419 284 423 282 423 278 c 2
 423 259 l 2
 423 249 409 245 398 245 c 2
 276 245 l 1
 276 173 l 1
 415 173 l 2
 419 173 423 171 423 167 c 2
 423 148 l 2
 423 138 409 134 398 134 c 2
 276 134 l 1
 276 127 l 2
 276 39 293 34 378 31 c 1
 384 25 384 4 378 -2 c 1
 325 -1 290.8 0 235 0 c 0
 178.1 0 141 -1 89 -2 c 1
 83 4 83 25 89 31 c 1
 174 34 191 39 191 127 c 2
EndSplineSet
EndChar

StartChar: brokenbar
Encoding: 166 166 317
Width: 211
GlyphClass: 2
Flags: MW
LayerCount: 2
Fore
SplineSet
130 674 m 1
 130 312 l 1
 81 312 l 1
 81 674 l 1
 130 674 l 1
130 161 m 1
 130 -201 l 1
 81 -201 l 1
 81 161 l 1
 130 161 l 1
EndSplineSet
EndChar

StartChar: section
Encoding: 167 167 318
Width: 473
GlyphClass: 2
Flags: MW
LayerCount: 2
Fore
SplineSet
124.8 415.1 m 1
 89.9 450.4 80 484 80 526 c 0
 80 592 133 658 236 658 c 0
 333 658 375 596 375 557 c 0
 375 536 366 519 339 519 c 0
 313 519 303 541 298 560 c 0
 288 598 273 627 230 627 c 0
 183 627 149 592 149 546 c 0
 149 499 175 462 240 427 c 0
 317 386 423 342 423 219 c 0
 423 152.6 392.6 106.8 348.2 70.9 c 1
 383.1 35.6 393 2 393 -40 c 0
 393 -106 340 -172 237 -172 c 0
 140 -172 98 -110 98 -71 c 0
 98 -50 107 -33 134 -33 c 0
 160 -33 170 -55 175 -74 c 0
 185 -112 200 -141 243 -141 c 0
 290 -141 324 -106 324 -60 c 0
 324 -13 298 24 233 59 c 0
 156 100 50 144 50 267 c 0
 50 331.4 80.4 379.2 124.8 415.1 c 1
327 90.1 m 1
 351.1 111.5 369 139.6 369 171 c 0
 369 263 294 303 222 345 c 0
 190.5 363.2 165.6 379.8 146.1 395.8 c 1
 120.4 372.6 104 349.4 104 315 c 0
 104 223 179 183 251 141 c 0
 282.6 122.8 307.5 106.1 327 90.1 c 1
EndSplineSet
EndChar

StartChar: copyright
Encoding: 169 169 320
Width: 695
GlyphClass: 2
Flags: MW
LayerCount: 2
Fore
SplineSet
439 216 m 1
 419 185 376 152 321 152 c 0
 282.3 152 245.7 164.9 219 187 c 0
 184.4 215.7 165 259.4 165 304 c 0
 165 342.2 177 378.6 201 405.5 c 0
 229.9 437.8 275 457 323 457 c 0
 393 457 410 444 430 442 c 1
 432 405 431 383 430 359 c 1
 425 356 418 355 410 355 c 1
 393 401 376 434 319 434 c 0
 279 434 232 409 232 311 c 0
 232 238 274 181 330 181 c 0
 381 181 409 215 420 231 c 1
 429.8 228.3 434.4 222.1 439 216 c 1
EndSplineSet
Refer: 2250 -1 N 1 0 0 1 0 0 2
Colour: ff9ccc
EndChar

StartChar: ordfeminine
Encoding: 170 170 321
Width: 307
GlyphClass: 2
Flags: MW
LayerCount: 2
Fore
SplineSet
192 502 m 1
 107 480 83 462 83 431 c 0
 83 410 94 390 128 390 c 0
 149 390 166 400 192 423 c 1
 192 502 l 1
235 358 m 0
 210 358 196 379 193 397 c 1
 159 367 141 358 108 358 c 0
 66 358 31 385 31 428 c 0
 31 470 71 498 134 514 c 2
 192 529 l 1
 192 604 161 612 138 612 c 0
 105 612 84 601 84 585 c 0
 84 578 85 574 86 572 c 0
 87 570 88 565 88 560 c 0
 88 552 81 539 62 539 c 0
 47 539 36 549 36 564 c 0
 36 604 98 637 140 637 c 0
 189 637 246 617 246 523 c 2
 246 448 l 2
 246 407 251 391 260 391 c 0
 264 391 269 393 272 396 c 1
 279.3 393.3 282.6 388 282 380 c 1
 273 370 254 358 235 358 c 0
EndSplineSet
EndChar

StartChar: guillemotleft
Encoding: 171 171 322
Width: 543
GlyphClass: 2
Flags: MW
LayerCount: 2
Fore
SplineSet
156 215 m 1
 193.5 172.5 231 124 283 45 c 1
 280.5 35 269.5 27.2 259 26 c 1
 179.5 111.5 129.5 160 74 209 c 1
 74 221 l 1
 129.5 270 179.5 318.5 259 404 c 1
 269.5 402.8 280.5 395 283 385 c 1
 231 306 193.5 257.5 156 215 c 1
336 215 m 1
 373.5 172.5 411 124 463 45 c 1
 460.5 35 449.5 27.2 439 26 c 1
 359.5 111.5 309.5 160 254 209 c 1
 254 221 l 1
 309.5 270 359.5 318.5 439 404 c 1
 449.5 402.8 460.5 395 463 385 c 1
 411 306 373.5 257.5 336 215 c 1
EndSplineSet
EndChar

StartChar: logicalnot
Encoding: 172 172 323
Width: 599
GlyphClass: 2
Flags: MW
LayerCount: 2
Fore
SplineSet
499 99 m 1
 499 323 l 1
 40 323 l 1
 36.3 335.8 33.3 349 40 367 c 1
 553 367 l 1
 553 99 l 1
 536.4 92.6 518 90 499 99 c 1
EndSplineSet
EndChar

StartChar: registered
Encoding: 174 174 325
Width: 695
GlyphClass: 2
Flags: MW
LayerCount: 2
Fore
SplineSet
376 370 m 0
 376 404 360 421 326 421 c 0
 301 421 286 405 286 387 c 2
 286 312 l 1
 328 312 l 2
 358 312 376 324 376 370 c 0
263 443 m 0
 279 443 315 445 335 445 c 0
 410 445 430 400 430 370 c 0
 430 331 404 306 373 296 c 1
 421 214 l 2
 432 195.2 448 187 464 190 c 1
 468 186 469 179 468 173 c 1
 456 168 444 166 432 166 c 0
 412 166 388 175 371 204 c 2
 323 284 l 1
 319 287 291 288 286 288 c 1
 286 232 l 2
 286 200 294 194 326 191 c 1
 330 187 330 171 326 167 c 1
 308 168 279 169 263 169 c 0
 247 169 217 168 199 167 c 1
 195 171 195 187 199 191 c 1
 231 194 239 200 239 232 c 2
 239 380 l 2
 239 412 231 418 199 421 c 1
 195 425 195 441 199 445 c 1
 217 444 247 443 263 443 c 0
EndSplineSet
Refer: 2250 -1 N 1 0 0 1 0 0 2
Colour: ff9ccc
EndChar

StartChar: macron
Encoding: 175 175 326
Width: 397
GlyphClass: 2
Flags: MW
LayerCount: 2
Fore
SplineSet
315 529 m 2
 71 529 l 2
 62 529 59 537 59 544 c 0
 59 556 69 573 81 573 c 2
 325 573 l 2
 335 573 339 565 339 559 c 0
 339 547 328 529 315 529 c 2
EndSplineSet
EndChar

StartChar: degree
Encoding: 176 176 327
Width: 267
GlyphClass: 2
Flags: MW
LayerCount: 2
Fore
SplineSet
199 508 m 0
 199 541 179 580 134 580 c 0
 91 580 68 544 68 508 c 0
 68 473 92 439 134 439 c 0
 175 439 199 474 199 508 c 0
34 509 m 0
 34 565 79 610 134 610 c 0
 189 610 233 565 233 509 c 0
 233 454 189 409 134 409 c 0
 79 409 34 454 34 509 c 0
EndSplineSet
EndChar

StartChar: uni00B2
Encoding: 178 178 329
Width: 307
GlyphClass: 2
Flags: MW
LayerCount: 2
Fore
SplineSet
73 587 m 0
 61 587 47 598 47 611 c 0
 47 637 75 688 154 688 c 0
 204 688 262 669 262 605 c 0
 262 559 229 526 173 486 c 0
 131 456 116 429 107 396 c 1
 190 396 l 2
 221 396 235 435 246 463 c 1
 256.7 463.3 264.7 461.7 270 458 c 1
 265.7 422.3 259.5 390.7 251 364 c 1
 45 364 l 1
 45 412 83 454 131 491 c 1
 176 527 200 550 200 604 c 0
 200 651 168 658 150 658 c 0
 119 658 107 649 102 637 c 0
 98.5 628.7 101.3 615.9 100 608 c 0
 97 590 83 587 73 587 c 0
EndSplineSet
EndChar

StartChar: uni00B3
Encoding: 179 179 330
Width: 307
GlyphClass: 2
Flags: MW
LayerCount: 2
Fore
SplineSet
186 624 m 0
 186 650 164 658 148 658 c 0
 131 658 103 650 96 634 c 0
 91.2 623 92 605 69 605 c 0
 50 605 46 620 46 623 c 0
 46 640 73 688 160 688 c 0
 212 688 245 666 245 629 c 0
 245 600 223 577 194 561 c 1
 227 558 274 531 274 473 c 0
 274 404 215 358 135 358 c 0
 108.8 358 38.2 369.3 38.2 400.8 c 0
 38.2 414.1 50.7 423 63 423 c 0
 77 423 87 418 93 406 c 0
 98.7 394.5 107 388 139 388 c 0
 168 388 212 401 212 465 c 0
 212 522 161 526 137 526 c 0
 130 526 125 525 117 524 c 1
 111.6 530.5 112.3 541.9 115 551 c 1
 159 557 186 583 186 624 c 0
EndSplineSet
EndChar

StartChar: mu
Encoding: 181 181 332
Width: 515
GlyphClass: 2
Flags: MW
LayerCount: 2
Fore
SplineSet
340 60 m 1
 301 16 258 -10 194 -10 c 0
 167 -10 141 0 129 13 c 1
 123 13 116 9 116 4 c 0
 116 -61 150 -131 150 -174 c 0
 150 -215 131 -234 107 -234 c 0
 90 -234 50 -210 50 -169 c 0
 50 -118 66 -71 66 -8 c 0
 66 25 57 76 57 134 c 2
 57 322 l 2
 57 350 46 429 46 429 c 1
 70 429 103 436 133 439 c 1
 133 439 136 375 136 343 c 2
 136 147 l 2
 136 85 153 35 209 35 c 0
 264 35 319 74 342 107 c 1
 342 429 l 1
 367 429 395 436 421 439 c 1
 421 121 l 2
 421 75 422 34 463 34 c 0
 489 34 492 50 498 50 c 0
 502 50 510 42 510 35 c 0
 510 30 474 -10 422 -10 c 0
 361 -10 345 32 342 60 c 1
 340 60 l 1
EndSplineSet
EndChar

StartChar: paragraph
Encoding: 182 182 333
Width: 602
GlyphClass: 2
Flags: MW
LayerCount: 2
Fore
SplineSet
367 574 m 2
 367 -161 l 2
 367 -188 384 -199 407 -199 c 0
 430 -199 448 -192 448 -161 c 2
 448 574 l 2
 448 605 430 612 407 612 c 0
 384 612 367 601 367 574 c 2
408 645 m 0
 477 645 537.5 645 585 647 c 1
 587 645 l 1
 587 626 l 2
 587 621 583 618.3 579 618 c 2
 553 616 l 2
 513.3 612.9 498 604 498 574 c 2
 498 -161 l 2
 498 -191 513.3 -199.9 553 -203 c 2
 579 -205 l 2
 583 -205.3 587 -208 587 -213 c 2
 587 -232 l 1
 585 -234 l 1
 537.5 -232 477 -232 408 -232 c 0
 339 -232 280 -232 231 -234 c 1
 229 -232 l 1
 229 -213 l 2
 229 -208 232 -205.3 236 -205 c 2
 263 -203 l 2
 304.6 -199.9 317 -189 317 -161 c 2
 317 285 l 1
 308 283 300 282 285 282 c 0
 139 282 57 347 57 481 c 0
 57 560 115 647 247 647 c 0
 322 647 381 645 408 645 c 0
EndSplineSet
EndChar

StartChar: periodcentered
Encoding: 183 183 334
Width: 250
GlyphClass: 2
Flags: MW
LayerCount: 2
Fore
SplineSet
125 199 m 0
 97 199 71 225 71 253 c 0
 71 281 97 307 125 307 c 0
 153 307 179 281 179 253 c 0
 179 225 153 199 125 199 c 0
EndSplineSet
EndChar

StartChar: uni00B9
Encoding: 185 185 336
Width: 307
GlyphClass: 2
Flags: MW
LayerCount: 2
Fore
SplineSet
135 620 m 0
 122 620 103 614 78 605 c 1
 70.1 611.1 68 620 68 632 c 1
 115 649 141 661 185 688 c 0
 190.3 690.9 197.7 693 203 688 c 1
 203 449 l 2
 203 398 224 395 258 393 c 1
 262 385 262 371 258 364 c 1
 228 365 207 365 174 365 c 0
 138.7 365 108 365 78 364 c 1
 74 370 73 385 78 393 c 1
 118 395 149 398 149 449 c 2
 149 579 l 2
 149 611 147 620 135 620 c 0
EndSplineSet
EndChar

StartChar: ordmasculine
Encoding: 186 186 337
Width: 349
GlyphClass: 2
Flags: MW
LayerCount: 2
Fore
SplineSet
39 483 m 0
 39 564 93 620 179 620 c 0
 266 620 311 558 311 489 c 0
 311 424 266 357 172 357 c 0
 98 357 39 412 39 483 c 0
171 594 m 0
 121 594 97 547 97 493 c 0
 97 444 123 383 183 383 c 0
 210 383 253 401 253 473 c 0
 253 553 221 594 171 594 c 0
EndSplineSet
EndChar

StartChar: guillemotright
Encoding: 187 187 338
Width: 543
GlyphClass: 2
Flags: MW
LayerCount: 2
Fore
SplineSet
387 215 m 1
 349.5 257.5 312 306 260 385 c 1
 262.5 395 273.5 402.8 284 404 c 1
 363.5 318.5 413.5 270 469 221 c 1
 469 209 l 1
 413.5 160 363.5 111.5 284 26 c 1
 273.5 27.2 262.5 35 260 45 c 1
 312 124 349.5 172.5 387 215 c 1
207 215 m 1
 169.5 257.5 132 306 80 385 c 1
 82.5 395 93.5 402.8 104 404 c 1
 183.5 318.5 233.5 270 289 221 c 1
 289 209 l 1
 233.5 160 183.5 111.5 104 26 c 1
 93.5 27.2 82.5 35 80 45 c 1
 132 124 169.5 172.5 207 215 c 1
EndSplineSet
Colour: ff00ff
EndChar

StartChar: onequarter
Encoding: 188 188 339
Width: 660
GlyphClass: 2
Flags: MW
LayerCount: 2
Fore
SplineSet
557 601 m 1
 598 593 l 1
 140 -62 l 1
 98 -54 l 1
 557 601 l 1
EndSplineSet
Refer: 1073 8308 N 1 0 0 1 348 -446 2
Refer: 336 185 N 1 0 0 1 -3 -49 2
LCarets2: 2 215 424
Colour: ff9ccc
EndChar

StartChar: onehalf
Encoding: 189 189 340
Width: 660
GlyphClass: 2
Flags: MW
LayerCount: 2
Fore
SplineSet
532 601 m 1
 574 593 l 1
 115 -62 l 1
 74 -54 l 1
 532 601 l 1
EndSplineSet
Refer: 336 185 N 1 0 0 1 -1 -49 2
Refer: 329 178 N 1 0 0 1 358 -443 2
LCarets2: 2 208 414
Colour: ff9ccc
EndChar

StartChar: threequarters
Encoding: 190 190 341
Width: 660
GlyphClass: 2
Flags: MW
LayerCount: 2
Fore
SplineSet
562 601 m 1
 603 593 l 1
 145 -62 l 1
 103 -54 l 1
 562 601 l 1
EndSplineSet
Refer: 1073 8308 N 1 0 0 1 352 -444 2
Refer: 330 179 N 1 0 0 1 -2 -51 2
LCarets2: 2 260 447
Colour: ff9ccc
EndChar

StartChar: questiondown
Encoding: 191 191 342
Width: 435
GlyphClass: 2
Flags: MW
LayerCount: 2
Fore
SplineSet
321 -143 m 0
 321 -128 319 -122 315 -117 c 0
 311 -112 309 -106 309 -93 c 0
 309 -70 329 -58 348 -58 c 0
 364 -58 389 -66 389 -101 c 0
 389 -139 368 -167 338 -191 c 1
 309 -216 267 -230 214 -230 c 0
 112 -230 46 -170 46 -79 c 0
 46 0 108 44 155 78 c 0
 178 95 198 111 207 128 c 0
 220 153 221 177 221 201 c 2
 221 245 l 2
 221 252 230 255 238 255 c 0
 246 255 254 252 254 245 c 2
 254 199 l 2
 254 156 249 97 184 38 c 0
 144 1 129 -28 129 -75 c 0
 129 -140 167 -197 224 -197 c 0
 281 -197 321 -173 321 -143 c 0
EndSplineSet
Refer: 256 46 N 1 0 0 1 128 343 2
Colour: ff00ff
EndChar

StartChar: Adieresis.alt
Encoding: 1114112 -1 347
Width: 695
GlyphClass: 2
Flags: MW
AnchorPoint: "above" 362 894 basechar 0
LayerCount: 2
Fore
SplineSet
193 706 m 0
 193 732 215 754 241 754 c 0
 267 754 289 732 289 706 c 0
 289 680 267 658 241 658 c 0
 215 658 193 680 193 706 c 0
430 706 m 0
 430 732 452 754 478 754 c 0
 504 754 526 732 526 706 c 0
 526 680 504 658 478 658 c 0
 452 658 430 680 430 706 c 0
EndSplineSet
Refer: 24 65 N 1 0 0 1 0 0 2
Position2: "'cpsp' Versalabstaende 1" dx=2 dy=0 dh=5 dv=0
Colour: ff9ccc
EndChar

StartChar: Aring
Encoding: 197 197 348
Width: 695
GlyphClass: 2
Flags: MW
AnchorPoint: "above" 364 894 basechar 0
LayerCount: 2
Fore
SplineSet
263 283 m 2
 440 283 l 1
 346 555 l 1
 340 555 l 1
 237.8 296.3 l 2
 234 286 241 283 263 283 c 2
155 79 m 2
 139.4 37.9 186.4 33.6 224 31 c 1
 230 25 230 4 224 -2 c 1
 187 -1 137 0 96 0 c 0
 65.7 0 33 -1 7 -2 c 1
 1 4 1 25 7 31 c 1
 50.5 34 81 40 107 102 c 2
 332.1 633.5 l 1
 297.8 645 271 677.2 271 714 c 0
 271 760 313 799 359 799 c 0
 405 799 447 761 447 714 c 0
 447 681.5 426.1 651.6 396.4 637.5 c 1
 595 86 l 2
 612.4 37.8 646.2 34.5 685 31 c 1
 691 25 691 4 685 -2 c 1
 650 -1 612 0 571 0 c 0
 532 0 477 -1 440 -2 c 1
 434 4 434 25 440 31 c 1
 487.6 34.4 525.8 37.5 514 72 c 2
 456 241 l 1
 245 241 l 2
 221 241 215 237 210 224 c 2
 155 79 l 2
359 767 m 0
 328 767 311 744 311 714 c 0
 311 686 328 661 359 661 c 0
 390 661 407 686 407 714 c 0
 407 745 389 767 359 767 c 0
EndSplineSet
Position2: "'cpsp' Versalabstaende 1" dx=2 dy=0 dh=5 dv=0
Colour: ff00ff
EndChar

StartChar: AE
Encoding: 198 198 349
Width: 865
GlyphClass: 2
Flags: MW
AnchorPoint: "above" 480 850 basechar 0
AnchorPoint: "below" 549 -107 basechar 0
AnchorPoint: "cedilla" 549 4 basechar 0
LayerCount: 2
Fore
SplineSet
271 305 m 1
 429 305 l 1
 429 575 l 2
 429 587 428 596 424 598 c 1
 271 305 l 1
429 122 m 2
 429 266 l 1
 251 266 l 1
 154 79 l 2
 133.7 39.9 186.4 33.6 224 31 c 1
 230 25 230 4 224 -2 c 1
 187 -1 137 0 96 0 c 0
 57 0 44 -1 7 -2 c 1
 1 4 1 25 7 31 c 1
 50.5 34 79.3 42.7 111 102 c 2
 354 557 l 2
 370.2 587.7 364 611 294 614 c 1
 288 620 288 641 294 647 c 1
 344 646 409 645 409 645 c 1
 549 645 l 1
 725 645 l 2
 749 645 757 646 774 649 c 0
 777 649 778 648 778 646 c 0
 780 638 795 542 800 501 c 1
 790.2 496.3 779.4 494.2 767 496 c 1
 745 565 729 605 654 605 c 2
 549 605 l 2
 525 605 513 585 513 561 c 2
 513 361 l 1
 604 361 l 2
 689 361 692 374 695 429 c 1
 701 435 722 435 728 429 c 1
 727 399 726 376.5 726 343 c 0
 726 308.7 727 290 728 255 c 1
 722 249 701 249 695 255 c 1
 692 300 689 323 604 323 c 2
 513 323 l 1
 513 82 l 2
 513 55 527 39 549 39 c 2
 685 39 l 2
 761 39 796 98 816 170 c 1
 829.1 173.2 840.6 170.9 851 165 c 1
 843 114 828 48 814 -2 c 1
 814 -2 734 0 686 0 c 2
 472 0 l 1
 472 0 391 -1 342 -2 c 1
 336 4 336 25 342 31 c 1
 412 34 429 39 429 122 c 2
EndSplineSet
Position2: "'cpsp' Versalabstaende 1" dx=2 dy=0 dh=5 dv=0
EndChar

StartChar: Ccedilla
Encoding: 199 199 350
Width: 646
GlyphClass: 2
Flags: MW
AnchorPoint: "above" 371 850 basechar 0
LayerCount: 2
Fore
SplineSet
367 -96 m 0
 348 -96 338 -97 322 -102 c 1
 316 -96 l 1
 351.8 -10 l 1
 140.3 -7.7 37 137.6 37 310 c 0
 37 414.3 76.6 512.2 143 573 c 0
 202 627 273 658 358 658 c 0
 481 658 526 618 577 613 c 1
 587 558 594 510 599 458 c 1
 587.7 452 578 449 566 453 c 1
 540 539 485 621 347 621 c 0
 295 621 237 593 187.4 532 c 0
 150.9 487.1 128 415.3 128 329 c 0
 128 183 221.4 31 356 31 c 0
 449 31 517 62 588 140 c 1
 599 140 606 134 611 125 c 1
 550 45.2 472.2 0 386.8 -8.5 c 1
 365 -67 l 1
 373 -65 382 -64 391 -64 c 0
 431 -64 462 -88 462 -126 c 0
 462 -169 416 -200 355 -200 c 0
 323 -200 306 -194 281 -183 c 1
 281 -171 284 -164 291 -157 c 1
 318 -167 329 -171 349 -171 c 0
 379 -171 400 -157 400 -131 c 0
 400 -110 390 -96 367 -96 c 0
EndSplineSet
Position2: "'cpsp' Versalabstaende 1" dx=2 dy=0 dh=5 dv=0
Colour: ff00ff
EndChar

StartChar: Eth
Encoding: 208 208 359
Width: 701
GlyphClass: 2
Flags: MW
AnchorPoint: "above" 341 850 basechar 0
LayerCount: 2
Fore
SplineSet
191 84 m 2
 191 52 202 32 300 32 c 0
 441 32 562 82 562 284 c 0
 562 438 491 613 275 613 c 0
 226 613 191 599 191 564 c 2
 191 326 l 1
 288 326 l 2
 297 326 300 318 300 313 c 0
 300 302 291 287 279 287 c 2
 191 287 l 1
 191 84 l 2
148 645 m 0
 187 645 242 647 313 647 c 0
 505 647 658 494 658 308 c 0
 658 62 472 -2 331 -2 c 0
 228 -2 186 0 149 0 c 0
 111.3 0 58 -1 19 -2 c 1
 13 4 13 25 19 31 c 1
 89 34 106 39 106 122 c 2
 106 287 l 1
 19 287 l 2
 11 287 8 295 8 301 c 0
 8 311 18 326 27 326 c 2
 106 326 l 1
 106 523 l 2
 106 606 89 611 19 614 c 1
 13 620 13 641 19 647 c 1
 59 646 112.3 645 148 645 c 0
EndSplineSet
Position2: "'cpsp' Versalabstaende 1" dx=2 dy=0 dh=5 dv=0
Colour: ff9ccc
EndChar

StartChar: Odieresis.alt
Encoding: 1114113 -1 365
Width: 702
GlyphClass: 2
Flags: MW
AnchorPoint: "above" 344 894 basechar 0
LayerCount: 2
Fore
SplineSet
97 706 m 0
 97 732 119 754 145 754 c 0
 171 754 193 732 193 706 c 0
 193 680 171 658 145 658 c 0
 119 658 97 680 97 706 c 0
506 706 m 0
 506 732 528 754 554 754 c 0
 580 754 602 732 602 706 c 0
 602 680 580 658 554 658 c 0
 528 658 506 680 506 706 c 0
EndSplineSet
Refer: 264 79 N 1 0 0 1 0 0 2
Position2: "'cpsp' Versalabstaende 1" dx=2 dy=0 dh=5 dv=0
Colour: ff9ccc
EndChar

StartChar: multiply
Encoding: 215 215 366
Width: 550
GlyphClass: 2
Flags: MW
LayerCount: 2
Fore
SplineSet
308 252 m 1
 431 130 l 1
 396 95 l 1
 274 217 l 1
 152 95 l 1
 116 130 l 1
 239 252 l 1
 116 375 l 1
 152 410 l 1
 274 287 l 1
 396 410 l 1
 431 375 l 1
 308 252 l 1
EndSplineSet
EndChar

StartChar: Oslash
Encoding: 216 216 367
Width: 702
GlyphClass: 2
Flags: MW
AnchorPoint: "below" 350 -110 basechar 0
AnchorPoint: "cedilla" 350 0 basechar 0
AnchorPoint: "above" 351 850 basechar 0
LayerCount: 2
Fore
SplineSet
108 -13 m 1
 89 -13 75 4 72 19 c 1
 123.5 82.4 l 1
 70.2 137.5 37 215.2 37 310 c 0
 37 503.9 150.3 658 344 658 c 0
 418.7 658 487.1 636.8 541.5 597 c 1
 591 658 l 1
 610 658 624.7 642.9 627 628 c 1
 577 566.3 l 1
 632.2 510.1 666 429.6 666 329 c 0
 666 245 644 172.7 604.2 116 c 0
 549.3 37.7 460.8 -10 350 -10 c 0
 279 -10 212.7 11.5 159.6 50.8 c 1
 108 -13 l 1
331 622 m 0
 232 622 133 537 133 327 c 0
 133 254.8 149.2 194.4 176 147.1 c 1
 498.3 543.8 l 1
 455.2 595.2 396.1 622 331 622 c 0
526 503.3 m 1
 204.4 106.1 l 1
 248.5 53.8 308.4 26 370 26 c 0
 484 26 570 131 570 310 c 0
 570 388.8 553.7 453.6 526 503.3 c 1
EndSplineSet
Position2: "'cpsp' Versalabstaende 1" dx=2 dy=0 dh=5 dv=0
Colour: ff9ccc
EndChar

StartChar: Udieresis.alt
Encoding: 1114114 -1 371
Width: 667
GlyphClass: 2
Flags: MW
AnchorPoint: "above" 344 894 basechar 0
LayerCount: 2
Fore
SplineSet
323 -10 m 0
 234 -10 89 32 89 236 c 2
 89 523 l 2
 89 606 72.5 611 12 614 c 1
 6 620 6 641 12 647 c 1
 49 646 93 645 132 645 c 0
 173 645 192 646 217 647 c 0
 230.9 647 230 616 221 614 c 0
 190 609 174 586 174 523 c 2
 174 269 l 2
 174 204 173 134 226 81 c 0
 255 52 297 31 345 31 c 0
 513 31 529 165 529 277 c 2
 529 523 l 2
 529 589 516 607 481 614 c 1
 466.3 625 469.3 647 488 647 c 0
 514 647 532 645 555 645 c 0
 578 645 622 646 652 647 c 1
 658 641 658 620 652 614 c 1
 591 611 578 606 578 523 c 2
 578 295 l 2
 578 117 529 -10 323 -10 c 0
232 707 m 0
 232 733 253 754 279 754 c 0
 305 754 326 733 326 707 c 0
 326 681 305 660 279 660 c 0
 253 660 232 681 232 707 c 0
376 707 m 0
 376 733 397 754 423 754 c 0
 449 754 470 733 470 707 c 0
 470 681 449 660 423 660 c 0
 397 660 376 681 376 707 c 0
EndSplineSet
Position2: "'cpsp' Versalabstaende 1" dx=2 dy=0 dh=5 dv=0
EndChar

StartChar: Thorn
Encoding: 222 222 373
Width: 527
GlyphClass: 2
Flags: MW
AnchorPoint: "above" 281 850 basechar 0
LayerCount: 2
Fore
SplineSet
183 479 m 1
 183 188 l 1
 192 185 216 183 254 183 c 0
 326 183 400 214 400 343 c 0
 400 463 331 490 272 490 c 0
 253 490 204 485 183 479 c 1
183 122 m 2
 183 39 200 34 270 31 c 1
 276 25 276 4 270 -2 c 1
 220 -1 191 0 141 0 c 0
 90 0 60 -1 11 -2 c 1
 5 4 5 25 11 31 c 1
 81 34 98 39 98 122 c 2
 98 523 l 2
 98 606 81 611 11 614 c 1
 5 620 5 641 11 647 c 1
 61 646 90 645 140 645 c 0
 191 645 221 646 270 647 c 1
 276 641 276 620 270 614 c 1
 200 611 183 606 183 523 c 2
 183 519 l 1
 219 521 254 523 273 523 c 0
 458 523 493 414 493 343 c 0
 493 268 437 150 259 150 c 0
 224 150 198 154 183 159 c 1
 183 122 l 2
EndSplineSet
Position2: "'cpsp' Versalabstaende 1" dx=2 dy=0 dh=5 dv=0
EndChar

StartChar: germandbls
Encoding: 223 223 374
Width: 541
GlyphClass: 2
Flags: MW
LayerCount: 2
Fore
SplineSet
92 122 m 2
 92 386 l 2
 92 394 89 398 80 398 c 2
 29 398 l 1
 23 404 31 431 44 431 c 0
 80.1 431 92 436 92 477 c 0
 92 642 217 698 296 698 c 0
 400 698 448 635 448 587 c 0
 448 510 390 464 320 411 c 1
 320 409 l 1
 399 357 500 289 500 173 c 0
 500 68 436 -10 344 -10 c 0
 260 -10 240 42 240 86 c 0
 240 102 255 121 271 121 c 0
 291 121 299 111 299 91 c 0
 299 74 291 65 291 53 c 0
 291 23 321 23 344 23 c 0
 374 23 415 65 415 156 c 0
 415 249 344 332 260 396 c 1
 260 409 l 1
 327 461 365 501 365 574 c 0
 365 628 340 665 287 665 c 0
 183 665 171 550 171 442 c 2
 171 122 l 2
 171 39 183 36 219 31 c 1
 225 25 225 4 219 -2 c 1
 196 -1 166 0 132 0 c 0
 92 0 53 -1 23 -2 c 1
 17 4 17 25 23 31 c 1
 80 34 92 39 92 122 c 2
EndSplineSet
EndChar

StartChar: ae
Encoding: 230 230 381
Width: 687
GlyphClass: 2
Flags: MW
AnchorPoint: "below" 327 -109 basechar 0
AnchorPoint: "ogonek" 604 30 basechar 0
AnchorPoint: "above" 350 645 basechar 0
LayerCount: 2
Fore
SplineSet
265 384 m 0
 250.3 399.3 221 406 200 406 c 0
 161 406 123 392 123 363 c 0
 123 353 124 346 126 343 c 0
 128 339 129 332 129 325 c 0
 129 309 115 292 90 292 c 0
 59 292 50 317 50 337 c 0
 50 395 128 439 210 439 c 0
 234 439 311 436 348 369 c 1
 381 414 433 439 490 439 c 0
 604 439 648 373 648 339 c 0
 648 258 602 221 371 218 c 1
 371 128 430 39 505 39 c 0
 559 39 594 64 624 99 c 1
 632.7 98.2 640.7 88.3 644 83 c 1
 615 29 557 -10 491 -10 c 0
 400 -10 361.3 35.1 340 59 c 0
 332 68 327.9 64.1 316 52 c 0
 270 5 219.1 -10 182 -10 c 0
 146 -10 109.9 -4.5 88 8 c 0
 53.5 27.6 39 60.4 39 102 c 0
 39 142 66 184 102 205.2 c 0
 145.1 230.6 211.2 243.9 298 250 c 1
 297 329 288 360 265 384 c 0
298 215 m 1
 228.7 209.5 178.7 192.6 148 169.9 c 0
 123.3 151.7 111 129.7 111 107 c 0
 111 64 138 32 194 32 c 0
 226 32 278 73 293 113 c 1
 297 132 298 165 298 215 c 1
372 253 m 1
 525 255 572 275 572 336 c 0
 572 368 537 406 489 406 c 0
 421 406 380 338 372 253 c 1
EndSplineSet
EndChar

StartChar: ccedilla
Encoding: 231 231 382
Width: 428
GlyphClass: 2
Flags: MW
AnchorPoint: "above" 255 834 basechar 0
LayerCount: 2
Fore
SplineSet
228 -96 m 0
 209 -96 199 -97 183 -102 c 1
 177 -96 l 1
 213.2 -9.1 l 1
 100.7 0.599999 37 86.6 37 208 c 0
 37 350 143 439 242 439 c 0
 338 439 395 399 395 344 c 0
 395 313 367 300 346 300 c 0
 325 300 311 309 308 336 c 0
 304 371 296 406 237 406 c 0
 171 406 123 340 123 230 c 0
 123 113 184 39 257 39 c 0
 300 39 343 61 377 105 c 1
 386 104 394 100 398 91 c 1
 351.5 14.7 302.4 -7.1 247.4 -9.7 c 1
 226 -67 l 1
 234 -65 243 -64 252 -64 c 0
 292 -64 323 -88 323 -126 c 0
 323 -169 277 -200 216 -200 c 0
 184 -200 167 -194 142 -183 c 1
 142 -171 145 -164 152 -157 c 1
 179 -167 190 -171 210 -171 c 0
 240 -171 261 -157 261 -131 c 0
 261 -110 251 -96 228 -96 c 0
EndSplineSet
Colour: ff00ff
EndChar

StartChar: eth
Encoding: 240 240 391
Width: 486
GlyphClass: 2
Flags: MW
LayerCount: 2
Fore
SplineSet
248 26 m 0
 295 26 363 61 363 223 c 0
 363 269 359 313 347 356 c 1
 324 385 289 404 246 404 c 0
 145 404 120 301 120 225 c 0
 120 111 177 26 248 26 c 0
34 208 m 0
 34 381 166 439 248 439 c 0
 274 439 299 435 324 425 c 1
 302 478 272 526 235 572 c 1
 126 499 l 1
 104 531 l 1
 209 602 l 1
 193 618 l 2
 172 640 149 660 125 677 c 1
 141 698 l 1
 176 679 212 655 247 627 c 1
 353 698 l 1
 375 666 l 1
 278 601 l 1
 296 583 l 2
 382 497 447 383 447 237 c 0
 447 68 343 -10 231 -10 c 0
 107 -10 34 104 34 208 c 0
EndSplineSet
EndChar

StartChar: oslash
Encoding: 248 248 393
Width: 504
GlyphClass: 2
Flags: MW
AnchorPoint: "below" 243 -110 basechar 0
AnchorPoint: "ogonek" 372 44 basechar 0
AnchorPoint: "cedilla" 241 -3 basechar 0
LayerCount: 2
Fore
SplineSet
414 454 m 1
 431 454 441 444 445 431 c 1
 403.1 379.9 l 1
 445.3 335.3 463 272 463 214 c 0
 463 152.7 442.7 89.8 397.9 46 c 0
 363.8 12.7 315.4 -10 251 -10 c 0
 195.9 -10 152 7 118.8 33.8 c 1
 68 -28 l 1
 52 -28 40 -17 38 -2 c 1
 90.6 61.8 l 1
 57.3 102.5 41 155.1 41 205 c 0
 41 268.2 60 326.4 96.3 369 c 0
 132.9 412 187.2 439 253 439 c 0
 303 439 342.7 426 373.6 405 c 1
 414 454 l 1
238 404 m 0
 148 404 127 315 127 228 c 0
 127 198.3 132.1 161.2 144.3 126.9 c 1
 333.4 356.2 l 1
 309.8 387.7 277.3 404 238 404 c 0
353.8 320 m 1
 162.8 87.4 l 1
 184.5 51.4 217.4 25 265 25 c 0
 312 25 377 56 377 182 c 0
 377 238.4 368.8 284.6 353.8 320 c 1
EndSplineSet
Colour: ff9ccc
EndChar

StartChar: thorn
Encoding: 254 254 396
Width: 502
GlyphClass: 2
Flags: MW
AnchorPoint: "above" 278 646 basechar 0
LayerCount: 2
Fore
SplineSet
161 288 m 2
 161 98 l 2
 161 66.2 166 60 178 49.6 c 0
 206.3 25.2 233.8 24 248 24 c 0
 354 24 379 121 379 208 c 0
 379 268 370 326 327 369 c 0
 312 384 294 393 269 393 c 0
 235.5 393 161 358 161 288 c 2
84 559 m 2
 84 643 72 638 20 641 c 1
 14 647 12 663 14 671 c 1
 54 674 129 688 154 698 c 1
 163 698 167 695 167 688 c 2
 167 688 163 648 163 583 c 2
 163 392 l 2
 163 370 165 370 180 385.3 c 0
 205.4 411.2 243.5 439 295 439 c 0
 392 439 465 340 465 235 c 0
 465 154 438 93 393 48 c 0
 354 9 306 -10 253 -10 c 0
 225.6 -10 202.8 -5.4 182 3 c 0
 171 7.4 163 18 163 -10 c 2
 163 -110 l 2
 163 -193 174 -197 245 -201 c 1
 251 -207 251 -228 245 -234 c 1
 202 -233 171 -232 124 -232 c 0
 80 -232 54 -233 12 -234 c 1
 6 -228 6 -207 12 -201 c 1
 73 -198 84 -193 84 -110 c 2
 84 559 l 2
EndSplineSet
EndChar

StartChar: Aogonek
Encoding: 260 260 402
Width: 695
GlyphClass: 2
Flags: MW
AnchorPoint: "above" 365 850 basechar 0
LayerCount: 2
Fore
SplineSet
701 -135 m 1
 672 -180 632 -200 591 -200 c 0
 541 -200 503 -180 503 -126 c 0
 503 -84.5 538.6 -27.1 599 -0.1 c 1
 589.8 0 580.5 0 571 0 c 0
 532 0 477 -1 440 -2 c 1
 434 4 434 25 440 31 c 1
 487.6 34.4 525.8 37.5 514 72 c 2
 456 241 l 1
 245 241 l 2
 221 241 215 237 210 224 c 2
 155 79 l 2
 139.4 37.9 186.4 33.6 224 31 c 1
 230 25 230 4 224 -2 c 1
 187 -1 137 0 96 0 c 0
 65.7 0 33 -1 7 -2 c 1
 1 4 1 25 7 31 c 1
 50.5 34 81 40 107 102 c 2
 334 638 l 1
 347 638 374 649 389 658 c 1
 595 86 l 2
 612.4 37.8 646.2 34.5 685 31 c 1
 691 25 691 4 685 -2 c 1
 614 -2 565 -69 565 -115 c 0
 565 -141 578 -162 615 -162 c 0
 644 -162 660 -146 682 -124 c 1
 691 -124 697 -128 701 -135 c 1
263 283 m 2
 440 283 l 1
 346 555 l 1
 340 555 l 1
 237.8 296.3 l 2
 234 286 241 283 263 283 c 2
EndSplineSet
Position2: "'cpsp' Versalabstaende 1" dx=2 dy=0 dh=5 dv=0
Colour: ff9ccc
EndChar

StartChar: aogonek
Encoding: 261 261 403
Width: 457
GlyphClass: 2
Flags: MW
AnchorPoint: "above" 209 645 basechar 0
AnchorPoint: "below" 146 -108 basechar 0
AnchorPoint: "cedilla" 167 -3 basechar 0
LayerCount: 2
Fore
SplineSet
460 -135 m 1
 431 -180 391 -200 350 -200 c 0
 300 -200 262 -180 262 -126 c 0
 262 -85.1 296.2 -46.3 345.9 -9.2 c 1
 307.5 -4.5 298.4 20.1 293 48 c 1
 291 48 l 1
 271 32 l 2
 227 -2 196.8 -10 162 -10 c 0
 92 -10 36 16 36 98 c 0
 36 166 105 219 201 243 c 2
 287 264 l 2
 290 265 293 269 293 276 c 0
 293 389 246 406 212 406 c 0
 174 406 132 395 132 364 c 0
 132 353 133 347 134 344 c 0
 136 340 137 333 137 326 c 0
 137 313 119 292 90 292 c 0
 67 292 55 304 55 328 c 0
 55 385 138 439 220 439 c 0
 293 439 371 412 371 270 c 2
 371 123 l 2
 371 77 372 38 401 38 c 0
 413.7 38 430.5 47.8 438 54 c 1
 449.3 47.7 453.3 39.3 455 27 c 1
 441.3 13.8 420.9 1.9 397.6 -4.7 c 1
 349.9 -45.4 324 -74.9 324 -115 c 0
 324 -141 337 -162 374 -162 c 0
 403 -162 419 -146 441 -124 c 1
 450 -124 456 -128 460 -135 c 1
293 233 m 1
 214 212 l 2
 140 193 119 147 119 102 c 0
 119 71 141 31 191 31 c 0
 219 31 253 54 279 75 c 0
 287 81 293 88 293 101 c 2
 293 233 l 1
EndSplineSet
Colour: ff00ff
EndChar

StartChar: Dcroat
Encoding: 272 272 414
Width: 701
GlyphClass: 2
Flags: MW
LayerCount: 2
Fore
SplineSet
191 84 m 2
 191 52 202 32 300 32 c 0
 441 32 562 82 562 284 c 0
 562 438 491 613 275 613 c 0
 226 613 191 599 191 564 c 2
 191 327 l 1
 313 327 l 1
 322.3 325.7 326 319.2 326 314.4 c 0
 326 304.8 315.3 289 303 287 c 1
 191 287 l 1
 191 84 l 2
148 645 m 0
 187 645 242 647 313 647 c 0
 505 647 658 494 658 308 c 0
 658 62 472 -2 331 -2 c 0
 228 -2 186 0 149 0 c 0
 111.3 0 58 -1 19 -2 c 1
 13 4 13 25 19 31 c 1
 89 34 106 39 106 122 c 2
 106 287 l 1
 27 287 l 1
 18 289 15 294.8 15 300.4 c 0
 15 310 24 324.7 36 327 c 1
 106 327 l 1
 106 523 l 2
 106 606 89 611 19 614 c 1
 13 620 13 641 19 647 c 1
 59 646 112.3 645 148 645 c 0
EndSplineSet
Position2: "'cpsp' Versalabstaende 1" dx=2 dy=0 dh=5 dv=0
Colour: ff9ccc
EndChar

StartChar: dcroat
Encoding: 273 273 415
Width: 506
GlyphClass: 2
Flags: MW
LayerCount: 2
Fore
SplineSet
345 124 m 2
 345 314 l 2
 345 345 342 352 328 368 c 0
 308 391 283 404 247 404 c 0
 227 404 185 401 154 354 c 0
 139 333 125 293 125 221 c 0
 125 96 181 37 235 37 c 0
 260 37 292 53 329 85 c 0
 343.1 97.2 345 105 345 124 c 2
334 50.3 m 0
 285 10 248 -10 209 -10 c 0
 101 -10 39 80 39 203 c 0
 39 277 65 336 108 379 c 1
 148 417 192 439 258 439 c 0
 291 439 332 422 336 422 c 0
 343 422 345 424 345 431 c 2
 345 533 l 1
 197 533 l 1
 188 535 185 540.8 185 546.4 c 0
 185 556 194 570.7 206 573 c 1
 344.9 573 l 1
 343.5 642.4 329.9 638.2 281 641 c 1
 275 647 273 663 275 671 c 1
 315 674 390 688 415 698 c 1
 424 698 428 695 428 688 c 2
 428 688 424 648 424 583 c 2
 424 573 l 1
 483 573 l 1
 492.3 571.7 496 565.2 496 560.4 c 0
 496 550.8 485.3 535 473 533 c 1
 424 533 l 1
 424 130 l 2
 424 81 433 62 497 57 c 1
 503 51 503 36 497 30 c 1
 436 23 401 8 379 -10 c 1
 373 -12.5 368 -13 360 -10 c 1
 360 -10 351.5 24.5 349 49 c 0
 348.3 56 338.8 54.2 334 50.3 c 0
EndSplineSet
Colour: ff9ccc
EndChar

StartChar: dotlessi
Encoding: 305 305 419
Width: 271
GlyphClass: 2
Flags: MW
AnchorPoint: "below" 139 -108 basechar 0
AnchorPoint: "above" 132 645 basechar 0
LayerCount: 2
Fore
SplineSet
181 122 m 2
 181 39 192 35 253 31 c 1
 259 25 259 4 253 -2 c 1
 220 -1 182 0 142 0 c 0
 102 0 63 -1 30 -2 c 1
 24 4 24 25 30 31 c 1
 91 36 102 39 102 122 c 2
 102 317 l 2
 102 374 91.5 379.9 37 385 c 1
 35 391 33 407 35 413 c 1
 104 422 143.5 431 172 442 c 1
 180 442 185 439 185 435 c 2
 185 435 181 371 181 321.3 c 2
 181 122 l 2
EndSplineSet
EndChar

StartChar: kgreenlandic
Encoding: 312 312 426
Width: 519
GlyphClass: 2
Flags: MW
AnchorPoint: "cedilla" 120 9 basechar 0
AnchorPoint: "above" 240 644 basechar 0
AnchorPoint: "below" 132 -108 basechar 0
LayerCount: 2
Fore
SplineSet
175 122 m 2
 175 39 185 36 227 31 c 1
 233 25 233 4 227 -2 c 1
 184 -1 171 0 136 0 c 0
 92 0 66 -1 24 -2 c 1
 18 4 18 25 24 31 c 1
 85 36 96 39 96 122 c 2
 96 317 l 2
 96 374 85.5 379.9 31 385 c 1
 29 391 27 407 29 413 c 1
 98 422 137.5 431 166 442 c 1
 174 442 179 439 179 435 c 2
 179 435 175 371 175 321.3 c 2
 175 234.7 l 1
 193.7 238 218.9 249.4 240 265 c 0
 265.7 284 297 318 320 347 c 0
 329.3 358.7 353 394 297 398 c 1
 291 404 291 425 297 431 c 1
 334 430 357 429 395 429 c 0
 431 429 445 430 482 431 c 1
 488 425 488 404 482 398 c 1
 442 394 407 386 377 354 c 2
 289 263 l 2
 285 259 285 257 285 253 c 0
 285 248 288.4 243.5 292 239 c 2
 424 73 l 2
 450.7 39.4 476 35 510 31 c 1
 516 25 516 4 510 -2 c 1
 480 -1 459 0 428 0 c 0
 398 0 386 -1 366 -2 c 0
 363 -2 362.8 0.0999999 362 3 c 0
 358 18 349.4 33.5 320 73 c 2
 247 171 l 2
 235.1 187 226 196 215 203.5 c 1
 205.8 206.7 192.7 208.3 175 208.9 c 1
 175 122 l 2
EndSplineSet
Comment: "Ist das so richtig?"
EndChar

StartChar: ldot
Encoding: 320 320 434
Width: 264
GlyphClass: 2
Flags: MW
LayerCount: 2
Fore
SplineSet
213 360 m 0
 213 385 234 409 261 409 c 0
 284 409 308 387 308 360 c 0
 308 335 288 313 261 313 c 0
 231 313 213 336 213 360 c 0
EndSplineSet
Refer: 2044 108 N 1 0 0 1 0 0 2
Colour: ff9ccc
EndChar

StartChar: Lslash
Encoding: 321 321 435
Width: 528
GlyphClass: 2
Flags: MW
LayerCount: 2
Fore
SplineSet
310 449 m 1
 328 419 l 1
 191 340.4 l 1
 191 109 l 2
 191 58 209 39 248 39 c 2
 311 39 l 2
 417 39 454 98 474 170 c 1
 486.4 171.8 497.2 169.7 507 165 c 1
 501 113 491 48 481 -2 c 1
 481 -2 389 0 361.7 0 c 2
 149 0 l 2
 115.3 0 58 -1 19 -2 c 1
 13 4 13 25 19 31 c 1
 89 34 106 39 106 122 c 2
 106 291.6 l 1
 23 244 l 1
 5 275 l 1
 106 332.6 l 1
 106 523 l 2
 106 606 89 611 19 614 c 1
 13 620 13 641 19 647 c 1
 65 646 111.9 645 148 645 c 0
 186.1 645 233 646 278 647 c 1
 284 641 284 620 278 614 c 1
 208 611 191 606 191 523 c 2
 191 381.1 l 1
 310 449 l 1
EndSplineSet
Position2: "'cpsp' Versalabstaende 1" dx=2 dy=0 dh=5 dv=0
Colour: ff9ccc
EndChar

StartChar: lslash
Encoding: 322 322 436
Width: 264
GlyphClass: 2
Flags: MW
LayerCount: 2
Fore
SplineSet
243 438 m 1
 260 408 l 1
 174 357.9 l 1
 174 122 l 2
 174 39 185 34 246 31 c 1
 252 25 252 4 246 -2 c 1
 213 -1 175 0 135 0 c 0
 95 0 58 -1 23 -2 c 1
 17 4 17 25 23 31 c 1
 84 34 95 39 95 122 c 2
 95 311.9 l 1
 23 270 l 1
 6 299 l 1
 95 351.2 l 1
 95 559 l 2
 95 634 89 637 31 641 c 1
 25 647 23 663 25 671 c 1
 65 674 140 688 165 698 c 1
 174 698 178 695 178 688 c 2
 178 688 174 648 174 583 c 2
 174 397.5 l 1
 243 438 l 1
EndSplineSet
Colour: ff9ccc
EndChar

StartChar: Eng
Encoding: 330 330 444
Width: 668
GlyphClass: 2
Flags: MW
AnchorPoint: "above" 346 804 basechar 0
AnchorPoint: "below" 353 -109 basechar 0
AnchorPoint: "cedilla" 124 -3 basechar 0
LayerCount: 2
Fore
SplineSet
182 647 m 0
 191 647 195 644 195 637 c 2
 195 637 191 597 191 532 c 2
 191 513.5 l 1
 194 513.5 200 521 200 521 c 1
 256 600 322 658 412 658 c 0
 474 658 519 638 554 597 c 0
 595.6 548.3 618 462 618 329 c 2
 618 113 l 2
 618 -30 554.9 -91.8 511 -129 c 0
 469.9 -163.8 439 -172 394 -172 c 0
 372 -172 319 -154 319 -118 c 0
 319 -96 349 -75 363 -75 c 0
 394 -75 398 -96 408 -109 c 0
 415 -119 429 -127 443 -127 c 0
 476 -127 528 -99 528 81 c 2
 528 339 l 2
 528 440 511.8 515.8 486 553 c 0
 459 592 422 602 376 602 c 0
 326 602 262 547 209 484 c 0
 202 475.7 193.7 463.3 191 446.5 c 1
 191 122 l 2
 191 39 208 34 278 31 c 1
 284 25 284 4 278 -2 c 1
 228 -1 199 0 149 0 c 0
 98 0 68 -1 19 -2 c 1
 13 4 13 25 19 31 c 1
 89 34 106 39 106 122 c 2
 106 523 l 2
 106 606 89 611 19 614 c 1
 13 620 13 641 19 647 c 1
 69 646 98 645 148 645 c 0
 161 645 173 646 182 647 c 0
EndSplineSet
Position2: "'cpsp' Versalabstaende 1" dx=2 dy=0 dh=5 dv=0
Comment: "Sieht in Times anders aus"
EndChar

StartChar: eng
Encoding: 331 331 445
Width: 528
GlyphClass: 2
Flags: MW
AnchorPoint: "middle" 264 215 basechar 0
AnchorPoint: "above" 264 646 basechar 0
AnchorPoint: "below" 265 -111 basechar 0
AnchorPoint: "cedilla" 128 9 basechar 0
LayerCount: 2
Fore
SplineSet
175 358 m 0
 175 344 181 354 184 358 c 0
 245 426 299 439 348 439 c 0
 383 439 414 427 431 405 c 0
 454 374 458 326 458 271 c 2
 458 110 l 2
 458 -79 430 -151 383 -189 c 0
 346 -220 294 -223 273 -223 c 0
 254 -223 218 -209 218 -180 c 0
 218 -162 239 -142 250 -142 c 0
 272 -142 284 -158 294 -168 c 0
 301 -175 314 -179 325 -179 c 0
 375 -179 379 -56 379 76 c 2
 379 274 l 2
 379 304 377 331 367 351 c 0
 355 374 334 387 314 387 c 0
 275 387 230 365 192 328 c 0
 184 319 175 307 175 286 c 2
 175 122 l 2
 175 40 184 36 235 31 c 1
 241 25 241 4 235 -2 c 1
 193 -1 175 0 136 0 c 0
 93 0 67 -1 26 -2 c 1
 20 4 20 25 26 31 c 1
 86 36 96 40 96 122 c 2
 96 317 l 2
 96 375 85 380 31 385 c 1
 29 391 27 407 29 413 c 1
 98 422 127 431 155 442 c 1
 163 442 164.9 438.6 167 434 c 0
 171.7 423.7 175 398 175 358 c 0
EndSplineSet
EndChar

StartChar: OE
Encoding: 338 338 452
Width: 869
GlyphClass: 2
Flags: MW
AnchorPoint: "above" 460 850 basechar 0
LayerCount: 2
Fore
SplineSet
356 32 m 2
 369 32 l 2
 409 32 418 44 418 72 c 2
 418 574 l 2
 418 605 407 611 369 611 c 2
 334 611 l 2
 237 611 136 541 136 327 c 0
 136 120 253 32 356 32 c 2
358 -2 m 1
 170 -1 42 138 42 318 c 0
 42 498 161 646 347 646 c 1
 347 646 417 645 461 645 c 2
 539 645 l 1
 796 645 l 1
 810 506 l 1
 783 503 l 1
 776 546 742 605 690 605 c 2
 539 605 l 2
 515 605 503 597 503 573 c 2
 503 366 l 1
 606 366 l 2
 642 366 650 382 657 410 c 2
 664 440 l 2
 664 444 667 448 671 448 c 2
 693 448 l 2
 695 448 696 446 696 444 c 0
 694 412 688 382 688 349 c 0
 688 314 693 285 696 253 c 1
 694 250 l 1
 671 250 l 2
 666 250 663 253 663 257 c 2
 657 288 l 2
 651 316 640 332 606 332 c 2
 503 332 l 1
 503 72 l 2
 503 45 517 39 539 39 c 2
 694 39 l 2
 759 39 788 92 803 165 c 1
 830 160 l 1
 804 0 l 1
 460 0 l 2
 420 0 358 -2 358 -2 c 1
EndSplineSet
Position2: "'cpsp' Versalabstaende 1" dx=2 dy=0 dh=5 dv=0
EndChar

StartChar: oe
Encoding: 339 339 453
Width: 778
GlyphClass: 2
Flags: MW
AnchorPoint: "above" 405 645 basechar 0
AnchorPoint: "ogonek" 361 41 basechar 0
LayerCount: 2
Fore
SplineSet
409 349 m 1
 443 399 502 439 570 439 c 0
 688 439 741 365 741 248 c 1
 451 248 l 1
 450 239 450 228 450 218 c 0
 450 84 543 37 582 37 c 0
 620 37 681 54 712 87 c 1
 722.5 86.4 728.8 80 734 72 c 1
 712 42 666 -10 571 -10 c 0
 479 -10 431 32 403 79 c 1
 367 25 317 -10 239 -10 c 0
 117 -10 34 83 34 206 c 0
 34 362 132 439 243 439 c 0
 344 439 381 396 409 349 c 1
120 237 m 0
 120 126 160 25 253 25 c 0
 300 25 367 59 367 200 c 0
 367 354 286 406 242 406 c 0
 139 406 120 306 120 237 c 0
655 287 m 1
 654 328 644 405 568 405 c 0
 482 405 456 303 454 287 c 1
 655 287 l 1
EndSplineSet
EndChar

StartChar: Scedilla
Encoding: 350 350 464
Width: 485
GlyphClass: 2
Flags: MW
LayerCount: 2
Fore
SplineSet
220 -96 m 0
 201 -96 191 -97 175 -102 c 1
 169 -96 l 1
 205 -9.5 l 1
 132.8 -6.2 104.6 13 47 13 c 1
 35 62 31 88 27 165 c 1
 36.6 170.1 47.2 172 59.5 168 c 1
 81.5 68.5 141.5 26 235 26 c 0
 314.8 26 360 68 360 149 c 0
 360 246.8 286.3 274.9 225.5 298 c 0
 137.5 331.5 51 379.6 51 485 c 0
 51 591 140 658 241.3 658 c 0
 339 658 336.9 639 394.7 631 c 1
 405 578 409 550 412.5 502 c 1
 403.5 495 390.5 494.2 380 496 c 1
 360 562 329 624 231.9 624 c 0
 173 624 122.4 568 122.4 512 c 0
 122.4 427.9 222.3 390.1 281.5 367.9 c 0
 363.9 337 444 290.4 444 184 c 0
 444 120.4 407.5 58.8 350 22.8 c 0
 318.5 3.1 280.2 -7.8 239.4 -9.7 c 1
 218 -67 l 1
 226 -65 235 -64 244 -64 c 0
 284 -64 315 -88 315 -126 c 0
 315 -169 269 -200 208 -200 c 0
 176 -200 159 -194 134 -183 c 1
 134 -171 137 -164 144 -157 c 1
 171 -167 182 -171 202 -171 c 0
 232 -171 253 -157 253 -131 c 0
 253 -110 243 -96 220 -96 c 0
EndSplineSet
Position2: "'cpsp' Versalabstaende 1" dx=2 dy=0 dh=5 dv=0
Colour: ff00ff
EndChar

StartChar: scedilla
Encoding: 351 351 465
Width: 390
GlyphClass: 2
Flags: MW
LayerCount: 2
Fore
SplineSet
48 138 m 1
 54 144 73 145 79 139 c 1
 85 114 96 70 118 47 c 0
 128.3 36.3 150 23 189 23 c 0
 226 23 274 44 274 93 c 0
 274 136 255 157 172 191 c 0
 95 223 62 254 62 327 c 0
 62 391 129 439 203 439 c 0
 255 439 303 425 334 420 c 1
 333 387 331 350 328 314 c 1
 322 308 302 307 296 313 c 1
 283 398 225 406 203 406 c 0
 169 406 133 383 133 342 c 0
 133 287 172.8 271.5 233 249.2 c 0
 301 224 350 184.3 350 116 c 0
 350 23.9 260.9 -5.9 203.4 -9.6 c 1
 182 -67 l 1
 190 -65 199 -64 208 -64 c 0
 248 -64 279 -88 279 -126 c 0
 279 -169 233 -200 172 -200 c 0
 140 -200 123 -194 98 -183 c 1
 98 -171 101 -164 108 -157 c 1
 135 -167 146 -171 166 -171 c 0
 196 -171 217 -157 217 -131 c 0
 217 -110 207 -96 184 -96 c 0
 165 -96 155 -97 139 -102 c 1
 133 -96 l 1
 169 -9.5 l 1
 142.7 -8.2 121.4 -4.5 100 1 c 0
 93 3 87 3 80 3 c 0
 75 3 65 2 55 0 c 1
 55 42 52 89 48 138 c 1
EndSplineSet
Colour: ff00ff
EndChar

StartChar: uni0162
Encoding: 354 354 468
Width: 597
GlyphClass: 2
Flags: MW
LayerCount: 2
Fore
SplineSet
309 -96 m 0
 290 -96 280 -97 264 -102 c 1
 258 -96 l 1
 298 -0 l 1
 259.6 -0.1 213 -1.1 168 -2 c 1
 162 4 162 25 168 31 c 1
 248 34 265 39 265 122 c 2
 265 507 l 2
 265 568 255 606 218 606 c 2
 169 606 l 2
 103 606 57 580 37 500 c 1
 25 500 13 501 3 505 c 1
 14 553 24 605 28 650 c 0
 28 651 30 653 32 653 c 0
 70 650 188 645 265 645 c 2
 351 645 l 2
 430 645 541 650 575 653 c 0
 576 653 578 651 578 650 c 0
 579 605 584 554 591 508 c 1
 582 504 568 503 557 503 c 1
 540 580 493 606 418 606 c 2
 396 606 l 2
 360 606 350 568 350 504 c 2
 350 122 l 2
 350 39 367 34 447 31 c 1
 453 25 453 4 447 -2 c 1
 406.8 -1.2 366.3 -0.4 332 -0.1 c 1
 307 -67 l 1
 315 -65 324 -64 333 -64 c 0
 373 -64 404 -88 404 -126 c 0
 404 -169 358 -200 297 -200 c 0
 265 -200 248 -194 223 -183 c 1
 223 -171 226 -164 233 -157 c 1
 260 -167 271 -171 291 -171 c 0
 321 -171 342 -157 342 -131 c 0
 342 -110 332 -96 309 -96 c 0
EndSplineSet
Position2: "'cpsp' Versalabstaende 1" dx=2 dy=0 dh=5 dv=0
Colour: ff00ff
EndChar

StartChar: uni0163
Encoding: 355 355 469
Width: 316
GlyphClass: 2
Flags: MW
LayerCount: 2
Fore
SplineSet
168 -96 m 0
 149 -96 139 -97 123 -102 c 1
 117 -96 l 1
 153.2 -9.2 l 1
 114.4 -4.2 89 24.8 89 89 c 2
 89 390 l 1
 30 390 l 2
 26 390 25 391 25 396 c 2
 25 409 l 2
 25 417 29 429 43 429 c 2
 89 429.1 l 1
 89 540 86 533.4 86 545 c 0
 86 551.9 96 555.3 108 558.7 c 0
 120.5 562.2 130.7 566.5 142 572.8 c 0
 151.3 577.9 159.8 581.8 164.3 581.8 c 0
 169 581.8 172 579.4 172 573 c 2
 172 573 168 533 168 468 c 2
 168 429 l 1
 288 429 l 2
 293 429 296 427 296 423 c 2
 296 403 l 2
 296 394 282 390 272 390 c 2
 168 390 l 1
 168 137 l 2
 168 75 174 45 201 45 c 0
 227 45 257 53 283 73 c 1
 293 72 299 66.3 301 56 c 1
 268.1 18.9 227.4 -2.6 187.9 -8.4 c 1
 166 -67 l 1
 174 -65 183 -64 192 -64 c 0
 232 -64 263 -88 263 -126 c 0
 263 -169 217 -200 156 -200 c 0
 124 -200 107 -194 82 -183 c 1
 82 -171 85 -164 92 -157 c 1
 119 -167 130 -171 150 -171 c 0
 180 -171 201 -157 201 -131 c 0
 201 -110 191 -96 168 -96 c 0
EndSplineSet
Colour: ff00ff
EndChar

StartChar: Tbar
Encoding: 358 358 472
Width: 597
GlyphClass: 2
Flags: MW
LayerCount: 2
Fore
SplineSet
350 122 m 2
 350 39 367 34 447 31 c 1
 453 25 453 4 447 -2 c 1
 397 -1 346.4 0 308 0 c 0
 267.9 0 217 -1 168 -2 c 1
 162 4 162 25 168 31 c 1
 248 34 265 39 265 122 c 2
 265 321 l 1
 141 321 l 2
 133 321 130 329 130 335 c 0
 130 345 140 360 149 360 c 2
 265 360 l 1
 265 507 l 2
 265 568 255 606 218 606 c 2
 169 606 l 2
 103 606 57 580 37 500 c 1
 25 500 13 501 3 505 c 1
 14 553 24 605 28 650 c 0
 28 651 30 653 32 653 c 0
 70 650 188 645 265 645 c 2
 351 645 l 2
 430 645 541 650 575 653 c 0
 576 653 578 651 578 650 c 0
 579 605 584 554 591 508 c 1
 582 504 568 503 557 503 c 1
 540 580 493 606 418 606 c 2
 396 606 l 2
 360 606 350 568 350 504 c 2
 350 360 l 1
 486 360 l 2
 495 360 498 352 498 347 c 0
 498 336 489 321 477 321 c 2
 350 321 l 1
 350 122 l 2
EndSplineSet
Position2: "'cpsp' Versalabstaende 1" dx=2 dy=0 dh=5 dv=0
Colour: ff9ccc
EndChar

StartChar: tbar
Encoding: 359 359 473
Width: 316
GlyphClass: 2
Flags: MW
LayerCount: 2
Fore
SplineSet
43 429 m 2
 89 429.1 l 1
 89 540 86 533.4 86 545 c 0
 86 551.9 96 555.3 108 558.7 c 0
 120.5 562.2 130.7 566.5 142 572.8 c 0
 151.3 577.9 159.8 581.8 164.3 581.8 c 0
 169 581.8 172 579.4 172 573 c 2
 172 573 168 533 168 468 c 2
 168 429 l 1
 288 429 l 2
 293 429 296 427 296 423 c 2
 296 403 l 2
 296 394 282 390 272 390 c 2
 168 390 l 1
 168 284 l 1
 268 284 l 2
 277 284 280 276 280 271 c 0
 280 260 271 245 259 245 c 2
 168 245 l 1
 168 137 l 2
 168 75 174 45 201 45 c 0
 227 45 257 53 283 73 c 1
 293 72 299 66.3 301 56 c 1
 262 12 212 -10 166 -10 c 0
 120 -10 89 18 89 89 c 2
 89 245 l 1
 30 245 l 2
 22 245 19 253 19 259 c 0
 19 269 29 284 38 284 c 2
 89 284 l 1
 89 390 l 1
 30 390 l 2
 26 390 25 391 25 396 c 2
 25 409 l 2
 25 417 29 429 43 429 c 2
EndSplineSet
Colour: ff9ccc
EndChar

StartChar: Uogonek
Encoding: 370 370 484
Width: 661
GlyphClass: 2
Flags: MW
AnchorPoint: "above" 346 850 basechar 0
AnchorPoint: "below" 188 -110 basechar 0
AnchorPoint: "cedilla" 328 4 basechar 0
AnchorPoint: "middle" 336 321 basechar 0
LayerCount: 2
Fore
SplineSet
498 -135 m 1
 469 -180 429 -200 388 -200 c 0
 338 -200 300 -180 300 -126 c 0
 300 -83.2 337.3 -42.8 390.6 -4.2 c 1
 369.7 -8 346.6 -10 321 -10 c 0
 218.5 -10 87 29 87 233 c 2
 87 523 l 2
 87 606 70 611 10 614 c 1
 4 620 4 641 10 647 c 1
 49 646 90 645 129 645 c 0
 168.4 645 217 646 264 647 c 1
 270 641 270 620 264 614 c 1
 187 611 172 606 172 523 c 2
 172 266 l 2
 172 201 174 125 223 78 c 0
 253.1 49.1 294 31 342 31 c 0
 511 31 526 165 526 277 c 2
 526 523 l 2
 526 604 509 607 434 614 c 1
 428 620 428 641 434 647 c 1
 480 646 528.5 645 550 645 c 0
 573.2 645 614 646 652 647 c 1
 658 641 658 620 652 614 c 1
 592 607 575 603.3 575 523 c 2
 575 295 l 2
 575 173.8 552.3 76.2 473.1 26.3 c 1
 396.8 -36.3 362 -67.5 362 -115 c 0
 362 -141 375 -162 412 -162 c 0
 441 -162 457 -146 479 -124 c 1
 488 -124 494 -128 498 -135 c 1
EndSplineSet
Position2: "'cpsp' Versalabstaende 1" dx=2 dy=0 dh=5 dv=0
Colour: ff00ff
EndChar

StartChar: uogonek
Encoding: 371 371 485
Width: 531
GlyphClass: 2
Flags: MW
LayerCount: 2
Fore
SplineSet
501 -135 m 1
 472 -180 432 -200 391 -200 c 0
 341 -200 303 -180 303 -126 c 0
 303 -85.6 323.3 -29.6 374 7.1 c 1
 371.4 19 368.4 35.2 367 49 c 0
 366.3 56 357 54 352 50 c 0
 303 10 256 -10 217 -10 c 0
 118 -10 88 57 88 126 c 2
 88 318 l 2
 88 383 74 394 26 398 c 1
 20 404 20 425 26 431 c 1
 60 430 96 429 128 429 c 0
 143 429 158 430 163 431 c 0
 168 431 171 428 171 425 c 2
 171 425 167 352 167 322 c 2
 167 140 l 2
 167 51 217 37 247 37 c 0
 272 37 310 53 347 85 c 0
 361 97 363 105 363 124 c 2
 363 317 l 2
 363 383 350 395 301 398 c 1
 295 404 295 425 301 431 c 1
 335 430 371 429 403 429 c 0
 418 429 433 430 438 431 c 0
 443 431 446 428 446 425 c 2
 446 425 442 352 442 322 c 2
 442 130 l 2
 442 81 451 62 515 57 c 1
 521 51 521 36 515 30 c 1
 479.4 25.9 452.7 19.1 432.2 10.6 c 1
 381.8 -17.4 365 -75.7 365 -115 c 0
 365 -141 378 -162 415 -162 c 0
 444 -162 460 -146 482 -124 c 1
 491 -124 497 -128 501 -135 c 1
EndSplineSet
Colour: ff9ccc
EndChar

StartChar: wcircumflex
Encoding: 373 373 487
Width: 747
GlyphClass: 2
Flags: MW
LayerCount: 2
Fore
SplineSet
203 398 m 1
 155 395 154 379 172.9 331 c 2
 252.9 125 l 2
 265.8 92.5 268 94 281 127 c 2
 351 304 l 1
 344.6 320 l 2
 326.7 364.8 315 393.5 268 398 c 1
 262 404 262 425 268 431 c 1
 298 430 331 429 356 429 c 0
 386 429 426 430 456 431 c 1
 462 425 462 404 456 398 c 1
 403 394 401 384 419.5 337 c 2
 505.8 118 l 2
 514 97.2 518 97 528 122 c 2
 611.6 330 l 2
 625.7 365.1 636 394 561 398 c 1
 555 404 555 425 561 431 c 1
 591 430 633 429 663 429 c 0
 693 429 715 430 735 431 c 1
 741 425 741 404 735 398 c 1
 684 395 666.9 366.9 650.5 326 c 2
 520 9 l 2
 514 -6 506 -12 497 -12 c 0
 487 -12 479 -6 473 8 c 2
 370 256 l 1
 269 10 l 2
 262 -6 254 -12 245 -12 c 0
 235 -12 227 -6 221 8 c 2
 90.1 331 l 2
 69 383 58.1 393.2 11 398 c 1
 5 404 5 425 11 431 c 1
 37.2 430 64 429 102 429 c 0
 138 429 173 430 203 431 c 1
 209 425 209 404 203 398 c 1
EndSplineSet
Refer: 671 770 N 1 0 0 1 506 -52 2
Colour: ff00ff
EndChar

StartChar: longs
Encoding: 383 383 497
Width: 291
GlyphClass: 2
Flags: MW
LayerCount: 2
Fore
SplineSet
172 122 m 2
 172 39 183 34 251 31 c 1
 257 25 257 4 251 -2 c 1
 208 -1 179 0 133 0 c 0
 92 0 70 -1 28 -2 c 1
 22 4 22 25 28 31 c 1
 82 34 93 39 93 122 c 2
 93 379 l 2
 93 391 92 395 78 395 c 2
 34 395 l 2
 30 395 29 396 29 400 c 2
 29 409 l 2
 29 417 34 429 52 429 c 0
 83 429 93 450 93 477 c 0
 93 635 181 698 248 698 c 0
 289 698 311 686 331 668 c 0
 346 655 357 639 357 622 c 0
 357 605 348 584 322 584 c 0
 295 584 281 598 276 625 c 0
 272 645 265 664 241 664 c 0
 188 664 172 594 172 474 c 2
 172 122 l 2
EndSplineSet
EndChar

StartChar: uni0186
Encoding: 390 390 498
Width: 646
GlyphClass: 2
Flags: MW
LayerCount: 2
Fore
SplineSet
289 658 m 0
 504 658 609 511.8 609 338 c 0
 609 233.7 569.4 135.8 503 75 c 0
 444 21 373 -10 288 -10 c 0
 165 -10 120 30 69 35 c 1
 59 90 52 138 47 190 c 1
 58.3 196 68 199 80 195 c 1
 106 109 161 27 299 27 c 0
 351 27 409 55 458.6 116 c 0
 495.1 160.9 518 232.7 518 319 c 0
 518 465 424.6 617 290 617 c 0
 197 617 129 586 58 508 c 1
 47 508 40 514 35 523 c 1
 103 612 192 658 289 658 c 0
EndSplineSet
Colour: ff00ff
EndChar

StartChar: uni018E
Encoding: 398 398 500
Width: 560
GlyphClass: 2
Flags: MW
LayerCount: 2
Fore
SplineSet
69 645 m 1
 403 645 l 1
 533 646 l 1
 533 625 l 2
 533 622 532 618 525 618 c 2
 496 618 l 2
 458 618 444 603 444 572 c 2
 444 72 l 2
 444 44 456 27 496 27 c 2
 525 27 l 2
 532 27 533 23 533 20 c 2
 533 -2 l 1
 404 0 l 1
 326 0 l 1
 52 0 l 1
 27 160 l 1
 53 165 l 1
 69 92 97 39 163 39 c 2
 327 39 l 2
 349 39 363 45 363 72 c 2
 363 327 l 1
 227 327 l 2
 193 327 182 312 176 283 c 2
 170 252 l 2
 170 249 167 245 162 245 c 2
 139 245 l 1
 137 248 l 1
 139 265 145 310 145 344 c 0
 145 377 140 414 137 439 c 0
 137 441 138 443 140 443 c 2
 162 443 l 2
 166 443 169 439 169 435 c 2
 176 405 l 2
 183 377 191 361 227 361 c 2
 363 361 l 1
 363 573 l 2
 363 597 351 605 327 605 c 2
 175 605 l 2
 123 605 89 545 82 502 c 1
 55 505 l 1
 69 645 l 1
EndSplineSet
EndChar

StartChar: uni018F
Encoding: 399 399 501
Width: 644
GlyphClass: 2
Flags: MW
LayerCount: 2
Fore
SplineSet
97 523 m 1
 74 547 l 1
 153 621 200 658 310 658 c 0
 525 658 611 485 611 326 c 0
 611 131 509 -12 316 -12 c 0
 124 -12 53 118 42 260 c 1
 520 260 l 1
 521 271 521 283 521 297 c 0
 521 483 429 624 294 624 c 0
 201 624 150 575 97 523 c 1
122 216 m 1
 153 86 225 22 323 22 c 0
 429 22 493 116 511 216 c 1
 122 216 l 1
EndSplineSet
EndChar

StartChar: florin
Encoding: 402 402 502
Width: 440
GlyphClass: 2
Flags: MW
LayerCount: 2
Fore
SplineSet
173 390 m 1
 78 390 l 2
 74 390 73 391 73 396 c 2
 73 409 l 2
 73 417 78 429 96 429 c 2
 132 429 l 2
 168 429 183 454 187 483 c 0
 206 631 268 698 326 698 c 0
 406 698 432 659 432 630 c 0
 432 610 420 593 400 593 c 0
 380 593 364 599 361 618 c 0
 358 634 348 669 325 669 c 0
 307 669 277 647 264 541 c 2
 250 429 l 1
 361 429 l 2
 366 429 369 427 369 423 c 2
 369 403 l 2
 369 394 355 390 346 390 c 2
 244 390 l 1
 242 374 l 2
 192 -24 176 -232 56 -232 c 0
 0 -232 -30 -195 -30 -176 c 0
 -30 -161 -18 -142 2 -142 c 0
 20 -142 31 -150 37 -164 c 1
 44 -176 37 -196 59 -196 c 0
 147 -196 141 92 161 278 c 2
 173 390 l 1
EndSplineSet
EndChar

StartChar: uni019E
Encoding: 414 414 503
Width: 551
GlyphClass: 2
Flags: MW
AnchorPoint: "above" 278.5 646 basechar 0
AnchorPoint: "below" 279.6 -111 basechar 0
AnchorPoint: "cedilla" 135 10 basechar 0
LayerCount: 2
Fore
SplineSet
175 439 m 2
 172 350 l 1
 175 350 l 1
 243 425 293 439 347 439 c 0
 442 439 463 370 463 281 c 2
 463 -160 l 2
 463 -189 474 -200 507 -203 c 2
 528 -205 l 2
 533 -206 537 -208 537 -213 c 2
 537 -232 l 1
 535 -234 l 1
 535 -234 465 -232 421 -232 c 0
 381 -232 318 -234 318 -234 c 1
 315 -232 l 1
 315 -213 l 2
 315 -208 319 -206 324 -205 c 2
 339 -203 l 2
 373 -198 384 -189 384 -160 c 2
 384 288 l 2
 384 358 371 391 315 391 c 0
 269 391 229 374 175 314 c 1
 175 72 l 2
 175 43 185 34 220 29 c 2
 235 27 l 2
 240 26 244 24 244 19 c 2
 244 0 l 1
 242 -2 l 1
 242 -2 176 0 134 0 c 0
 91 0 24 -2 24 -2 c 1
 22 0 l 1
 22 19 l 2
 22 24 26 26 31 27 c 2
 51 29 l 2
 86 32 96 43 96 72 c 2
 96 321 l 2
 96 371 88 381 73 383 c 2
 27 387 l 1
 25 411 l 1
 99 422 141 431 171 442 c 1
 174 442 175 441 175 439 c 2
EndSplineSet
EndChar

StartChar: uni019F
Encoding: 415 415 504
Width: 702
GlyphClass: 2
Flags: MW
AnchorPoint: "cedilla" 350 0 basechar 0
AnchorPoint: "below" 350 -110 basechar 0
LayerCount: 2
Fore
SplineSet
666 329 m 0
 666 245 644 172.7 604.2 116 c 0
 549.3 37.7 460.8 -10 350 -10 c 0
 180 -10 37 113 37 310 c 0
 37 503.9 150.3 658 344 658 c 0
 523 658 666 536 666 329 c 0
568.7 348 m 1
 556.1 525.8 454.5 622 331 622 c 0
 235.4 622 139.7 542.7 133.3 348 c 1
 568.7 348 l 1
570 309 m 1
 133.3 309 l 1
 140.3 128.2 251.9 26 370 26 c 0
 483.8 26 569.7 130.6 570 309 c 1
EndSplineSet
Colour: ff9ccc
EndChar

StartChar: Ohorn
Encoding: 416 416 505
Width: 702
GlyphClass: 2
Flags: MW
AnchorPoint: "cedilla" 350 0 basechar 0
AnchorPoint: "below" 350 -110 basechar 0
LayerCount: 2
Fore
SplineSet
331 622 m 0
 232 622 133 537 133 327 c 0
 133 135 248 26 370 26 c 0
 484 26 570 131 570 310 c 0
 570 512 463 622 331 622 c 0
666 329 m 0
 666 245 644 172.7 604.2 116 c 0
 549.3 37.7 460.8 -10 350 -10 c 0
 180 -10 37 113 37 310 c 0
 37 503.9 150.3 658 344 658 c 0
 402.7 658 457.4 644.9 504.6 620 c 1
 515.3 617.7 524.7 617 536 617 c 0
 547 617 591 625 591 659 c 0
 591 672 574 683 560 684 c 0
 526 688 513 711 513 731 c 0
 513 755 529 770 559 770 c 0
 597 770 628 727 628 679 c 0
 628 629 605.7 593.6 552.4 588.6 c 1
 622.1 532.4 666 443.8 666 329 c 0
EndSplineSet
Colour: ff9ccc
EndChar

StartChar: ohorn
Encoding: 417 417 506
Width: 501
GlyphClass: 2
Flags: MW
AnchorPoint: "below" 243 -110 basechar 0
AnchorPoint: "ogonek" 372 44 basechar 0
AnchorPoint: "cedilla" 241 -3 basechar 0
LayerCount: 2
Fore
SplineSet
41 205 m 0
 41 268.2 60 326.4 96.3 369 c 0
 132.9 412 187.2 439 253 439 c 0
 294.5 439 328.9 430.1 357 415.1 c 1
 363.4 414.3 369.8 414 377 414 c 0
 388 414 430 420 430 454 c 0
 430 467 416 475 402 477 c 0
 368 480 354 502 354 522 c 0
 354 546 371 561 400 561 c 0
 438 561 464 520 464 473 c 0
 464 425.3 439.2 393.4 397.3 385.8 c 1
 443.7 341 463 274.6 463 214 c 0
 463 152.7 442.7 89.8 397.9 46 c 0
 363.8 12.7 315.4 -10 251 -10 c 0
 109 -10 41 103 41 205 c 0
238 404 m 0
 148 404 127 315 127 228 c 0
 127 151 161 25 265 25 c 0
 312 25 377 56 377 182 c 0
 377 326 324 404 238 404 c 0
EndSplineSet
Colour: ff9ccc
EndChar

StartChar: uni01A7
Encoding: 423 423 507
Width: 479
GlyphClass: 2
Flags: MW
LayerCount: 2
Fore
SplineSet
97 631 m 1
 152 639 150 658 243 658 c 0
 330 658 431 591 431 485 c 0
 431 368 308 318 236 291 c 1
 175 267 125 240 125 149 c 0
 125 68 183 24 259 24 c 0
 348 24 395 87 415 178 c 1
 445 175 l 1
 435 99 428 51 426 0 c 1
 409 0 400 5 380 5 c 0
 356 5 340 -12 242 -12 c 0
 127 -12 44 82 44 184 c 0
 44 305 137 346 221 376 c 0
 263 391 362 429 362 512 c 0
 362 573 318 624 252 624 c 0
 153 624 125 540 106 474 c 1
 76 479 l 1
 85 528 93 578 97 631 c 1
EndSplineSet
EndChar

StartChar: uni01A8
Encoding: 424 424 508
Width: 371
GlyphClass: 2
Flags: MW
LayerCount: 2
Fore
SplineSet
328 140 m 1
 321 0 l 1
 312 2 303 2 298 2 c 0
 291 2 286 2 279 0 c 0
 253 -7 224 -10 189 -10 c 0
 142 -10 37 17 37 116 c 0
 37 196 103 232 184 262 c 0
 238 282 257 302 257 342 c 0
 257 397 218 409 180 409 c 0
 159 409 98 393 77 311 c 1
 53 312 l 1
 54 348 58 382 63 414 c 1
 95 430 130 439 180 439 c 0
 259 439 318 394 318 327 c 0
 318 252 280 231 208 199 c 1
 128 165 104 136 104 93 c 0
 104 44 156 18 191 18 c 0
 229 18 258 36 269 47 c 0
 294 73 303 119 305 141 c 1
 328 140 l 1
EndSplineSet
EndChar

StartChar: uni01A9
Encoding: 425 425 509
Width: 592
GlyphClass: 2
Flags: MW
LayerCount: 2
Fore
SplineSet
372 603 m 2
 146 603 l 1
 364 328 l 1
 363 323 l 1
 103 43 l 1
 380 43 l 2
 457 43 483 98 503 170 c 1
 514.3 171.6 527.3 170 536 165 c 1
 530.8 109.4 525.2 53.9 510 0 c 1
 92 0 l 2
 64 0 21 -2 21 -2 c 1
 17.2 4.5 17.8 24.4 21 31 c 1
 32 34 41 41 50 52 c 2
 271 309 l 1
 273 310 l 1
 78 576 l 2
 60.8 599.4 46 610 22 614 c 1
 18.5 620 18.4 640.1 22 646 c 1
 123 645 l 1
 496 645 l 1
 508.6 586 512.7 538.1 517 490 c 1
 508.9 486.3 497.3 483 484 485 c 1
 462 554 447 603 372 603 c 2
EndSplineSet
Colour: ff00ff
EndChar

StartChar: Uhorn
Encoding: 431 431 510
Width: 690
GlyphClass: 2
Flags: MW
AnchorPoint: "cedilla" 328 4 basechar 0
LayerCount: 2
Fore
SplineSet
616 608.8 m 0
 584 606 575 586.2 575 523 c 2
 575 295 l 2
 575 117 526 -10 321 -10 c 0
 231 -10 87 32 87 236 c 2
 87 523 l 2
 87 606 70 611 10 614 c 1
 4 620 4 641 10 647 c 1
 60 646 83 645 129 645 c 0
 182 645 215 646 264 647 c 1
 270 641 270 620 264 614 c 1
 187 611 172 606 172 523 c 2
 172 269 l 2
 172 204 174 128 223 81 c 0
 253.1 52.1 294 31 342 31 c 0
 511 31 526 165 526 277 c 2
 526 523 l 2
 526 606 509 607 434 614 c 1
 428 620 428 641 434 647 c 1
 484 646 504 645 549 645 c 0
 632 645 648 650 648 671 c 0
 648 680 641.6 686.8 628 690 c 0
 607 695 594 711 594 731 c 0
 594 755 614 770 643 770 c 0
 681 770 696 733 696 686 c 0
 696 643 658.8 613.2 616 608.8 c 0
EndSplineSet
EndChar

StartChar: uhorn
Encoding: 432 432 511
Width: 531
GlyphClass: 2
Flags: MW
LayerCount: 2
Fore
SplineSet
217 -10 m 0
 118 -10 88 57 88 126 c 2
 88 318 l 2
 88 383 74 394 26 398 c 1
 20 404 20 425 26 431 c 1
 60 430 96 429 128 429 c 0
 143 429 158 430 163 431 c 0
 168 431 171 428 171 425 c 2
 171 425 167 352 167 322 c 2
 167 140 l 2
 167 51 217 37 247 37 c 0
 272 37 310 53 347 85 c 0
 361 97 363 105 363 124 c 2
 363 317 l 2
 363 383 350 395 301 398 c 1
 295 404 295 425 301 431 c 1
 335 430 371 429 403 429 c 0
 413 429 423 429.4 430 430 c 1
 430 431 l 1
 449 433 471 447 471 458 c 0
 471 469 463 478 444 479 c 0
 410 480 396 502 396 522 c 0
 396 546 413 561 442 561 c 0
 480 561 505 520 505 473 c 0
 505 447 487.3 413.8 444.9 404.3 c 1
 443.7 380.4 442 341.8 442 322 c 2
 442 130 l 2
 442 81 451 62 515 57 c 1
 521 51 521 36 515 30 c 1
 454 23 419 8 397 -10 c 1
 390.5 -12.5 386 -13 378 -10 c 1
 378 -10 369.5 23.5 367 49 c 0
 366.3 56 357 54 352 50 c 0
 303 10 256 -10 217 -10 c 0
EndSplineSet
Colour: ff9ccc
EndChar

StartChar: uni01B5
Encoding: 437 437 512
Width: 604
GlyphClass: 2
Flags: MW
LayerCount: 2
Fore
SplineSet
551 -2 m 1
 551 -2 451.3 0 424.3 0 c 2
 60 0 l 2
 46 0 41 5 41 15 c 0
 41 22 43 30 49 38 c 0
 97.6 110.4 166.1 208.7 235.1 305 c 1
 110 305 l 2
 102 305 99 313 99 319 c 0
 99 329 109 344 118 344 c 2
 263.1 344 l 1
 329.3 435.9 393.5 522.5 438 579 c 0
 443 586 446 592 446 597 c 0
 446 603 441.9 606.1 436 606 c 2
 225 602 l 2
 150 600.6 112 565 91 496 c 1
 80 496 71 498 61 501 c 1
 69 542 79 599 83 653 c 1
 120 650 217 645 264 645 c 2
 485 645 l 2
 515 645 546 647 558 647 c 0
 566 647 571 643 571 636 c 0
 571 625 568.1 618.2 547 591 c 0
 494 522.7 427.6 432.4 364 344 c 1
 518 344 l 2
 527 344 530 336 530 331 c 0
 530 320 521 305 509 305 c 2
 336 305 l 1
 268.7 211 207.3 123.3 172 72 c 0
 167 63 164 57 164 52 c 0
 164 43 172 37.6 189 38 c 2
 382 42 l 2
 491 44 516 99 547 170 c 1
 560 170 571 167 578 165 c 1
 566 113 556 54 551 -2 c 1
EndSplineSet
Colour: ff9ccc
EndChar

StartChar: uni01B6
Encoding: 438 438 513
Width: 424
GlyphClass: 2
Flags: MW
LayerCount: 2
Fore
SplineSet
71 439 m 0
 85.5 433.6 97.9 429 130 429 c 2
 313 429 l 2
 342 429 370 431 375 431 c 0
 382 431 387 428 387 424 c 0
 387 420 384.3 412.2 369 387 c 0
 342.6 343.6 308.6 290.2 272.6 236 c 1
 335 236 l 2
 344 236 347 228 347 223 c 0
 347 212 338 197 326 197 c 2
 246.4 197 l 1
 205.6 136.9 164 78.4 129 34 c 1
 262 34 l 1
 314.1 35.2 334.5 57.2 360 110 c 2
 374 139 l 1
 386 139 397.5 136.7 404 133 c 1
 397 83 384 31 372 -3 c 1
 60 0 l 2
 45 0 37 5 37 12 c 0
 37 17 37.4 20.4 46 32 c 0
 82.3 80.9 123.4 138.2 163.8 197 c 1
 77 197 l 2
 69 197 66 205 66 211 c 0
 66 221 76 236 85 236 c 2
 190.3 236 l 1
 227.3 290.9 262.6 345.7 292 395 c 1
 164 392 l 2
 134 391.3 103 374 83 301 c 1
 71.4 298.4 58.8 300.3 50 304 c 1
 59 353 64 388 65 433 c 0
 65 435.4 68.6 439 71 439 c 0
EndSplineSet
Colour: ff9ccc
EndChar

StartChar: uni01B7
Encoding: 439 439 514
Width: 608
GlyphClass: 2
Flags: MW
AnchorPoint: "below" 272 -319 basechar 0
LayerCount: 2
Fore
SplineSet
167 645 m 2
 522 645 l 2
 543 645 550 639 550 631 c 0
 550 621 544 605 535 590 c 2
 367 288 l 1
 501 261 564 162 564 51 c 0
 564 -88 432 -211 272 -211 c 0
 192 -211 42 -176 42 -110 c 0
 42 -87 52 -60 86 -60 c 0
 113 -60 141 -74 154 -95 c 0
 186 -144 236 -174 291 -174 c 0
 378 -174 475 -53 475 42 c 0
 475 201 360 255 291 255 c 0
 275 255 264 255 250 252 c 1
 446 605 l 1
 197 605 l 1
 123 604 94 521 90 477 c 1
 64 479 l 1
 85 667 l 1
 108 662 143 645 167 645 c 2
EndSplineSet
EndChar

StartChar: uni01B8
Encoding: 440 440 515
Width: 608
GlyphClass: 2
Flags: MW
LayerCount: 2
Fore
SplineSet
443 645 m 2
 468 645 502 662 526 667 c 1
 547 479 l 1
 521 476 l 1
 517 521 488 604 414 605 c 1
 165 605 l 1
 360 252 l 1
 346 255 334 255 319 255 c 0
 250 255 136 201 136 42 c 0
 136 -53 232 -174 320 -174 c 0
 375 -174 425 -144 457 -95 c 0
 470 -74 498 -60 524 -60 c 0
 559 -60 569 -87 569 -110 c 0
 569 -176 419 -211 339 -211 c 0
 179 -211 46 -88 46 51 c 0
 46 162 109 261 244 288 c 1
 77 590 l 2
 69 604 61 621 61 631 c 0
 61 639 68 645 88 645 c 2
 443 645 l 2
EndSplineSet
EndChar

StartChar: uni01B9
Encoding: 441 441 516
Width: 448
GlyphClass: 2
Flags: MW
LayerCount: 2
Fore
SplineSet
317 429 m 2
 329 429 338 431 338 447 c 1
 360 451 l 1
 392 299 l 1
 365 294 l 1
 347 378 317 390 287 390 c 2
 145 390 l 1
 302 106 l 1
 280 111 261 113 243 113 c 0
 165 113 98 50 98 -35 c 0
 98 -153 186 -200 235 -200 c 0
 276 -200 304 -177 316 -154 c 1
 329 -133 345 -126 368 -126 c 0
 389 -126 397 -141 397 -157 c 0
 397 -189 335 -229 244 -229 c 0
 100 -229 23 -130 23 -34 c 0
 23 72 86 142 204 152 c 1
 73 387 l 1
 67 400 63 410 63 416 c 0
 63 425 69 429 87 429 c 2
 317 429 l 2
EndSplineSet
EndChar

StartChar: uni01C0
Encoding: 448 448 517
Width: 185
GlyphClass: 2
Flags: MW
LayerCount: 2
Fore
SplineSet
112 -10 m 1
 73 -10 l 1
 73 698 l 1
 112 698 l 1
 112 -10 l 1
EndSplineSet
EndChar

StartChar: uni01C2
Encoding: 450 450 519
Width: 332
GlyphClass: 2
Flags: MW
LayerCount: 2
Fore
SplineSet
291 323 m 1
 291 289 l 1
 175 289 l 1
 175 -10 l 1
 136 -10 l 1
 136 289 l 1
 25 289 l 1
 25 323 l 1
 136 323 l 1
 136 395 l 1
 25 395 l 1
 25 429 l 1
 136 429 l 1
 136 698 l 1
 175 698 l 1
 175 429 l 1
 291 429 l 1
 291 395 l 1
 175 395 l 1
 175 323 l 1
 291 323 l 1
EndSplineSet
Colour: ff9ccc
EndChar

StartChar: uni01D7
Encoding: 471 471 540
Width: 667
GlyphClass: 2
Flags: MW
LayerCount: 2
Fore
SplineSet
434.1 849.9 m 1
 456.2 838.2 472.1 822.9 481.9 804.1 c 1
 371 753 l 2
 354.8 745.1 345.5 742.5 338.6 742.5 c 0
 331.7 742.5 327.1 748.7 327.1 755.7 c 0
 327.1 761.9 328.6 766.3 338.6 774.2 c 2
 434.1 849.9 l 1
EndSplineSet
Refer: 371 -1 N 1 0 0 1 0 0 2
Colour: ff00ff
EndChar

StartChar: uni01D8
Encoding: 472 472 541
Width: 531
GlyphClass: 2
Flags: MW
LayerCount: 2
Fore
SplineSet
313.4 747.2 m 1
 315.8 748.1 320.6 749 324.6 749 c 0
 329.7 749 350.2 748.1 368.6 728.3 c 1
 371 718.4 l 1
 279 620.3 l 2
 267 606.8 260.6 603.2 255 603.2 c 0
 249.4 603.2 243.8 608.6 243.8 614.9 c 0
 243.8 625 246.5 628.6 253 640.1 c 2
 313.4 747.2 l 1
EndSplineSet
Refer: 394 252 N 1 0 0 1 0 0 2
Colour: ff00ff
EndChar

StartChar: uni01D9
Encoding: 473 473 542
Width: 667
GlyphClass: 2
Flags: MW
LayerCount: 2
Fore
SplineSet
335.2 748.1 m 1
 312.1 780.7 285.1 807.1 257.4 831.7 c 1
 269.7 849.3 l 1
 299.7 834.3 325.9 817.6 351.3 795.6 c 1
 379.8 818.5 404.4 835.2 433.7 849.3 c 1
 445.3 831.7 l 1
 416 806.2 391.4 778 368.3 748.1 c 1
 335.2 748.1 l 1
EndSplineSet
Refer: 371 -1 N 1 0 0 1 0 0 2
Colour: ff00ff
EndChar

StartChar: uni01DA
Encoding: 474 474 543
Width: 531
GlyphClass: 2
Flags: MW
LayerCount: 2
Fore
SplineSet
231.2 644.2 m 1
 208 686.5 178.4 727 150.4 761.2 c 1
 166.4 772.9 l 1
 197.6 746.8 224 724.3 251.2 691.9 c 1
 280.8 726.1 308 748.6 337.6 772.9 c 1
 352.8 761.2 l 1
 324.8 726.1 294.4 685.6 271.2 644.2 c 1
 231.2 644.2 l 1
EndSplineSet
Refer: 394 252 N 1 0 0 1 0 0 2
Colour: ff00ff
EndChar

StartChar: uni01DB
Encoding: 475 475 544
Width: 667
GlyphClass: 2
Flags: MW
LayerCount: 2
Fore
SplineSet
264.9 849.1 m 1
 358.1 775.2 l 2
 366.6 768.2 369.6 762.9 369.6 756.7 c 0
 369.6 749.7 364.3 743.5 358.1 743.5 c 0
 351.9 743.5 341.2 746.1 325 754 c 2
 206.4 809.5 l 1
 220.5 825.1 238.6 838.9 264.9 849.1 c 1
EndSplineSet
Refer: 371 -1 N 1 0 0 1 0 0 2
Colour: ff00ff
EndChar

StartChar: uni01DC
Encoding: 476 476 545
Width: 531
GlyphClass: 2
Flags: MW
LayerCount: 2
Fore
SplineSet
205.2 760.2 m 1
 261.2 646.8 l 2
 265.2 637.8 266 631.5 266 625.2 c 0
 266 620.7 260.4 615.3 254 615.3 c 0
 249.2 615.3 243.6 619.8 230.8 633.3 c 2
 139.6 731.4 l 1
 141.2 741.3 l 1
 147.6 746.7 166 762 193.2 762 c 0
 197.2 762 202 761.1 205.2 760.2 c 1
EndSplineSet
Refer: 394 252 N 1 0 0 1 0 0 2
Colour: ff00ff
EndChar

StartChar: uni01DD
Encoding: 477 477 546
Width: 447
GlyphClass: 2
Flags: MW
AnchorPoint: "above" 214 645 basechar 0
LayerCount: 2
Fore
SplineSet
304 147 m 1
 123 144 l 2
 112 143.8 108 139 108 130 c 0
 108 46 153 25 191 25 c 0
 215 25 285 34 304 147 c 1
42 336 m 1
 30 337 24 342 21 352 c 1
 61 404 115 439 191 439 c 0
 263 439 310 415 344 375 c 0
 377 337 391 283 391 227 c 0
 391 75 278 -8 191 -8 c 0
 52 -8 22 82 22 166 c 0
 22 177 29 183 41 183 c 2
 307 181 l 1
 307 239 295 285 275 318 c 0
 244 369 202 390 166 390 c 0
 108 390 79 374 42 336 c 1
EndSplineSet
Colour: ff00ff
EndChar

StartChar: uni01E0
Encoding: 480 480 549
Width: 695
GlyphClass: 2
Flags: MW
LayerCount: 2
Fore
SplineSet
441 781 m 1
 525 781 l 2
 535 781 539 773 539 766 c 0
 539 754 528 737 516 737 c 2
 433 737 l 1
 441 781 l 1
274 737 m 1
 189 737 l 2
 180 737 177 745 177 752 c 0
 177 763 187 781 199 781 c 2
 283 781 l 1
 274 737 l 1
EndSplineSet
Refer: 613 550 N 1 0 0 1 0 0 2
Colour: ff9ccc
EndChar

StartChar: uni01E4
Encoding: 484 484 553
Width: 685
GlyphClass: 2
Flags: MW
LayerCount: 2
Fore
SplineSet
377 658 m 0
 488 658 525 623 585 613 c 1
 601 541 605.5 501 608 459 c 1
 596.7 454.3 586.3 452.3 575 453 c 1
 549 539 508 622 363 622 c 0
 246.5 622 133 502 133 327 c 0
 133 195 217 26 375 26 c 0
 429 26 496 32 530 64 c 1
 530 153 l 1
 417 153 l 1
 408 155 405 160.8 405 166.4 c 0
 405 176 414 190.7 426 193 c 1
 530 193 l 1
 530 217 l 2
 530 257.1 502.9 260.8 448 265 c 1
 442 271 442 295 448 301 c 1
 492 300 538.5 299 572 299 c 0
 612 299 637 300 661 301 c 1
 667 295 667 271 661 265 c 1
 632 262 615 252.2 615 217 c 2
 615 193 l 1
 682 193 l 1
 691.3 191.7 695 185.2 695 180.4 c 0
 695 170.8 684.3 155 672 153 c 1
 615 153 l 1
 615 101 l 2
 615 90 620 82 631 73 c 1
 563 15 470 -10 352 -10 c 0
 161 -10 37 127.2 37 307 c 0
 37 527 210 658 377 658 c 0
EndSplineSet
Colour: ff9ccc
EndChar

StartChar: uni01E5
Encoding: 485 485 554
Width: 500
GlyphClass: 2
Flags: MW
LayerCount: 2
Fore
SplineSet
319 279 m 0
 319 362 285 408 222 408 c 0
 167 408 142 372 142 302 c 0
 142 238 151 167 235 167 c 0
 272 167 319 186 319 279 c 0
444 387 m 0
 433 387 420 397 416 405 c 1
 410 414 403 417 396 417 c 0
 383 417 363 403 356 393 c 1
 385 363 399 336 399 289 c 0
 399 191 318 136 230 136 c 0
 191 136 163 143 139 157 c 1
 127 140 121 119 121 99 c 0
 121 56 156 42 185 42 c 0
 190 42 200 43 215 44 c 0
 239 47 264 49 282 49 c 0
 319 49 389 48 428 16 c 0
 457 -8 472 -33 472 -65 c 0
 472 -72.5 471.3 -79.9 469.9 -87 c 1
 503 -87 l 1
 512.3 -88.3 516 -94.8 516 -99.6 c 0
 516 -109.2 505.3 -125 493 -127 c 1
 454.2 -127 l 1
 411.3 -197.4 297.7 -238 191 -238 c 0
 114.9 -238 33.9 -211.6 32 -127 c 1
 7 -127 l 1
 -2 -125 -5 -119.2 -5 -113.6 c 0
 -5 -104 4 -89.3 16 -87 c 1
 38.7 -87 l 1
 50 -56 75.3 -25.9 114 -3 c 1
 88 10 68 38 68 74 c 0
 68 108 84 151 112 175 c 1
 84 202 60 233 60 287 c 0
 60 379 142 439 231 439 c 0
 290 439 323 419 335 411 c 1
 361 445 409 462 435 462 c 0
 462 462 481 446 481 425 c 0
 481 405 463 387 444 387 c 0
416.9 -87 m 1
 415.7 -63.5 403 -49.8 366 -29 c 0
 337 -13 295 -12 245 -12 c 0
 231 -12 203 -15 172 -15 c 0
 159 -15 143 -13 132 -10 c 1
 108 -38.9 102.5 -61 101.3 -87 c 1
 416.9 -87 l 1
407.1 -127 m 1
 104.5 -127 l 1
 120.7 -178.6 189.4 -201 221 -201 c 0
 294.6 -201 378.8 -175.6 407.1 -127 c 1
EndSplineSet
Colour: ff9ccc
EndChar

StartChar: uni01EA
Encoding: 490 490 559
Width: 702
GlyphClass: 2
Flags: MW
LayerCount: 2
Fore
SplineSet
532 -135 m 1
 503 -180 463 -200 422 -200 c 0
 372 -200 334 -180 334 -126 c 0
 334 -82.2 373.3 -40.7 428.7 -1.3 c 1
 404 -7 377.7 -10 350 -10 c 0
 180 -10 37 113 37 310 c 0
 37 503.9 150.3 658 344 658 c 0
 523 658 666 536 666 329 c 0
 666 245 644 172.7 604.2 116 c 0
 580.6 82.4 550.8 54.4 515.7 33.4 c 1
 433.4 -34 396 -65.7 396 -115 c 0
 396 -141 409 -162 446 -162 c 0
 475 -162 491 -146 513 -124 c 1
 522 -124 528 -128 532 -135 c 1
331 622 m 0
 232 622 133 537 133 327 c 0
 133 135 248 26 370 26 c 0
 484 26 570 131 570 310 c 0
 570 512 463 622 331 622 c 0
EndSplineSet
Colour: ff9ccc
EndChar

StartChar: uni01EB
Encoding: 491 491 560
Width: 504
GlyphClass: 2
Flags: MW
LayerCount: 2
Fore
SplineSet
382 -135 m 1
 353 -180 313 -200 272 -200 c 0
 222 -200 184 -180 184 -126 c 0
 184 -85.2 218.1 -46.5 267.5 -9.5 c 1
 262.1 -9.8 256.6 -10 251 -10 c 0
 109 -10 41 103 41 205 c 0
 41 268.2 60 326.4 96.3 369 c 0
 132.9 412 187.2 439 253 439 c 0
 406 439 463 318 463 214 c 0
 463 152.7 442.7 89.8 397.9 46 c 0
 379.2 27.7 356.2 12.7 328.7 2.8 c 1
 272.1 -44.9 246 -73.8 246 -115 c 0
 246 -141 259 -162 296 -162 c 0
 325 -162 341 -146 363 -124 c 1
 372 -124 378 -128 382 -135 c 1
238 404 m 0
 148 404 127 315 127 228 c 0
 127 151 161 25 265 25 c 0
 312 25 377 56 377 182 c 0
 377 326 324 404 238 404 c 0
EndSplineSet
Colour: ff00ff
EndChar

StartChar: uni01F6
Encoding: 502 502 571
Width: 900
GlyphClass: 2
Flags: MW
LayerCount: 2
Fore
SplineSet
513 132 m 2
 513 321 l 1
 187 321 l 1
 187 72 l 2
 187 41 202.3 32.1 242 29 c 2
 268 27 l 2
 272 26.7 276 24 276 19 c 2
 276 0 l 1
 274 -2 l 1
 274 -2 188 0 148 0 c 0
 113 0 20 -2 20 -2 c 1
 18 0 l 1
 18 19 l 2
 18 24 21 26.7 25 27 c 2
 52 29 l 2
 92.8 32 106 44 106 72 c 2
 106 574 l 2
 106 604 89.8 613.2 52 616 c 2
 25 618 l 2
 21 618.3 17 621 17 626 c 2
 17 645 l 1
 19 647 l 1
 19 647 106 645 145 645 c 0
 181 645 274 647 274 647 c 1
 276 645 l 1
 276 626 l 2
 276 621 273 618.4 268 618 c 2
 242 616 l 2
 201.8 612.9 187 602 187 574 c 2
 187 363 l 1
 513 363 l 1
 513 574 l 2
 513 604 498.3 613 459 616 c 2
 433 618 l 2
 428 618.4 424 621 424 626 c 2
 424 645 l 1
 426 647 l 1
 426 647 513 645 552 645 c 0
 588 645 681 647 681 647 c 1
 683 645 l 1
 683 626 l 2
 683 621 680 618.4 675 618 c 2
 649 616 l 2
 608.7 612.9 594 602 594 574 c 2
 594 129 l 2
 594 64 633 37 680 37 c 0
 755 37 816 139 816 237 c 0
 816 333 784 363 755 368 c 0
 744 369 713 374 713 405 c 0
 713 423 727 442 754 442 c 0
 823 442 853 369 853 249 c 0
 853 66 760 -10 680 -10 c 0
 576 -10 513 41 513 132 c 2
EndSplineSet
EndChar

StartChar: uni01F7
Encoding: 503 503 572
Width: 540
GlyphClass: 2
Flags: MW
LayerCount: 2
Fore
SplineSet
322 609 m 0
 277 609 234 578 160 504 c 1
 160 66 l 1
 284 170 414 285 414 417 c 0
 414 542 391 609 322 609 c 0
160 547 m 1
 217 602 281 658 345 658 c 0
 466 658 504 566 504 457 c 0
 504 297 336 156 160 21 c 1
 160 -189 l 1
 21 -226 l 1
 14 -201 l 2
 13 -196 14 -193 19 -192 c 2
 39 -186 l 2
 69 -177 79 -159 79 -126 c 2
 79 523 l 2
 79 588 69 601 49 601 c 1
 17 603 l 2
 13.8 603.2 11 605 11 608 c 2
 9 632 l 1
 49.5 635 124.9 648 150 658 c 1
 159 658 163 655 163 648 c 2
 163 648 160 612 160 547 c 1
EndSplineSet
EndChar

StartChar: Aringacute
Encoding: 506 506 575
Width: 695
GlyphClass: 2
Flags: MW
LayerCount: 2
Fore
SplineSet
263 283 m 2
 440 283 l 1
 346 555 l 1
 340 555 l 1
 237.8 296.3 l 2
 234 286 241 283 263 283 c 2
155 79 m 2
 139.4 37.9 186.4 33.6 224 31 c 1
 230 25 230 4 224 -2 c 1
 187 -1 137 0 96 0 c 0
 65.7 0 33 -1 7 -2 c 1
 1 4 1 25 7 31 c 1
 50.5 34 81 40 107 102 c 2
 332.1 633.5 l 1
 297.8 645 271 677.2 271 714 c 0
 271 760 313 799 359 799 c 0
 392 799 422.9 779.5 437.8 751.1 c 1
 553 831 l 1
 581.6 817.7 602.3 800.3 615 779 c 1
 471 721 l 2
 461.3 716.8 453.5 713.9 447 712 c 1
 446.2 680.2 425.5 651.3 396.4 637.5 c 1
 595 86 l 2
 612.4 37.8 646.2 34.5 685 31 c 1
 691 25 691 4 685 -2 c 1
 650 -1 612 0 571 0 c 0
 532 0 477 -1 440 -2 c 1
 434 4 434 25 440 31 c 1
 487.6 34.4 525.8 37.5 514 72 c 2
 456 241 l 1
 245 241 l 2
 221 241 215 237 210 224 c 2
 155 79 l 2
359 767 m 0
 328 767 311 744 311 714 c 0
 311 686 328 661 359 661 c 0
 390 661 407 686 407 714 c 0
 407 745 389 767 359 767 c 0
EndSplineSet
Colour: ff00ff
EndChar

StartChar: aringacute
Encoding: 507 507 576
Width: 457
GlyphClass: 2
Flags: MW
LayerCount: 2
Fore
SplineSet
230.4 830.2 m 1
 232.8 831.1 237.6 832 241.6 832 c 0
 246.7 832 267.2 831.1 285.6 811.3 c 1
 288 801.4 l 1
 196 703.3 l 2
 184 689.8 177.6 686.2 172 686.2 c 0
 166.4 686.2 160.8 691.6 160.8 697.9 c 0
 160.8 708 163.5 711.6 170 723.1 c 2
 230.4 830.2 l 1
EndSplineSet
Refer: 380 229 N 1 0 0 1 0 0 2
Colour: ff00ff
EndChar

StartChar: uni020B
Encoding: 523 523 592
Width: 271
GlyphClass: 2
Flags: MW
LayerCount: 2
Fore
SplineSet
225 498 m 1
 215.1 551 176.4 588 127.8 588 c 0
 81 588 39.6 556 30.6 498 c 1
 6.3 510 l 1
 17.1 596 74.7 645 127.8 645 c 0
 190.8 645 236.7 595 249.3 510 c 1
 225 498 l 1
EndSplineSet
Refer: 419 305 N 1 0 0 1 0 0 2
Colour: ff00ff
EndChar

StartChar: uni0222
Encoding: 546 546 611
Width: 554
GlyphClass: 2
Flags: MW
LayerCount: 2
Fore
SplineSet
117 150 m 0
 117 46 227 22 271 22 c 0
 404 22 424 94 424 143 c 0
 424 232 333 274 248 312 c 1
 195 277 117 222 117 150 c 0
402 532 m 0
 402 608 341 666 274 666 c 1
 274 691 l 1
 438 691 476 589 476 536 c 0
 476 420 342 364 330 360 c 1
 398 330 506 279 506 169 c 0
 506 85 441 -12 266 -12 c 0
 166 -12 47 25 47 154 c 0
 47 261 172 321 211 332 c 1
 136 371 62 417 62 499 c 0
 62 591 145 658 248 658 c 1
 248 632 l 1
 188 632 143 572 143 519 c 0
 143 461 221 416 296 381 c 1
 368 431 402 458 402 532 c 0
EndSplineSet
EndChar

StartChar: uni0223
Encoding: 547 547 612
Width: 468
GlyphClass: 2
Flags: MW
LayerCount: 2
Fore
SplineSet
233 14 m 0
 334 14 360 77 360 141 c 0
 360 208 297 256 213 319 c 1
 173 281 l 2
 127 236 105 193 105 154 c 0
 105 74 156 14 233 14 c 0
336 530 m 0
 336 542 335 588 297 625 c 1
 313 652 l 1
 348 638 396 604 396 530 c 0
 396 431 298 374 282 368 c 1
 345 325 428 267 428 175 c 0
 428 58 354 -12 231 -12 c 0
 68 -12 41 97 41 145 c 0
 41 226 118 309 183 338 c 1
 131 381 59 428 59 517 c 0
 59 596 114 634 148 649 c 1
 169 624 l 1
 128 591 126 553 126 538 c 0
 126 471 253 389 253 389 c 1
 260 393 336 451 336 530 c 0
EndSplineSet
EndChar

StartChar: uni0228
Encoding: 552 552 615
Width: 557
GlyphClass: 2
Flags: MW
AnchorPoint: "above" 273 850 basechar 0
LayerCount: 2
Fore
SplineSet
256 -96 m 0
 237 -96 227 -97 211 -102 c 1
 205 -96 l 1
 245 0 l 1
 148 0 l 2
 115 0 55 -1 18 -2 c 1
 12 4 12 25 18 31 c 1
 88 34 105 39 105 122 c 2
 105 523 l 2
 105 606 88 611 18 614 c 1
 12 620 12 641 18 647 c 1
 58 646 116.5 645 147 645 c 2
 402 645 l 2
 426 645 434 646 451 649 c 0
 454 649 455 648 455 646 c 0
 457 638 472 542 477 501 c 1
 467.2 496.3 456.4 494.2 444 496 c 1
 422 565 406 605 331 605 c 2
 256 605 l 2
 202 605 190 585 190 541 c 2
 190 361 l 1
 281 361 l 2
 366 361 369 374 372 429 c 1
 378 435 399 435 405 429 c 1
 404 405 403 371 403 343 c 0
 403 308.7 404 281 405 255 c 1
 399 249 378 249 372 255 c 1
 369 300 366 323 281 323 c 2
 190 323 l 1
 190 102 l 2
 190 55 204 39 246 39 c 2
 362 39 l 2
 438 39 473 98 493 170 c 1
 506.1 173.2 517.6 171 528 165 c 1
 520 114 505 48 491 -2 c 1
 491 -2 411 0 363 0 c 2
 279 0 l 1
 254 -67 l 1
 262 -65 271 -64 280 -64 c 0
 320 -64 351 -88 351 -126 c 0
 351 -169 305 -200 244 -200 c 0
 212 -200 195 -194 170 -183 c 1
 170 -171 173 -164 180 -157 c 1
 207 -167 218 -171 238 -171 c 0
 268 -171 289 -157 289 -131 c 0
 289 -110 279 -96 256 -96 c 0
EndSplineSet
Colour: ff00ff
EndChar

StartChar: uni0229
Encoding: 553 553 616
Width: 447
GlyphClass: 2
Flags: MW
AnchorPoint: "above" 224 645 basechar 0
LayerCount: 2
Fore
SplineSet
229 -96 m 0
 210 -96 200 -97 184 -102 c 1
 178 -96 l 1
 214.2 -9.1 l 1
 154.9 -4.5 114.3 18.4 84 54 c 0
 51 92 37 146 37 202 c 0
 37 354 150 437 237 437 c 0
 376 437 406 347 406 263 c 0
 406 252 399 246 387 246 c 2
 121 248 l 1
 121 190 133 144 153 111 c 0
 184 60 226 39 262 39 c 0
 320 39 349 55 386 93 c 1
 398 92 404 87 407 77 c 1
 369 27.6 318.5 -6.4 248.4 -9.7 c 1
 227 -67 l 1
 235 -65 244 -64 253 -64 c 0
 293 -64 324 -88 324 -126 c 0
 324 -169 278 -200 217 -200 c 0
 185 -200 168 -194 143 -183 c 1
 143 -171 146 -164 153 -157 c 1
 180 -167 191 -171 211 -171 c 0
 241 -171 262 -157 262 -131 c 0
 262 -110 252 -96 229 -96 c 0
124 282 m 1
 305 285 l 2
 316 285.2 320 290 320 299 c 0
 320 383 275 404 237 404 c 0
 213 404 143 395 124 282 c 1
EndSplineSet
Colour: ff00ff
EndChar

StartChar: uni022A
Encoding: 554 554 617
Width: 702
GlyphClass: 2
Flags: MW
AnchorPoint: "cedilla" 350 0 basechar 0
AnchorPoint: "below" 350 -110 basechar 0
LayerCount: 2
Fore
SplineSet
440.3 800 m 2
 250 800 l 2
 242.3 800 238.9 811 238.9 818 c 0
 238.9 830 248.3 850 257.6 850 c 2
 448.8 850 l 2
 457.3 850 460.7 839 460.7 833 c 0
 460.7 821 451.4 800 440.3 800 c 2
EndSplineSet
Refer: 365 -1 N 1 0 0 1 0 0 2
Colour: ff00ff
EndChar

StartChar: uni022C
Encoding: 556 556 619
Width: 702
GlyphClass: 2
Flags: MW
AnchorPoint: "cedilla" 350 0 basechar 0
AnchorPoint: "below" 350 -110 basechar 0
LayerCount: 2
Fore
SplineSet
516 776 m 1
 577 776 l 2
 587 776 590 768 590 761 c 0
 590 750 580 732 567 732 c 2
 507 732 l 1
 516 776 l 1
186 732 m 1
 124 732 l 2
 115 732 111 740 111 747 c 0
 111 758 121 776 133 776 c 2
 194 776 l 1
 186 732 l 1
400.7 745.1 m 0
 419.4 745.1 428.7 756.1 440.6 802.3 c 1
 450 803.4 458.4 800.1 463.5 795.7 c 1
 453.3 729.7 428.7 686.8 389.6 686.8 c 0
 370.9 686.8 353 706.6 335.2 722 c 0
 319.9 734.1 303.8 742.9 289.3 742.9 c 0
 267.2 742.9 258.7 726.4 250.2 690.1 c 1
 240.8 687.9 232.3 689 227.2 695.6 c 1
 239.1 760.5 258.7 803.4 295.2 803.4 c 0
 320.7 803.4 339.5 781.4 356.5 766 c 0
 370.1 752.8 384.5 745.1 400.7 745.1 c 0
EndSplineSet
Refer: 264 79 N 1 0 0 1 0 0 2
Colour: ff9ccc
EndChar

StartChar: uni0230
Encoding: 560 560 623
Width: 702
GlyphClass: 2
Flags: MW
AnchorPoint: "cedilla" 350 0 basechar 0
AnchorPoint: "below" 350 -110 basechar 0
LayerCount: 2
Fore
SplineSet
436 771 m 1
 518 771 l 2
 527 771 531 763 531 756 c 0
 531 745 521 728 508 728 c 2
 427 728 l 1
 436 771 l 1
240 728 m 1
 155 728 l 2
 146 728 143 735 143 742 c 0
 143 753 153 771 165 771 c 2
 249 771 l 1
 240 728 l 1
EndSplineSet
Refer: 621 558 N 1 0 0 1 0 0 2
Colour: ff9ccc
EndChar

StartChar: uni0250
Encoding: 592 592 627
Width: 457
GlyphClass: 2
Flags: MW
AnchorPoint: "above" 228 645 basechar 0
AnchorPoint: "cedilla" 246 -3 basechar 0
AnchorPoint: "ogonek" 329 16 basechar 0
AnchorPoint: "below" 229 -114 basechar 0
LayerCount: 2
Fore
SplineSet
169 196 m 1
 248 217 l 2
 322 236 343 282 343 327 c 0
 343 358 321 398 271 398 c 0
 243 398 209 375 183 354 c 0
 175 348 169 341 169 328 c 2
 169 196 l 1
169 381 m 1
 171 381 l 1
 191 397 l 2
 235 431 265.2 439 300 439 c 0
 370 439 426 413 426 331 c 0
 426 263 357 210 261 186 c 2
 175 165 l 2
 172 164 169 160 169 153 c 0
 169 40 216 23 250 23 c 0
 288 23 330 34 330 65 c 0
 330 76 329 82 328 85 c 0
 326 89 325 96 325 103 c 0
 325 116 343 137 372 137 c 0
 395 137 407 125 407 101 c 0
 407 44 324 -10 242 -10 c 0
 169 -10 91 17 91 159 c 2
 91 306 l 2
 91 352 90 391 61 391 c 0
 48.3 391 31.5 381.2 24 375 c 1
 12.7 381.3 8.7 389.7 7 402 c 1
 27.7 422 63.7 439 102 439 c 0
 152.4 439 163 412 169 381 c 1
EndSplineSet
Comment: "Anfang{IPA Extensions}"
Colour: ff00ff
EndChar

StartChar: uni0251
Encoding: 593 593 628
Width: 511
GlyphClass: 2
Flags: MW
AnchorPoint: "above" 228 645 basechar 0
AnchorPoint: "right" 470 580 basechar 0
AnchorPoint: "komb_OR" 480 466 basechar 0
AnchorPoint: "middle" 236 215 basechar 0
AnchorPoint: "ogonek" 463 16 basechar 0
AnchorPoint: "below" 212 -114 basechar 0
LayerCount: 2
Fore
SplineSet
322 368.4 m 0
 300.1 392.9 273.4 405 243 405 c 0
 163 405 121 331 121 227 c 0
 121 76 208 34 266 34 c 0
 281.8 34 308.6 35.1 332 47.2 c 0
 345 54 346 59 346 77 c 2
 346 307 l 2
 346 331.1 342 346 322 368.4 c 0
356 26.5 m 1
 326.2 6.1 292.3 -10 242 -10 c 0
 98 -10 35 114 35 207 c 0
 35 339 125 439 247 439 c 0
 289.4 439 328.4 430.3 360 409.8 c 0
 372 402 376 405 389 423 c 0
 397.1 434.3 403 442 410 442 c 0
 421 442 425 431 425 417 c 2
 425 121 l 2
 425 76 426 36 465 36 c 0
 480.3 36 490.2 52 496 52 c 0
 500 52 509 42 509 35 c 0
 509 30 473 -10 424 -10 c 0
 386.4 -10 366.6 8.3 356 26.5 c 1
EndSplineSet
Colour: ff0000
EndChar

StartChar: uni0252
Encoding: 594 594 629
Width: 527
GlyphClass: 2
Flags: MW
AnchorPoint: "ogonek" 399 26 basechar 0
AnchorPoint: "middle" 272 215 basechar 0
AnchorPoint: "komb_OR" 446 466 basechar 0
AnchorPoint: "right" 436 580 basechar 0
AnchorPoint: "above" 264 645 basechar 0
AnchorPoint: "below" 259 -114 basechar 0
LayerCount: 2
Fore
SplineSet
197 61.6 m 0
 218.9 37.1 245.6 25 276 25 c 0
 356 25 398 109 398 213 c 0
 398 346 321 396 263 396 c 0
 247.2 396 210.4 394.9 187 382.8 c 0
 174 376 173 371 173 353 c 2
 173 123 l 2
 173 98.9 177 84 197 61.6 c 0
163 403.5 m 1
 192.8 423.9 226.7 440 277 440 c 0
 421 440 484 360 484 233 c 0
 484 113.9 404 -9 282 -9 c 0
 239.6 -9 190.6 -0.299999 159 20.2 c 0
 147 28 143 25 130 7 c 0
 121.9 -4.3 116 -12 109 -12 c 0
 98 -12 94 -1 94 13 c 2
 94 309 l 2
 94 354 93 394 54 394 c 0
 33 394 28.8 378 23 378 c 0
 19 378 10 388 10 395 c 0
 10 400 46 440 95 440 c 0
 132.6 440 152.4 421.7 163 403.5 c 1
EndSplineSet
Colour: ff00ff
EndChar

StartChar: uni0254
Encoding: 596 596 630
Width: 433
GlyphClass: 2
Flags: MW
AnchorPoint: "right" 366 580 basechar 0
AnchorPoint: "komb_OR" 376 466 basechar 0
AnchorPoint: "above" 216 645 basechar 0
AnchorPoint: "cedilla" 174 -3 basechar 0
AnchorPoint: "below" 177 -114 basechar 0
LayerCount: 2
Fore
SplineSet
35 338 m 1
 85 420 138 439 198 439 c 0
 324 439 396 350 396 221 c 0
 396 79 290 -10 191 -10 c 0
 95 -10 38 30 38 85 c 0
 38 116 66 129 87 129 c 0
 108 129 122 120 125 93 c 0
 129 58 137 23 196 23 c 0
 262 23 310 89 310 199 c 0
 310 316 249 390 176 390 c 0
 133 390 90 368 56 324 c 1
 47 325 39 329 35 338 c 1
EndSplineSet
Colour: ff00ff
EndChar

StartChar: uni0258
Encoding: 600 600 631
Width: 427
GlyphClass: 2
Flags: MW
AnchorPoint: "above" 204 645 basechar 0
AnchorPoint: "ogonek" 290 41 basechar 0
AnchorPoint: "below" 212 -114 basechar 0
LayerCount: 2
Fore
SplineSet
317 287 m 1
 298 400 241 404 217 404 c 0
 179 404 123 383 123 299 c 0
 123 290 128 285 138 285 c 2
 317 287 l 1
57 96 m 1
 94 58 134 37 192 37 c 0
 246.7 37 320 94.8 320 248 c 1
 56 246 l 2
 44 246 37 252 37 263 c 0
 37 347 88 437 227 437 c 0
 327 437 407 370 407 212 c 0
 407 88.3 296.2 -12 187 -12 c 0
 111 -12 74 25 34 77 c 1
 37 87 45 95 57 96 c 1
EndSplineSet
Colour: ff0000
EndChar

StartChar: uni025B
Encoding: 603 603 633
Width: 397
GlyphClass: 2
Flags: MW
AnchorPoint: "cedilla" 167 -3 basechar 0
AnchorPoint: "ogonek" 333 43 basechar 0
AnchorPoint: "above" 209 645 basechar 0
AnchorPoint: "below" 212 -114 basechar 0
LayerCount: 2
Fore
SplineSet
123 121 m 0
 123 68 165 28 220 28 c 0
 267 28 305 44 344 71 c 1
 352.7 68.2 358.6 60.8 359 50 c 1
 326 19 272 -10 209 -10 c 0
 77 -10 44 55 44 113 c 0
 44 151 63 204 135 229 c 1
 135 231 l 1
 89.2 250.3 63 278.7 63 327 c 0
 63 367 98 439 216 439 c 0
 293 439 351 403 351 367 c 0
 351 338 332 330 319 330 c 0
 297 330 287 346 277 363 c 1
 266 385 249 406 210 406 c 0
 179 406 134 400 134 334 c 0
 134 265 170 243 213 243 c 0
 214 243 259 248 264 248 c 0
 283 248 293 239 293 227 c 0
 293 215 286 204 263 204 c 0
 255 204 221 210 212 210 c 0
 156 210 123 177 123 121 c 0
EndSplineSet
Colour: ff00ff
EndChar

StartChar: uni025C
Encoding: 604 604 634
Width: 396
GlyphClass: 2
Flags: MW
AnchorPoint: "cedilla" 167 -3 basechar 0
AnchorPoint: "ogonek" 410 16 basechar 0
AnchorPoint: "above" 194 645 basechar 0
AnchorPoint: "below" 184 -114 basechar 0
LayerCount: 2
Fore
SplineSet
275 112 m 0
 275 168 241 209 185 209 c 0
 177 209 142 204 134 204 c 0
 112 204 104 213 104 225 c 0
 104 237 115 243 133 243 c 0
 139 243 183 238 184 238 c 0
 227 238 263 256 263 317 c 0
 263 381 220 410 188 410 c 0
 149 410 124 385 112 363 c 0
 103 346 92 330 70 330 c 0
 58 330 39 338 39 367 c 0
 39 403 105 439 182 439 c 0
 301 439 334 367 334 327 c 0
 334 283.8 309.3 248.3 263 229 c 1
 263 227 l 1
 353 197 353 144 353 121 c 0
 353 64 326 -10 188 -10 c 0
 125 -10 71 19 38 50 c 1
 39.9 59.3 46.5 66 54 70 c 1
 93 43 131 27 178 27 c 0
 237 27 275 59 275 112 c 0
EndSplineSet
Colour: ff0000
EndChar

StartChar: uni0265
Encoding: 613 613 635
Width: 540
GlyphClass: 2
Flags: MW
AnchorPoint: "middle" 268 214 basechar 0
AnchorPoint: "cedilla" 205 -3 basechar 0
AnchorPoint: "below" 219 -129 basechar 0
AnchorPoint: "above" 268 645 basechar 0
LayerCount: 2
Fore
SplineSet
375 143.1 m 2
 375 307 l 2
 375 390 366 394 315.2 398 c 1
 309.2 404 309.2 425 315.2 431 c 1
 343.2 430 376 429 414 429 c 0
 454 429 490.8 430 523.8 431 c 1
 529.8 425 529.8 404 523.8 398 c 1
 465.8 394 454 390 454 307 c 2
 454 -97 l 2
 454 -181 466 -176 518 -179 c 1
 524 -185 526 -201 524 -209 c 1
 484 -212 409 -226 384 -236 c 1
 375 -236 371 -233 371 -226 c 2
 371 -226 375 -186 375 -121 c 2
 375.8 71 l 2
 375.8 85 369.4 74.8 366 71 c 0
 305 3 245.1 -10 196 -10 c 0
 161 -10 129.8 2 113 24 c 0
 89.7 54.5 86 103 86 158 c 2
 86 307 l 2
 86 389 75 393 19 398 c 1
 14 404 14 425 19 431 c 1
 52 430 85 429 125 429 c 0
 165 429 199 430 227 431 c 1
 232 425 232 404 227 398 c 1
 175 393 165 389 165 307 c 2
 165 155 l 2
 165 125 167 97.8 177 78 c 0
 188.6 55.1 209.6 42 230 42 c 0
 269.4 42 320 63.7 358 101 c 0
 366 109.7 375 122 375 143.1 c 2
EndSplineSet
Colour: ff0000
EndChar

StartChar: uni026A
Encoding: 618 618 636
Width: 273
GlyphClass: 2
Flags: MW
AnchorPoint: "cedilla" 137 -3 basechar 0
AnchorPoint: "ogonek" 227 12 basechar 0
AnchorPoint: "above" 133 645 basechar 0
AnchorPoint: "below" 139 -114 basechar 0
LayerCount: 2
Fore
SplineSet
176 307 m 2
 176 122 l 2
 176 39 187 35 248 31 c 1
 254 25 254 4 248 -2 c 1
 216 -1 180 0 137 0 c 0
 93 0 58 -1 25 -2 c 1
 19 4 19 25 25 31 c 1
 86 36 97 39 97 122 c 2
 97 307 l 2
 97 390 86 394 25 398 c 1
 19 404 19 425 25 431 c 1
 58 430 93 429 136 429 c 0
 180 429 214 430 248 431 c 1
 254 425 254 404 248 398 c 1
 187 393 176 390 176 307 c 2
EndSplineSet
Colour: ff0000
EndChar

StartChar: uni026F
Encoding: 623 623 637
Width: 790
GlyphClass: 2
Flags: MW
AnchorPoint: "cedilla" 167 -3 basechar 0
AnchorPoint: "ogonek" 410 16 basechar 0
AnchorPoint: "above" 407 645 basechar 0
AnchorPoint: "below" 410 -114 basechar 0
LayerCount: 2
Fore
SplineSet
622 71 m 0
 621.5 83 614.6 76.1 610 71 c 0
 568.3 24.4 516 -10 458 -10 c 0
 406 -10 367.5 22.4 358 63.4 c 0
 356 72 350 67 347 63.8 c 0
 294.9 8.8 233.2 -10 182 -10 c 0
 94 -10 79 60 79 149 c 2
 79 307 l 2
 79 389 70 394 15 398 c 1
 10 404 10 425 15 431 c 1
 43 430 78 429 118 429 c 0
 158 429 195 430 220 431 c 1
 225 425 225 404 220 398 c 1
 168 394 158 389 158 307 c 2
 158 131 l 2
 158 64 180 42 218 42 c 0
 257 42 302 55 350 108 c 1
 349 120 349 134 349 148 c 2
 349 307 l 2
 349 389 340 394 290 398 c 1
 285 404 285 425 290 431 c 1
 315 430 348 429 388 429 c 0
 428 429 465 430 490 431 c 1
 495 425 495 404 490 398 c 1
 436 394 428 389 428 307 c 2
 428 133 l 2
 428 66 456 42 494 42 c 0
 524.9 42 562.4 62.3 602 101 c 0
 610 109.7 619 122 619 143 c 2
 619 307 l 2
 619 389 608 393 557.2 398 c 1
 551.2 404 551.2 425 557.2 431 c 1
 587.2 430 618 429 658 429 c 0
 698 429 736 430 766 431 c 1
 772 425 772 404 766 398 c 1
 711 394 698 389 698 307 c 2
 698 112 l 2
 698 54 709 49 763 44 c 1
 765 38 767 22 765 16 c 1
 696 7 670 -2 642 -13 c 1
 634 -13 632.1 -9.6 630 -5 c 0
 625.3 5.3 623.3 41.3 622 71 c 0
EndSplineSet
Colour: ff00ff
EndChar

StartChar: uni0270
Encoding: 624 624 638
Width: 760
GlyphClass: 2
Flags: MW
AnchorPoint: "above" 209 645 basechar 0
AnchorPoint: "cedilla" 167 -3 basechar 0
AnchorPoint: "ogonek" 410 16 basechar 0
AnchorPoint: "below" 294 -114 basechar 0
LayerCount: 2
Fore
SplineSet
594 -159 m 1
 594 -39 l 1
 597 74 l 1
 594 74 l 1
 546 25 504 -10 442 -10 c 0
 387 -10 354 30 347 76 c 1
 290 16 241 -10 187 -10 c 0
 99 -10 84 61 84 150 c 2
 84 355 l 2
 84 383 72.7 394.4 42 399 c 2
 22 402 l 2
 18 402.6 14 405 14 410 c 2
 14 429 l 1
 16 431 l 1
 16 431 84 429 124 429 c 0
 159 429 227 431 227 431 c 1
 229 429 l 1
 229 410 l 2
 229 405 225.9 402.8 221 402 c 2
 202 399 l 2
 169.3 393.8 159 383 159 355 c 2
 159 127 l 2
 159 61 185 38 223 38 c 0
 262 38 294 56 342 108 c 1
 340 121 340 134 340 149 c 2
 340 355 l 2
 340 383 329.8 393.8 297 399 c 2
 278 402 l 2
 274 402.6 270 405 270 410 c 2
 270 429 l 1
 272 431 l 1
 272 431 340 429 379 429 c 0
 415 429 483 431 483 431 c 1
 485 429 l 1
 485 410 l 2
 485 405 481.9 402.8 477 402 c 2
 458 399 l 2
 425.6 393.9 415 383 415 355 c 2
 415 129 l 2
 415 63 441 38 479 38 c 0
 514 38 546 61 594 110 c 1
 594 355 l 2
 594 383 582.6 394 551 399 c 2
 532 402 l 2
 527.1 402.8 523 405 523 410 c 2
 523 429 l 1
 525 431 l 1
 525 431 594 429 633 429 c 0
 668 429 736 431 736 431 c 1
 738 429 l 1
 738 410 l 2
 738 405 734.9 402.8 730 402 c 2
 711 399 l 2
 678.6 393.9 669 383 669 355 c 2
 669 -110 l 2
 669 -160 671.6 -165.8 693 -168 c 2
 741 -173 l 1
 744 -196 l 1
 682 -207 638 -220 616 -238 c 1
 593 -238 l 1
 594 -159 l 1
EndSplineSet
Colour: ff0000
EndChar

